<svg width="181" height="181" viewBox="0 0 181 181" fill="none" xmlns="http://www.w3.org/2000/svg">
<circle cx="16.0573" cy="107.222" r="2" fill="#7FBF9E"/>
<circle cx="162.057" cy="72.2224" r="2" fill="#7FBF9E"/>
<path d="M169.965 91.4814L169.883 92.6685L165.679 92.3761L169.616 96.5092L169.514 97.9757L165.227 93.4253L159.723 97.5052L159.825 96.0387L164.855 92.3188L160.107 91.9885L160.189 90.8014L169.965 91.4814Z" fill="#7FBF9E"/>
<path d="M157.895 107.616L161.041 107.074L161.943 103.23L159.366 101.346L159.669 100.051L168.648 106.831L157.591 108.91L157.895 107.616ZM166.017 106.214L162.925 103.95L162.241 106.866L166.017 106.214Z" fill="#7FBF9E"/>
<path d="M165.478 116.719L164.46 119.176C164.217 119.762 163.889 120.238 163.476 120.602C163.067 120.978 162.605 121.216 162.089 121.316C161.57 121.424 161.03 121.362 160.469 121.129C159.917 120.901 159.491 120.563 159.192 120.116C158.897 119.68 158.734 119.184 158.703 118.625C158.677 118.079 158.785 117.512 159.028 116.926L159.59 115.568L155.969 114.068L156.424 112.968L165.478 116.719ZM163.426 118.748L163.988 117.389L160.625 115.997L160.063 117.355C159.82 117.941 159.766 118.474 159.9 118.954C160.031 119.443 160.373 119.801 160.924 120.03C161.485 120.262 161.98 120.25 162.409 119.994C162.844 119.749 163.183 119.334 163.426 118.748Z" fill="#7FBF9E"/>
<path d="M160.832 127.363L160.223 128.386L156.855 126.379L156.103 127.642C155.778 128.188 155.384 128.611 154.923 128.911C154.464 129.225 153.973 129.394 153.448 129.418C152.918 129.45 152.393 129.311 151.871 129C151.358 128.695 150.986 128.299 150.754 127.813C150.525 127.34 150.435 126.825 150.485 126.267C150.537 125.723 150.726 125.178 151.051 124.633L152.412 122.348L160.832 127.363ZM155.14 127.069L155.893 125.806L152.765 123.943L152.013 125.206C151.688 125.751 151.558 126.271 151.622 126.766C151.681 127.268 151.967 127.672 152.48 127.978C153.002 128.288 153.493 128.348 153.955 128.156C154.42 127.977 154.815 127.614 155.14 127.069Z" fill="#7FBF9E"/>
<path d="M154.616 137.324L151.08 141.666L150.211 140.959L152.997 137.54L150.826 135.771L148.217 138.973L147.349 138.266L149.957 135.064L147.135 132.765L144.35 136.184L143.482 135.477L147.018 131.135L154.616 137.324Z" fill="#7FBF9E"/>
<path d="M146.969 146.33L145.001 148.12C144.532 148.547 144.032 148.837 143.503 148.99C142.973 149.157 142.454 149.175 141.945 149.046C141.428 148.922 140.966 148.636 140.558 148.187C140.156 147.745 139.915 147.258 139.834 146.726C139.753 146.207 139.817 145.688 140.027 145.169C140.236 144.664 140.575 144.197 141.044 143.77L142.132 142.781L139.494 139.881L140.374 139.081L146.969 146.33ZM144.247 147.291L145.335 146.302L142.885 143.61L141.798 144.599C141.329 145.026 141.052 145.485 140.97 145.977C140.88 146.475 141.036 146.945 141.438 147.386C141.847 147.835 142.3 148.035 142.797 147.986C143.295 147.95 143.778 147.718 144.247 147.291Z" fill="#7FBF9E"/>
<path d="M127.175 149.602L129.831 151.375L133.131 149.207L132.557 146.065L133.669 145.335L135.517 156.433L126.064 150.332L127.175 149.602ZM134.033 154.175L133.348 150.404L130.844 152.049L134.033 154.175Z" fill="#7FBF9E"/>
<path d="M111.758 159.828C111.552 159.217 111.522 158.661 111.668 158.159C111.808 157.668 112.083 157.241 112.492 156.877C112.895 156.524 113.397 156.246 113.999 156.044L116.519 155.194L119.65 164.48L117.262 165.285C116.43 165.566 115.698 165.601 115.066 165.39C114.434 165.18 113.985 164.681 113.72 163.894C113.559 163.416 113.56 162.968 113.724 162.548C113.891 162.137 114.189 161.781 114.619 161.478C113.967 161.56 113.385 161.47 112.874 161.209C112.356 160.96 111.984 160.5 111.758 159.828ZM116.926 164.29L118.187 163.866L117.256 161.106L115.996 161.531C115.527 161.689 115.178 161.94 114.949 162.283C114.72 162.626 114.679 163.014 114.825 163.447C114.974 163.89 115.243 164.178 115.634 164.313C116.027 164.456 116.457 164.448 116.926 164.29ZM115.727 156.569L114.334 157.039C113.733 157.241 113.298 157.56 113.031 157.995C112.758 158.441 112.717 158.948 112.908 159.514C113.102 160.089 113.439 160.462 113.921 160.635C114.394 160.81 114.931 160.797 115.532 160.594L116.925 160.124L115.727 156.569Z" fill="#7FBF9E"/>
<path d="M99.4886 166.429L99.8324 159.776L101.02 159.707L100.428 170.048L96.1036 163.189L92.6007 170.502L90.8175 160.298L92.0055 160.229L93.1153 166.798L95.9716 160.911L99.4886 166.429Z" fill="#7FBF9E"/>
<path d="M86.0182 165.269C85.9216 165.981 85.7123 166.622 85.3902 167.19C85.0577 167.767 84.6394 168.247 84.1352 168.631C83.6298 169.023 83.0596 169.304 82.4246 169.472C81.7883 169.65 81.1187 169.691 80.4158 169.595C79.7036 169.499 79.0692 169.281 78.5124 168.941C77.9451 168.61 77.4702 168.188 77.0878 167.674C76.7041 167.17 76.4334 166.597 76.2757 165.954C76.1076 165.319 76.0718 164.645 76.1684 163.933C76.2638 163.23 76.4777 162.59 76.8102 162.014C77.1335 161.436 77.5478 160.951 78.0533 160.558C78.5574 160.174 79.1276 159.893 79.7639 159.716C80.3897 159.547 81.0587 159.51 81.7708 159.607C82.4737 159.702 83.1088 159.915 83.6761 160.247C84.2421 160.587 84.717 161.01 85.1007 161.514C85.4832 162.027 85.7578 162.606 85.9247 163.25C86.0824 163.893 86.1135 164.566 86.0182 165.269ZM84.7696 165.1C84.8687 164.369 84.8 163.696 84.5633 163.08C84.3174 162.462 83.9396 161.95 83.4298 161.541C82.9201 161.133 82.3138 160.881 81.6109 160.786C80.8987 160.689 80.2472 160.771 79.6564 161.029C79.0563 161.287 78.5601 161.681 78.1679 162.212C77.7664 162.742 77.5161 163.372 77.417 164.102C77.3179 164.833 77.3913 165.507 77.6372 166.124C77.8738 166.74 78.247 167.252 78.7568 167.661C79.2573 168.068 79.8636 168.319 80.5757 168.416C81.2786 168.511 81.9301 168.43 82.5302 168.173C83.1303 167.915 83.6311 167.521 84.0326 166.992C84.4248 166.461 84.6705 165.83 84.7696 165.1Z" fill="#7FBF9E"/>
<path d="M70.9741 162.813C71.2101 162.095 71.2589 161.409 71.1204 160.754C70.9731 160.097 70.6888 159.527 70.2677 159.044C69.8466 158.562 69.3301 158.22 68.7183 158.019C68.0622 157.804 67.4392 157.741 66.8493 157.832C66.2594 157.923 65.7333 158.119 65.2712 158.419L65.7608 156.929C66.2646 156.712 66.7748 156.594 67.2912 156.577C67.8076 156.561 68.4072 156.664 69.09 156.889C69.7372 157.101 70.3067 157.416 70.7984 157.833C71.2783 158.256 71.6611 158.751 71.9468 159.316C72.2295 159.891 72.3945 160.51 72.4415 161.174C72.4885 161.837 72.3984 162.515 72.171 163.207C71.9437 163.898 71.6142 164.497 71.1824 165.004C70.7506 165.51 70.252 165.907 69.6865 166.192C69.1181 166.487 68.5167 166.658 67.8823 166.704C67.2362 166.757 66.5895 166.677 65.9422 166.465C65.2595 166.24 64.7153 165.968 64.3096 165.648C63.9039 165.328 63.5628 164.931 63.2864 164.457L63.776 162.967C63.9671 163.492 64.2745 163.961 64.6983 164.376C65.1192 164.799 65.6577 165.118 66.3138 165.334C66.9256 165.535 67.5441 165.567 68.1692 165.428C68.7944 165.29 69.3613 165 69.8701 164.558C70.3671 164.122 70.7351 163.54 70.9741 162.813Z" fill="#7FBF9E"/>
<path d="M53.7266 161.315L52.6804 160.748L53.2141 159.763C52.4927 159.351 51.9182 158.853 51.4906 158.271C51.063 157.689 50.8185 157.063 50.7572 156.393C50.6914 155.731 50.843 155.059 51.2122 154.378C51.5814 153.697 52.0635 153.199 52.6586 152.885C53.2492 152.579 53.9051 152.446 54.6262 152.486C55.3474 152.527 56.0775 152.737 56.8167 153.116L57.3504 152.132L58.3966 152.699L57.8629 153.684C58.5843 154.096 59.1588 154.593 59.5864 155.175C60.014 155.757 60.2607 156.379 60.3265 157.041C60.3879 157.712 60.234 158.387 59.8648 159.068C59.4957 159.749 59.0158 160.243 58.4252 160.549C57.8301 160.864 57.172 161 56.4508 160.96C55.7297 160.919 54.9995 160.709 54.2603 160.33L53.7266 161.315ZM52.2584 154.945C51.8581 155.684 51.8141 156.382 52.1265 157.039C52.4306 157.693 52.9822 158.252 53.7812 158.717L56.2497 154.163C55.424 153.747 54.6545 153.59 53.9411 153.692C53.2196 153.789 52.6587 154.207 52.2584 154.945ZM58.8187 158.501C59.2189 157.763 59.267 157.067 58.9629 156.414C58.6505 155.756 58.0948 155.195 57.2958 154.73L54.8274 159.284C55.6531 159.699 56.4267 159.859 57.1482 159.761C57.8616 159.66 58.4184 159.24 58.8187 158.501Z" fill="#7FBF9E"/>
<path d="M45.0299 143.838L44.1502 146.907L47.2202 149.389L50.0376 147.887L51.0718 148.723L41.0639 153.864L43.9956 143.001L45.0299 143.838ZM42.7628 151.763L46.1459 149.961L43.8162 148.077L42.7628 151.763Z" fill="#7FBF9E"/>
<path d="M33.6556 146.832L31.8728 144.858C31.4474 144.387 31.159 143.887 31.0076 143.357C30.843 142.827 30.8265 142.307 30.9581 141.798C31.0835 141.283 31.3713 140.822 31.8215 140.415C32.2648 140.015 32.7528 139.775 33.2855 139.697C33.8049 139.617 34.3236 139.683 34.8415 139.895C35.3462 140.105 35.8113 140.446 36.2367 140.917L37.2219 142.008L40.1311 139.381L40.9287 140.264L33.6556 146.832ZM32.704 144.108L33.6893 145.199L36.3907 142.759L35.4054 141.668C34.9801 141.197 34.5217 140.919 34.0304 140.835C33.5328 140.743 33.0624 140.898 32.6191 141.298C32.1689 141.705 31.9674 142.157 32.0147 142.655C32.0489 143.152 32.2786 143.637 32.704 144.108Z" fill="#7FBF9E"/>
<path d="M27.7216 135.068L33.7208 132.171L34.3522 133.18L24.9988 137.631L28.9352 130.542L20.8388 130.986L28.9294 124.517L29.5608 125.526L24.3342 129.657L30.8695 129.331L27.7216 135.068Z" fill="#7FBF9E"/>
<path d="M24.3564 114.476L22.0748 116.71L23.517 120.385L26.709 120.471L27.1949 121.709L15.9539 121.232L23.8706 113.238L24.3564 114.476ZM18.4692 120.245L22.3006 120.351L21.2061 117.562L18.4692 120.245Z" fill="#7FBF9E"/>
<path d="M10.405 96.7894L10.3729 95.5999L14.5853 95.486L10.2689 91.7513L10.2292 90.2818L14.9341 94.3982L20.0199 89.8071L20.0596 91.2766L15.411 95.4637L20.1693 95.3351L20.2015 96.5247L10.405 96.7894Z" fill="#7FBF9E"/>
<path d="M20.8724 79.4205L17.7916 80.26L17.2609 84.1721L20.0067 85.802L19.8279 87.12L10.2429 81.228L21.0512 78.1026L20.8724 79.4205ZM12.9204 81.5912L16.215 83.5499L16.6178 80.5811L12.9204 81.5912Z" fill="#7FBF9E"/>
<path d="M12.4896 70.8967L13.2724 68.3545C13.4592 67.7479 13.7413 67.244 14.1188 66.8426C14.4901 66.4296 14.928 66.1494 15.4324 66.002C15.9395 65.8456 16.483 65.8567 17.0628 66.0353C17.6337 66.2111 18.0892 66.5076 18.4295 66.9249C18.7636 67.3305 18.9724 67.8098 19.056 68.3629C19.1335 68.9044 19.0788 69.4784 18.892 70.0849L18.4594 71.4898L22.2058 72.6434L21.8556 73.7807L12.4896 70.8967ZM14.3428 68.6841L13.9102 70.089L17.389 71.1602L17.8216 69.7553C18.0084 69.1488 18.0123 68.6128 17.8333 68.1476C17.657 67.6733 17.2835 67.3484 16.7126 67.1726C16.1328 66.994 15.6411 67.0526 15.2376 67.3483C14.8278 67.6323 14.5296 68.0775 14.3428 68.6841Z" fill="#7FBF9E"/>
<path d="M16.0778 59.9239L16.5899 58.8497L20.1284 60.5365L20.761 59.2096C21.0341 58.6367 21.3866 58.1792 21.8185 57.8371C22.246 57.4826 22.72 57.2691 23.2405 57.1967C23.765 57.1158 24.301 57.2059 24.8486 57.467C25.3878 57.724 25.7954 58.0838 26.0713 58.5461C26.3427 58.9961 26.4796 59.5007 26.4817 60.0601C26.4795 60.607 26.3418 61.167 26.0687 61.7399L24.9241 64.141L16.0778 59.9239ZM21.772 59.6916L21.1394 61.0185L24.4251 62.5848L25.0577 61.2579C25.3308 60.685 25.4127 60.1554 25.3034 59.669C25.198 59.1742 24.8758 58.7982 24.3366 58.5412C23.7889 58.2801 23.294 58.2665 22.8517 58.5002C22.405 58.7215 22.0451 59.1187 21.772 59.6916Z" fill="#7FBF9E"/>
<path d="M29.8358 54.3176L32.5948 50.2175L31.6656 49.5922L28.9066 53.6923L29.8358 54.3176ZM22.6344 49.4717L25.3935 45.3716L24.4643 44.7463L21.7052 48.8464L22.6344 49.4717ZM25.8866 51.6602L28.4894 47.7923L27.5602 47.1671L24.9574 51.0349L25.8866 51.6602ZM21.3379 49.3923L29.4684 54.8635L30.1328 53.8762L22.0022 48.405L21.3379 49.3923Z" fill="#7FBF9E"/>
<path d="M28.0247 39.8237L29.8146 37.8561C30.2417 37.3866 30.7115 37.0506 31.2238 36.848C31.7356 36.6322 32.2511 36.5649 32.7702 36.646C33.2957 36.7203 33.7828 36.9615 34.2316 37.3698C34.6734 37.7717 34.9596 38.2339 35.09 38.7563C35.2198 39.2655 35.2048 39.7882 35.0452 40.3243C34.8849 40.8472 34.5912 41.3434 34.1641 41.8129L33.1749 42.9003L36.0746 45.5381L35.2738 46.4184L28.0247 39.8237ZM30.6431 38.6098L29.6539 39.6971L32.3465 42.1466L33.3357 41.0592C33.7627 40.5897 33.9943 40.1064 34.0302 39.6092C34.0725 39.105 33.8727 38.652 33.4308 38.25C32.982 37.8418 32.5122 37.6856 32.0212 37.7815C31.5296 37.8642 31.0702 38.1403 30.6431 38.6098Z" fill="#7FBF9E"/>
<path d="M47.5127 34.6144L44.7063 33.0912L41.6183 35.551L42.4755 38.6269L41.4353 39.4556L38.5827 28.5722L48.553 33.7857L47.5127 34.6144ZM40.2662 30.6856L41.2927 34.3784L43.6361 32.5117L40.2662 30.6856Z" fill="#7FBF9E"/>
<path d="M61.4581 23.1635C61.7222 23.7508 61.8061 24.3015 61.7097 24.8156C61.6181 25.3173 61.3864 25.7694 61.0148 26.1718C60.6478 26.562 60.1749 26.8872 59.596 27.1474L57.17 28.2382L53.1513 19.3L55.4497 18.2667C56.2499 17.9069 56.9749 17.801 57.6247 17.9488C58.2745 18.0967 58.7697 18.5495 59.1103 19.3071C59.317 19.7668 59.3592 20.2134 59.2369 20.647C59.1108 21.0721 58.8485 21.4561 58.4501 21.799C59.091 21.6541 59.6787 21.6866 60.2131 21.8966C60.7523 22.0942 61.1673 22.5165 61.4581 23.1635ZM55.8803 19.2243L54.6673 19.7697L55.8614 22.4256L57.0744 21.8802C57.5256 21.6774 57.8485 21.3941 58.0431 21.0303C58.2377 20.6665 58.2412 20.276 58.0537 19.8589C57.8623 19.4333 57.566 19.1725 57.1647 19.0766C56.7596 18.9722 56.3315 19.0215 55.8803 19.2243ZM57.8247 26.7925L59.1655 26.1897C59.7443 25.9295 60.1455 25.57 60.3691 25.1113C60.5974 24.6403 60.589 24.1324 60.3441 23.5876C60.0953 23.0343 59.7228 22.6952 59.2267 22.5704C58.739 22.4417 58.2058 22.5075 57.6269 22.7677L56.2862 23.3705L57.8247 26.7925Z" fill="#7FBF9E"/>
<path d="M72.9952 15.3202L73.2917 21.9755L72.1158 22.158L71.7131 11.8073L76.6756 18.2199L79.4602 10.6045L82.2148 20.5902L81.0389 20.7727L79.3036 14.3408L77.0257 20.4749L72.9952 15.3202Z" fill="#7FBF9E"/>
<path d="M86.6873 15.1102C86.7178 14.3921 86.8671 13.7352 87.1353 13.1394C87.4133 12.5346 87.7855 12.018 88.2521 11.5894C88.7191 11.1515 89.261 10.8195 89.8778 10.5935C90.4951 10.3581 91.158 10.2555 91.8667 10.2856C92.5847 10.3161 93.2366 10.4746 93.8223 10.761C94.4177 11.0386 94.9295 11.4153 95.3577 11.8912C95.7863 12.3578 96.1087 12.904 96.325 13.5297C96.5511 14.1466 96.6488 14.814 96.6183 15.532C96.5882 16.2407 96.4342 16.8974 96.1563 17.5022C95.8877 18.1073 95.5199 18.6288 95.0529 19.0667C94.5863 19.4953 94.0444 19.8273 93.4272 20.0627C92.8197 20.2891 92.157 20.387 91.4389 20.3565C90.7302 20.3264 90.0782 20.1726 89.4828 19.8951C88.8877 19.6083 88.3759 19.2315 87.9473 18.7649C87.5191 18.289 87.1922 17.738 86.9666 17.1118C86.7503 16.4861 86.6572 15.8189 86.6873 15.1102ZM87.9462 15.1636C87.9149 15.9003 88.0455 16.5644 88.338 17.1561C88.6398 17.7481 89.0633 18.2238 89.6085 18.5833C90.1538 18.9427 90.7807 19.1375 91.4894 19.1676C92.2075 19.1981 92.8487 19.0572 93.4131 18.7449C93.9869 18.4329 94.4445 17.9946 94.7861 17.43C95.1371 16.8657 95.3282 16.2152 95.3595 15.4785C95.3908 14.7419 95.2555 14.0775 94.9537 13.4855C94.6612 12.8939 94.2423 12.4184 93.6971 12.0589C93.1612 11.6998 92.5342 11.505 91.8162 11.4745C91.1075 11.4444 90.4663 11.5854 89.8925 11.8973C89.3188 12.2092 88.8564 12.6473 88.5055 13.2116C88.1639 13.7763 87.9775 14.427 87.9462 15.1636Z" fill="#7FBF9E"/>
<path d="M101.994 16.1113C102.163 15.3649 102.474 14.7512 102.928 14.2702C103.392 13.7821 103.929 13.4396 104.538 13.2427C105.148 13.0458 105.766 13.0185 106.394 13.1609C106.85 13.264 107.25 13.417 107.597 13.6199C107.952 13.8248 108.26 14.0716 108.52 14.3602C108.782 14.6397 108.99 14.9453 109.145 15.2769L109.491 13.7477C109.171 13.302 108.794 12.939 108.36 12.6588C107.926 12.3786 107.358 12.1591 106.657 12.0003C105.993 11.8497 105.342 11.8313 104.703 11.9451C104.076 12.0518 103.494 12.2787 102.956 12.6257C102.42 12.9637 101.961 13.4052 101.579 13.9502C101.197 14.4953 100.926 15.1229 100.765 15.8329C100.604 16.5429 100.578 17.2261 100.688 17.8826C100.798 18.539 101.02 19.1398 101.356 19.6848C101.694 20.2207 102.122 20.6765 102.64 21.0522C103.169 21.4209 103.765 21.6805 104.43 21.8311C105.131 21.9899 105.738 22.0364 106.25 21.9707C106.763 21.905 107.259 21.7401 107.74 21.4758L108.087 19.9466C107.804 20.1793 107.484 20.3698 107.125 20.5181C106.768 20.6573 106.385 20.7428 105.976 20.7745C105.576 20.8083 105.148 20.7736 104.693 20.6705C104.065 20.5282 103.518 20.2369 103.053 19.7966C102.589 19.3563 102.252 18.8159 102.043 18.1752C101.843 17.5366 101.827 16.8486 101.994 16.1113Z" fill="#7FBF9E"/>
<path d="M119.324 15.9269L120.419 16.3946L119.979 17.4245C120.735 17.7681 121.353 18.2099 121.833 18.7498C122.313 19.2898 122.614 19.8906 122.737 20.5523C122.864 21.2054 122.775 21.8881 122.471 22.6004C122.167 23.3128 121.733 23.853 121.169 24.2213C120.61 24.5809 119.969 24.774 119.247 24.8004C118.525 24.8269 117.779 24.6855 117.008 24.3762L116.567 25.4061L115.473 24.9385L115.913 23.9086C115.157 23.565 114.539 23.1232 114.059 22.5832C113.579 22.0432 113.276 21.4467 113.149 20.7936C113.026 20.132 113.116 19.445 113.421 18.7326C113.725 18.0203 114.157 17.4843 114.717 17.1246C115.28 16.7564 115.923 16.5591 116.645 16.5326C117.367 16.5061 118.113 16.6475 118.884 16.9568L119.324 15.9269ZM121.377 22.1328C121.707 21.3603 121.686 20.6612 121.314 20.0353C120.951 19.4131 120.35 18.9076 119.511 18.5187L117.475 23.282C118.336 23.6193 119.117 23.7043 119.817 23.537C120.527 23.3732 121.047 22.9052 121.377 22.1328ZM114.515 19.2003C114.185 19.9727 114.202 20.67 114.565 21.2922C114.937 21.9181 115.542 22.4254 116.381 22.8143L118.417 18.0511C117.556 17.7137 116.771 17.6269 116.062 17.7906C115.361 17.958 114.845 18.4279 114.515 19.2003Z" fill="#7FBF9E"/>
<path d="M129.708 32.513L130.293 29.3739L127.001 27.1938L124.339 28.9569L123.23 28.2225L132.706 22.156L130.817 33.2474L129.708 32.513ZM131.214 24.4087L128.017 26.5229L130.515 28.1773L131.214 24.4087Z" fill="#7FBF9E"/>
<path d="M140.946 28.5959L142.901 30.4002C143.367 30.8307 143.7 31.3028 143.899 31.8167C144.111 32.33 144.174 32.8459 144.089 33.3645C144.011 33.8894 143.766 34.3747 143.355 34.8205C142.95 35.2594 142.486 35.5422 141.962 35.6688C141.452 35.7949 140.93 35.7762 140.395 35.6126C139.873 35.4485 139.379 35.1513 138.912 34.7208L137.832 33.7237L135.173 36.6041L134.299 35.7969L140.946 28.5959ZM142.141 31.2231L141.061 30.2261L138.592 32.9007L139.672 33.8978C140.138 34.3283 140.62 34.5633 141.117 34.6029C141.621 34.6488 142.075 34.4523 142.481 34.0134C142.892 33.5676 143.052 33.0989 142.959 32.6072C142.88 32.115 142.607 31.6536 142.141 31.2231Z" fill="#7FBF9E"/>
<path d="M147.784 39.5806L142.087 43.0339L141.362 42.0898L150.251 36.7702L147.005 44.201L155.023 42.9904L147.583 50.1982L146.859 49.2541L151.67 44.6456L145.195 45.5901L147.784 39.5806Z" fill="#7FBF9E"/>
<path d="M153.19 59.9179L155.254 57.4814L153.477 53.9564L150.29 54.1678L149.691 52.9802L160.928 52.4092L153.789 61.1054L153.19 59.9179ZM158.516 53.6259L154.691 53.877L156.04 56.5521L158.516 53.6259Z" fill="#7FBF9E"/>
</svg>
