<svg width="178" height="177" viewBox="0 0 178 177" fill="none" xmlns="http://www.w3.org/2000/svg">
<circle cx="20" cy="108" r="2" fill="#F0A984"/>
<circle cx="155" cy="70" r="2" fill="#F0A984"/>
<path d="M155.062 89.693L154.603 94.8526L155.756 94.5335L156.14 90.2105L155.062 89.693ZM159.465 92.6566L155.383 93.9803L155.095 94.0671L151.621 95.1918L151.503 96.5166L162.156 92.896L152.31 87.4523L152.192 88.7771L155.493 90.5325L155.734 90.6664L159.465 92.6566Z" fill="#F0A984"/>
<path d="M157.561 109.31L149.21 106.945L148.885 108.09L158.315 110.76L160.432 103.284L151.003 100.614L150.679 101.759L159.03 104.124L157.561 109.31Z" fill="#F0A984"/>
<path d="M155.707 115.091L154.631 117.369L146.782 113.663L146.274 114.74L154.123 118.446L153.047 120.724L154.06 121.202L156.72 115.569L155.707 115.091Z" fill="#F0A984"/>
<path d="M143.017 121.195L140.258 125.295L141.187 125.921L143.946 121.821L143.017 121.195ZM150.219 126.041L147.459 130.141L148.389 130.767L151.148 126.667L150.219 126.041ZM146.966 123.853L144.364 127.721L145.293 128.346L147.896 124.478L146.966 123.853ZM151.515 126.121L143.385 120.649L142.72 121.637L150.851 127.108L151.515 126.121Z" fill="#F0A984"/>
<path d="M144.737 135.753L137.561 129.08L136.75 129.951L143.927 136.624L144.737 135.753ZM141.305 139.444L140.792 133.212L133.986 132.924L132.985 134.001L139.83 134.287L140.304 140.52L141.305 139.444Z" fill="#F0A984"/>
<path d="M131.629 139.416L127.508 142.554L128.52 143.191L131.973 140.561L131.629 139.416ZM132.406 144.666L128.678 142.543L128.419 142.388L125.248 140.58L124.19 141.385L134.043 146.816L131.43 135.873L130.371 136.678L131.299 140.3L131.363 140.569L132.406 144.666Z" fill="#F0A984"/>
<path d="M116.259 153.576L111.296 149.312L110.266 155.774L107.302 149.808L106.185 150.217L110.845 159.469L112.082 151.455L118.206 156.769L115.78 146.699L114.663 147.108L116.259 153.576Z" fill="#F0A984"/>
<path d="M102.052 156.465C102.157 157.195 102.094 157.869 101.862 158.486C101.62 159.106 101.247 159.621 100.74 160.033C100.233 160.446 99.629 160.702 98.9269 160.803C98.2155 160.905 97.5634 160.829 96.9706 160.574C96.3685 160.321 95.8693 159.931 95.473 159.403C95.0675 158.877 94.8124 158.249 94.7076 157.519C94.6029 156.789 94.6711 156.114 94.9123 155.495C95.1442 154.877 95.5135 154.362 96.0201 153.95C96.5174 153.539 97.1218 153.283 97.8332 153.181C98.5353 153.08 99.1874 153.156 99.7895 153.409C100.392 153.662 100.895 154.052 101.301 154.579C101.697 155.106 101.948 155.735 102.052 156.465ZM103.3 156.286C103.199 155.584 102.985 154.945 102.657 154.37C102.32 153.796 101.897 153.314 101.389 152.925C100.882 152.545 100.309 152.269 99.6719 152.097C99.0356 151.933 98.3663 151.902 97.6642 152.003C96.9528 152.105 96.3194 152.323 95.7639 152.657C95.2005 153.002 94.7289 153.428 94.349 153.935C93.9705 154.452 93.7049 155.032 93.5522 155.676C93.3903 156.322 93.3597 156.996 93.4604 157.698C93.5625 158.409 93.7813 159.047 94.1169 159.612C94.4446 160.187 94.862 160.665 95.3691 161.045C95.8775 161.434 96.4499 161.71 97.0862 161.873C97.7146 162.047 98.3845 162.083 99.0959 161.981C99.798 161.88 100.431 161.657 100.994 161.312C101.559 160.977 102.031 160.551 102.409 160.034C102.789 159.527 103.06 158.951 103.222 158.305C103.376 157.671 103.402 156.997 103.3 156.286Z" fill="#F0A984"/>
<path d="M87.8763 158.033C87.838 158.798 87.6367 159.456 87.2726 160.007C86.8987 160.568 86.4285 160.998 85.8622 161.296C85.2958 161.595 84.6911 161.728 84.0479 161.696C83.5818 161.672 83.1607 161.591 82.7846 161.45C82.3992 161.309 82.0536 161.119 81.7479 160.879C81.4417 160.649 81.1841 160.384 80.9748 160.084L80.8962 161.65C81.2881 162.034 81.722 162.327 82.1978 162.528C82.6736 162.73 83.2704 162.848 83.9882 162.884C84.6687 162.918 85.3135 162.825 85.9227 162.603C86.5222 162.39 87.0571 162.067 87.5274 161.632C87.9973 161.207 88.3736 160.693 88.6561 160.091C88.9387 159.488 89.0983 158.823 89.1348 158.096C89.1713 157.369 89.0791 156.692 88.8583 156.064C88.6375 155.436 88.3149 154.883 87.8904 154.403C87.4654 153.933 86.9656 153.558 86.391 153.277C85.8066 153.004 85.1741 152.851 84.4937 152.817C83.7759 152.781 83.1702 152.839 82.6766 152.992C82.183 153.145 81.722 153.393 81.2936 153.736L81.2149 155.302C81.4532 155.024 81.7364 154.781 82.0645 154.573C82.3922 154.375 82.7549 154.225 83.1525 154.123C83.5407 154.021 83.9679 153.982 84.434 154.005C85.0772 154.038 85.6656 154.231 86.1992 154.585C86.7327 154.939 87.1575 155.413 87.4734 156.008C87.7799 156.603 87.9143 157.278 87.8763 158.033Z" fill="#F0A984"/>
<path d="M70.7534 161.059L73.1367 151.553L71.9824 151.264L69.5991 160.769L70.7534 161.059ZM67.7489 155.254C67.8874 154.702 68.1401 154.269 68.507 153.957C68.8716 153.654 69.3177 153.468 69.8452 153.398C70.3704 153.337 70.9453 153.385 71.57 153.542L72.4255 153.756C73.0502 153.913 73.5797 154.142 74.0142 154.443C74.4463 154.754 74.7516 155.128 74.9302 155.568C75.1064 156.016 75.1254 156.516 74.9869 157.068C74.8462 157.63 74.5935 158.062 74.2288 158.365C73.8642 158.668 73.4192 158.85 72.894 158.911C72.3665 158.981 71.7905 158.937 71.1658 158.781L70.3103 158.566C69.6856 158.41 69.1572 158.176 68.7251 157.866C68.2906 157.564 67.9842 157.194 67.8056 156.755C67.6271 156.315 67.6082 155.815 67.7489 155.254ZM66.5946 154.964C66.4017 155.734 66.4273 156.438 66.6713 157.076C66.9063 157.713 67.3179 158.259 67.9062 158.714C68.4831 159.176 69.188 159.512 70.0209 159.72L70.8764 159.935C71.7093 160.144 72.4936 160.182 73.2294 160.049C73.9539 159.922 74.5743 159.635 75.0907 159.187C75.5981 158.737 75.9482 158.127 76.1412 157.358C76.3318 156.597 76.3108 155.895 76.0781 155.249C75.834 154.611 75.4235 154.06 74.8466 153.598C74.2584 153.143 73.5478 152.811 72.7149 152.602L71.8594 152.387C71.0265 152.179 70.2478 152.137 69.5234 152.264C68.7876 152.397 68.166 152.688 67.6587 153.138C67.14 153.595 66.7853 154.204 66.5946 154.964Z" fill="#F0A984"/>
<path d="M62.0934 151.372L57.4011 149.178L57.3071 150.371L61.2385 152.209L62.0934 151.372ZM57.8038 154.497L57.9543 150.209L57.9714 149.908L58.1011 146.26L56.8964 145.696L56.6592 156.945L65.1396 149.551L63.9348 148.988L61.1571 151.491L60.9488 151.672L57.8038 154.497Z" fill="#F0A984"/>
<path d="M47.6694 151.78L53.2885 143.751L52.3135 143.069L46.6944 151.098L47.6694 151.78ZM47.7725 150.485L46.1323 149.337C45.6123 148.973 45.28 148.553 45.1354 148.076C44.9779 147.601 45.073 147.115 45.4209 146.618C45.7634 146.129 46.1873 145.873 46.6927 145.851C47.1905 145.823 47.6994 145.991 48.2193 146.355L49.8596 147.503L50.5017 146.585L48.8615 145.437C48.3415 145.074 47.812 144.845 47.273 144.753C46.7209 144.663 46.2006 144.714 45.712 144.908C45.2104 145.104 44.7884 145.446 44.4459 145.936C44.0981 146.433 43.9207 146.947 43.9139 147.477C43.8994 148.003 44.0318 148.505 44.3109 148.985C44.577 149.468 44.9701 149.891 45.4901 150.255L47.1303 151.403L47.7725 150.485Z" fill="#F0A984"/>
<path d="M39.2903 141.65L41.1407 135.373L34.8256 137.087L39.0497 131.935L38.2174 131.084L31.6947 139.131L39.5096 136.969L37.1776 144.735L45.3649 138.389L44.5326 137.539L39.2903 141.65Z" fill="#F0A984"/>
<path d="M32.4041 128.674L29.5754 124.334L28.8665 125.298L31.2364 128.933L32.4041 128.674ZM27.1112 129.065L29.5012 125.502L29.6746 125.255L31.7096 122.224L30.9834 121.11L24.8476 130.541L35.9526 128.734L35.2263 127.619L31.5461 128.28L31.2738 128.324L27.1112 129.065Z" fill="#F0A984"/>
<path d="M18.9895 84.7704L19.5673 79.6227L18.4075 79.9152L17.9233 84.2281L18.9895 84.7704ZM14.6563 81.7059L18.7671 80.4768L19.0578 80.3967L22.5561 79.3525L22.7045 78.0308L11.9712 81.4045L21.6894 87.074L21.8377 85.7523L18.5777 83.9212L18.3397 83.7818L14.6563 81.7059Z" fill="#F0A984"/>
<path d="M16.9099 65.1911L25.2055 67.7456L25.5557 66.6083L16.1897 63.7242L13.903 71.1501L23.2691 74.0342L23.6193 72.8969L15.3237 70.3424L16.9099 65.1911Z" fill="#F0A984"/>
<path d="M18.836 59.5428L19.9624 57.2885L27.727 61.1684L28.2589 60.1039L20.4943 56.224L21.6207 53.9698L20.6188 53.4692L17.8341 59.0421L18.836 59.5428Z" fill="#F0A984"/>
<path d="M31.6433 53.7007L34.4917 49.6622L33.5765 49.0166L30.7281 53.0552L31.6433 53.7007ZM24.5501 48.6978L27.3985 44.6593L26.4833 44.0138L23.6348 48.0523L24.5501 48.6978ZM27.7535 50.9572L30.4405 47.1475L29.5253 46.5019L26.8382 50.3117L27.7535 50.9572ZM23.2556 48.59L31.2641 54.2384L31.95 53.266L23.9415 47.6176L23.2556 48.59Z" fill="#F0A984"/>
<path d="M30.2171 39.1027L37.2468 45.9309L38.0759 45.0773L31.0463 38.2491L30.2171 39.1027ZM33.7288 35.4875L34.1066 41.7292L40.9047 42.1651L41.929 41.1106L35.0913 40.6754L34.753 34.433L33.7288 35.4875Z" fill="#F0A984"/>
<path d="M43.4129 35.6863L47.6019 32.6392L46.6034 31.9805L43.0937 34.5335L43.4129 35.6863ZM42.7506 30.4204L46.4316 32.6249L46.6869 32.7854L49.8182 34.6625L50.8937 33.8802L41.1611 28.2354L43.5347 39.2332L44.6103 38.4509L43.7618 34.8093L43.7041 34.5396L42.7506 30.4204Z" fill="#F0A984"/>
<path d="M58.9493 21.8746L63.8152 26.2494L64.9911 19.8126L67.819 25.8445L68.9452 25.4602L64.4953 16.1061L63.0781 24.0898L57.0756 18.6383L59.273 28.7612L60.3992 28.3768L58.9493 21.8746Z" fill="#F0A984"/>
<path d="M73.3492 19.2297C73.2613 18.4976 73.3404 17.8254 73.5865 17.213C73.8419 16.5995 74.2275 16.0926 74.7435 15.6923C75.2594 15.2919 75.8696 15.0495 76.5738 14.9649C77.2874 14.8792 77.9375 14.9704 78.5243 15.2384C79.1204 15.5052 79.6104 15.907 79.9945 16.4437C80.3878 16.9793 80.6284 17.6132 80.7163 18.3453C80.8042 19.0773 80.7204 19.7501 80.465 20.3636C80.2189 20.976 79.8379 21.4823 79.322 21.8827C78.8153 22.2819 78.2051 22.5244 77.4916 22.61C76.7873 22.6946 76.1372 22.6034 75.5411 22.3365C74.945 22.0697 74.4504 21.6685 74.0571 21.1329C73.673 20.5961 73.437 19.9617 73.3492 19.2297ZM72.0981 19.3798C72.1827 20.0841 72.3821 20.7276 72.6965 21.3103C73.0201 21.8919 73.4316 22.383 73.9309 22.7837C74.4291 23.1751 74.995 23.4643 75.6285 23.6515C76.2608 23.8294 76.9292 23.8761 77.6334 23.7915C78.347 23.7059 78.9853 23.5023 79.5483 23.1809C80.1195 22.8492 80.6008 22.4342 80.9922 21.936C81.3825 21.4285 81.6614 20.8545 81.8289 20.214C82.0057 19.5723 82.0518 18.8994 81.9673 18.1951C81.8816 17.4815 81.6775 16.8386 81.355 16.2663C81.0407 15.6836 80.6344 15.1966 80.1362 14.8052C79.6369 14.4045 79.071 14.1152 78.4387 13.9373C77.8144 13.749 77.1455 13.6977 76.432 13.7834C75.7277 13.8679 75.09 14.0761 74.5188 14.4079C73.9465 14.7304 73.4652 15.1454 73.0749 15.6529C72.6835 16.1511 72.3994 16.721 72.2226 17.3626C72.054 17.9939 72.0125 18.6663 72.0981 19.3798Z" fill="#F0A984"/>
<path d="M87.3155 17.9314C87.3715 17.1681 87.5879 16.5149 87.9647 15.9717C88.3515 15.4198 88.8314 15.0012 89.4045 14.7157C89.9776 14.4303 90.5853 14.3111 91.2276 14.3583C91.693 14.3924 92.1121 14.484 92.4849 14.6331C92.8669 14.7828 93.208 14.981 93.5081 15.2276C93.8088 15.4649 94.0603 15.7361 94.2625 16.041L94.3774 14.4772C93.9944 14.0841 93.5675 13.7814 93.0964 13.569C92.6254 13.3566 92.0315 13.2241 91.3147 13.1715C90.6352 13.1216 89.9884 13.2004 89.3742 13.408C88.77 13.607 88.2278 13.9181 87.7475 14.3414C87.2679 14.7554 86.8799 15.2603 86.5834 15.8562C86.287 16.4521 86.1121 17.1131 86.0588 17.8391C86.0055 18.5652 86.082 19.2446 86.2882 19.8774C86.4944 20.5102 86.8042 21.071 87.2175 21.5599C87.6315 22.0396 88.1224 22.4265 88.6904 22.7209C89.2684 23.0067 89.8971 23.1745 90.5766 23.2244C91.2933 23.277 91.9002 23.2327 92.3972 23.0914C92.8943 22.95 93.3609 22.7129 93.7971 22.38L93.9119 20.8162C93.6673 21.0883 93.3786 21.3245 93.0457 21.5246C92.7135 21.7155 92.3475 21.8571 91.9477 21.9494C91.5571 22.0424 91.1292 22.0718 90.6638 22.0376C90.0215 21.9904 89.4377 21.7838 88.9124 21.4177C88.3872 21.0516 87.9735 20.5673 87.6715 19.9649C87.3788 19.3632 87.2601 18.6854 87.3155 17.9314Z" fill="#F0A984"/>
<path d="M104.767 15.2905L102.168 24.7395L103.316 25.0551L105.915 15.6061L104.767 15.2905ZM107.639 21.1623C107.488 21.7113 107.225 22.1376 106.851 22.4413C106.48 22.736 106.03 22.9123 105.501 22.97C104.974 23.0188 104.401 22.9578 103.78 22.787L102.929 22.5531C102.308 22.3823 101.784 22.1413 101.357 21.8301C100.932 21.51 100.635 21.1283 100.467 20.685C100.301 20.2328 100.293 19.7322 100.444 19.1833C100.597 18.6253 100.86 18.199 101.231 17.9043C101.603 17.6096 102.052 17.4379 102.578 17.3891C103.107 17.3313 103.682 17.3878 104.303 17.5586L105.154 17.7925C105.774 17.9633 106.297 18.2088 106.722 18.529C107.15 18.8402 107.448 19.2174 107.616 19.6606C107.785 20.1038 107.792 20.6044 107.639 21.1623ZM108.786 21.478C108.997 20.713 108.987 20.0086 108.758 19.3647C108.537 18.7233 108.138 18.1682 107.56 17.6995C106.994 17.2243 106.297 16.8729 105.469 16.6451L104.619 16.4112C103.791 16.1835 103.008 16.1278 102.269 16.244C101.542 16.3538 100.915 16.6266 100.388 17.0626C99.871 17.5011 99.507 18.1028 99.2966 18.8677C99.0887 19.6236 99.0937 20.3268 99.3117 20.9772C99.5411 21.6211 99.939 22.1807 100.505 22.6559C101.083 23.1246 101.786 23.4728 102.614 23.7005L103.464 23.9344C104.292 24.1621 105.07 24.2211 105.797 24.1114C106.535 23.9951 107.163 23.7178 107.681 23.2793C108.21 22.8343 108.578 22.2339 108.786 21.478Z" fill="#F0A984"/>
<path d="M113.333 25.1913L117.967 27.5068L118.092 26.3171L114.21 24.3772L113.333 25.1913ZM117.703 22.1787L117.441 26.4613L117.416 26.7618L117.191 30.4058L118.381 31.0003L118.911 19.7617L110.241 26.9327L111.431 27.5272L114.272 25.0972L114.485 24.9218L117.703 22.1787Z" fill="#F0A984"/>
<path d="M127.526 24.9563L121.732 32.8603L122.692 33.5638L128.485 25.6599L127.526 24.9563ZM127.394 26.2487L129.009 27.4322C129.521 27.8074 129.844 28.2351 129.978 28.7153C130.125 29.1934 130.019 29.6772 129.66 30.1665C129.307 30.6482 128.878 30.8947 128.372 30.9058C127.874 30.9225 127.369 30.7432 126.857 30.368L125.242 29.1844L124.58 30.0877L126.195 31.2713C126.707 31.6465 127.231 31.8862 127.768 31.9905C128.318 32.0927 128.839 32.0525 129.332 31.8698C129.838 31.685 130.267 31.3517 130.62 30.87C130.979 30.3807 131.167 29.8709 131.186 29.3405C131.212 28.8156 131.091 28.3101 130.822 27.824C130.567 27.3358 130.183 26.9041 129.671 26.5289L128.056 25.3453L127.394 26.2487Z" fill="#F0A984"/>
<path d="M135.791 35.3206L133.805 41.555L140.156 39.9799L135.82 45.0381L136.634 45.9066L143.33 38.0038L135.47 39.995L137.971 32.2818L129.647 38.4476L130.461 39.3161L135.791 35.3206Z" fill="#F0A984"/>
<path d="M142.558 48.6338L145.275 53.0445L146.008 52.0996L143.732 48.4041L142.558 48.6338ZM147.86 48.378L145.379 51.8787L145.199 52.1209L143.087 55.0987L143.784 56.2312L150.16 46.9612L139.013 48.4826L139.71 49.6151L143.406 49.049L143.679 49.0122L147.86 48.378Z" fill="#F0A984"/>
</svg>
