<svg width="181" height="181" viewBox="0 0 181 181" fill="none" xmlns="http://www.w3.org/2000/svg">
<circle cx="39.9209" cy="40.1186" r="2.39548" fill="#7FBF9E"/>
<circle cx="67.4689" cy="158.695" r="2.39548" fill="#7FBF9E"/>
<circle cx="163.288" cy="73.6554" r="2.39548" fill="#7FBF9E"/>
<path d="M164.164 93.6216L156.904 96.5742L163.223 101.21L155.245 101.1L155.069 102.514L167.476 102.616L159.616 96.9104L168.631 93.2967L156.575 90.3662L156.4 91.7807L164.164 93.6216Z" fill="#7FBF9E"/>
<path d="M159.408 110.324C160.232 110.641 160.9 111.1 161.411 111.704C161.918 112.317 162.239 113.009 162.374 113.78C162.51 114.55 162.425 115.332 162.121 116.125C161.812 116.929 161.352 117.566 160.74 118.038C160.124 118.52 159.424 118.814 158.641 118.92C157.854 119.037 157.048 118.938 156.223 118.621C155.399 118.305 154.733 117.84 154.226 117.226C153.715 116.623 153.392 115.936 153.257 115.166C153.118 114.406 153.202 113.624 153.511 112.82C153.815 112.027 154.275 111.39 154.891 110.908C155.507 110.426 156.209 110.126 156.996 110.009C157.779 109.903 158.583 110.008 159.408 110.324ZM159.949 108.915C159.155 108.611 158.362 108.462 157.569 108.469C156.772 108.486 156.022 108.647 155.318 108.952C154.625 109.261 154.002 109.698 153.45 110.264C152.908 110.835 152.484 111.516 152.18 112.31C151.871 113.113 151.73 113.903 151.755 114.679C151.787 115.47 151.957 116.212 152.266 116.905C152.585 117.602 153.037 118.219 153.622 118.754C154.203 119.3 154.889 119.726 155.683 120.03C156.486 120.339 157.281 120.482 158.068 120.461C158.861 120.454 159.604 120.296 160.297 119.987C161.001 119.682 161.624 119.245 162.166 118.675C162.714 118.119 163.143 117.439 163.451 116.636C163.756 115.843 163.892 115.051 163.86 114.26C163.839 113.474 163.669 112.732 163.349 112.034C163.041 111.341 162.596 110.722 162.015 110.175C161.441 109.644 160.752 109.224 159.949 108.915Z" fill="#7FBF9E"/>
<path d="M152.88 125.757C153.64 126.269 154.191 126.882 154.532 127.597C154.876 128.327 155.027 129.075 154.983 129.84C154.939 130.606 154.702 131.309 154.272 131.949C153.96 132.412 153.615 132.794 153.239 133.093C152.856 133.401 152.447 133.638 152.013 133.804C151.587 133.976 151.156 134.076 150.719 134.105L152.277 135.154C152.913 134.989 153.481 134.725 153.982 134.361C154.483 133.997 154.974 133.458 155.454 132.744C155.91 132.067 156.212 131.348 156.361 130.586C156.513 129.839 156.512 129.09 156.357 128.339C156.211 127.594 155.917 126.891 155.473 126.229C155.029 125.566 154.446 124.992 153.722 124.505C152.999 124.018 152.247 123.694 151.466 123.532C150.686 123.371 149.918 123.36 149.164 123.499C148.42 123.645 147.726 123.926 147.082 124.341C146.441 124.773 145.893 125.327 145.438 126.004C144.957 126.718 144.643 127.376 144.494 127.976C144.346 128.577 144.315 129.203 144.403 129.855L145.961 130.903C145.823 130.487 145.749 130.047 145.738 129.582C145.737 129.123 145.808 128.658 145.949 128.187C146.084 127.726 146.308 127.263 146.62 126.8C147.051 126.16 147.613 125.675 148.305 125.347C148.998 125.018 149.748 124.875 150.554 124.919C151.353 124.972 152.129 125.251 152.88 125.757Z" fill="#7FBF9E"/>
<path d="M145.217 145.184L137.162 136.646L136.126 137.624L144.181 146.162L145.217 145.184ZM137.421 144.471C136.953 143.975 136.68 143.441 136.602 142.869C136.531 142.306 136.631 141.735 136.901 141.158C137.178 140.589 137.597 140.039 138.158 139.51L138.927 138.785C139.488 138.256 140.061 137.869 140.645 137.625C141.237 137.389 141.812 137.323 142.371 137.426C142.937 137.537 143.454 137.841 143.922 138.337C144.398 138.841 144.671 139.375 144.741 139.939C144.812 140.502 144.708 141.068 144.431 141.638C144.161 142.215 143.746 142.768 143.185 143.298L142.416 144.023C141.855 144.552 141.279 144.935 140.687 145.17C140.102 145.414 139.531 145.485 138.972 145.382C138.414 145.278 137.897 144.975 137.421 144.471ZM136.384 145.449C137.037 146.14 137.763 146.568 138.565 146.734C139.359 146.907 140.175 146.844 141.014 146.544C141.853 146.26 142.646 145.765 143.394 145.059L144.163 144.334C144.911 143.629 145.455 142.862 145.795 142.033C146.135 141.221 146.246 140.409 146.127 139.599C146 138.797 145.611 138.05 144.959 137.359C144.314 136.676 143.591 136.244 142.79 136.062C141.988 135.897 141.168 135.956 140.329 136.24C139.49 136.54 138.697 137.042 137.949 137.748L137.18 138.473C136.432 139.179 135.888 139.938 135.548 140.751C135.208 141.579 135.101 142.394 135.228 143.197C135.355 144.015 135.74 144.766 136.384 145.449Z" fill="#7FBF9E"/>
<path d="M129.847 147.579L124.506 150.735L125.621 151.634L130.097 148.99L129.847 147.579ZM130.037 153.933L125.899 150.885L125.613 150.665L122.094 148.07L120.722 148.88L131.683 156.72L130.107 143.336L128.735 144.147L129.332 148.585L129.37 148.913L130.037 153.933Z" fill="#7FBF9E"/>
<path d="M120.306 162.119L116.473 151.025L115.126 151.49L118.959 162.584L120.306 162.119ZM119.123 161.108L116.856 161.891C116.138 162.14 115.497 162.166 114.932 161.971C114.361 161.79 113.957 161.356 113.72 160.669C113.486 159.993 113.536 159.402 113.87 158.896C114.193 158.394 114.714 158.019 115.433 157.771L117.699 156.988L117.261 155.72L114.995 156.503C114.276 156.751 113.683 157.104 113.214 157.562C112.738 158.033 112.422 158.574 112.266 159.184C112.103 159.808 112.139 160.458 112.372 161.134C112.61 161.821 112.983 162.354 113.493 162.734C113.992 163.118 114.573 163.343 115.234 163.41C115.889 163.491 116.576 163.408 117.294 163.159L119.561 162.376L119.123 161.108Z" fill="#7FBF9E"/>
<path d="M104.497 163.053L99.934 156.681L96.8979 163.906L95.1466 156.122L93.7302 156.281L96.5215 168.37L100.239 159.397L105.853 167.322L105.895 154.915L104.478 155.074L104.497 163.053Z" fill="#7FBF9E"/>
<path d="M86.8837 159.9L80.7265 159.136L81.0607 160.53L86.2195 161.169L86.8837 159.9ZM83.1536 165.047L81.7383 160.107L81.6465 159.757L80.4441 155.553L78.8632 155.357L82.7555 168.259L89.6799 156.698L88.099 156.502L85.8609 160.381L85.6907 160.664L83.1536 165.047Z" fill="#7FBF9E"/>
<path d="M54.1536 155.04L54.7727 147.227L47.7943 150.794L51.473 143.713L50.2876 142.922L44.6297 153.964L53.255 149.5L52.4395 159.178L60.4681 149.719L59.2827 148.927L54.1536 155.04Z" fill="#7FBF9E"/>
<path d="M41.4272 143.298C40.7761 143.894 40.0667 144.287 39.2989 144.475C38.5236 144.655 37.761 144.633 37.0111 144.411C36.2613 144.188 35.5994 143.763 35.0254 143.137C34.4438 142.502 34.0786 141.806 33.9297 141.048C33.7732 140.282 33.8221 139.524 34.0763 138.776C34.323 138.019 34.7718 137.342 35.4229 136.746C36.074 136.149 36.7872 135.761 37.5626 135.581C38.3303 135.393 39.0892 135.41 39.839 135.633C40.5813 135.847 41.2432 136.272 41.8248 136.906C42.3988 137.533 42.764 138.229 42.9205 138.995C43.0769 139.762 43.0318 140.523 42.7852 141.28C42.531 142.029 42.0783 142.701 41.4272 143.298ZM42.4468 144.41C43.0732 143.836 43.5602 143.193 43.9078 142.48C44.2478 141.759 44.4385 141.016 44.4798 140.25C44.5129 139.492 44.3994 138.739 44.1392 137.992C43.8708 137.253 43.4496 136.57 42.8756 135.943C42.2941 135.309 41.6503 134.83 40.9445 134.506C40.2228 134.182 39.4829 134.003 38.7247 133.97C37.9584 133.944 37.205 134.074 36.4647 134.358C35.7168 134.634 35.0297 135.059 34.4033 135.633C33.7687 136.214 33.2855 136.862 32.9537 137.575C32.6061 138.288 32.4158 139.024 32.3827 139.782C32.3414 140.547 32.4549 141.3 32.7233 142.04C32.9759 142.779 33.393 143.465 33.9745 144.1C34.5485 144.726 35.1964 145.202 35.9181 145.526C36.6315 145.858 37.3714 146.036 38.1378 146.062C38.8959 146.095 39.6489 145.974 40.3968 145.698C41.1289 145.421 41.8122 144.992 42.4468 144.41Z" fill="#7FBF9E"/>
<path d="M30.5288 130.536C29.7311 130.988 28.9364 131.207 28.1447 131.193C27.3378 131.174 26.6016 130.974 25.9362 130.593C25.2708 130.212 24.748 129.686 24.368 129.014C24.0926 128.528 23.9053 128.05 23.8059 127.579C23.7011 127.099 23.6718 126.627 23.718 126.164C23.7545 125.707 23.8574 125.276 24.0268 124.872L22.3925 125.797C22.2554 126.44 22.2377 127.067 22.3392 127.677C22.4408 128.288 22.7036 128.968 23.1277 129.717C23.5297 130.427 24.0383 131.019 24.6535 131.493C25.2534 131.962 25.9239 132.296 26.6649 132.493C27.3962 132.695 28.1572 132.746 28.948 132.645C29.7388 132.545 30.5135 132.279 31.2723 131.85C32.0311 131.42 32.6572 130.892 33.1505 130.266C33.6439 129.64 33.9967 128.958 34.209 128.222C34.4116 127.49 34.4707 126.744 34.3864 125.982C34.2868 125.217 34.036 124.479 33.634 123.768C33.2099 123.019 32.7622 122.444 32.291 122.043C31.8198 121.642 31.2733 121.335 30.6516 121.121L29.0173 122.047C29.451 122.109 29.8782 122.24 30.299 122.439C30.71 122.643 31.0944 122.913 31.4522 123.25C31.8044 123.577 32.1183 123.984 32.3936 124.471C32.7737 125.142 32.9559 125.861 32.9404 126.628C32.9248 127.394 32.7174 128.128 32.318 128.83C31.9132 129.521 31.3168 130.09 30.5288 130.536Z" fill="#7FBF9E"/>
<path d="M16.6184 115.079L27.8623 111.71L27.4531 110.344L16.2093 113.714L16.6184 115.079ZM20.753 108.431C21.4062 108.235 22.0058 108.231 22.5518 108.417C23.0872 108.607 23.5523 108.952 23.9472 109.452C24.3315 109.955 24.6343 110.576 24.8557 111.315L25.159 112.327C25.3804 113.066 25.4691 113.751 25.425 114.383C25.3702 115.018 25.1714 115.562 24.8286 116.015C24.4751 116.471 23.9718 116.797 23.3186 116.992C22.6546 117.191 22.055 117.196 21.5197 117.006C20.9844 116.817 20.5246 116.47 20.1404 115.967C19.7454 115.466 19.4372 114.847 19.2158 114.108L18.9126 113.096C18.6911 112.357 18.6078 111.67 18.6626 111.035C18.7067 110.404 18.9002 109.861 19.2429 109.409C19.5857 108.956 20.0891 108.63 20.753 108.431ZM20.3438 107.066C19.4336 107.338 18.7247 107.796 18.2169 108.438C17.706 109.07 17.3963 109.828 17.2879 110.712C17.1656 111.589 17.252 112.52 17.5472 113.505L17.8505 114.517C18.1457 115.502 18.5871 116.333 19.1748 117.009C19.7485 117.677 20.424 118.14 21.2013 118.397C21.9753 118.643 22.8175 118.63 23.7277 118.358C24.6272 118.088 25.3378 117.636 25.8594 117.001C26.3672 116.359 26.6822 115.599 26.8045 114.722C26.9129 113.838 26.8195 112.903 26.5243 111.918L26.2211 110.906C25.9258 109.921 25.4914 109.094 24.9177 108.426C24.33 107.75 23.6492 107.289 22.8751 107.042C22.0871 106.788 21.2434 106.796 20.3438 107.066Z" fill="#7FBF9E"/>
<path d="M21.3729 100.332L20.9663 94.1415L19.6607 94.7314L20.0014 99.9184L21.3729 100.332ZM15.6167 97.6353L20.2033 95.3175L20.5292 95.1617L24.4328 93.1912L24.3284 91.6017L12.3873 97.8474L25.0428 102.478L24.9384 100.888L20.7079 99.4183L20.3979 99.3042L15.6167 97.6353Z" fill="#7FBF9E"/>
<path d="M12.6796 84.8152L24.3048 86.4378L24.5018 85.0262L12.8766 83.4036L12.6796 84.8152ZM14.1171 84.2201L14.4486 81.8453C14.5537 81.0924 14.8213 80.509 15.2516 80.0949C15.6723 79.6683 16.2425 79.5052 16.9622 79.6057C17.6708 79.7046 18.1745 80.0175 18.4734 80.5446C18.7739 81.0606 18.8716 81.6951 18.7665 82.4479L18.435 84.8228L19.7636 85.0082L20.0951 82.6334C20.2002 81.8805 20.1553 81.1913 19.9604 80.5659C19.756 79.9279 19.4175 79.4009 18.9451 78.9851C18.4631 78.5566 17.8678 78.2929 17.1592 78.194C16.4396 78.0936 15.7948 78.1842 15.225 78.4659C14.6568 78.7365 14.1925 79.1514 13.8323 79.7106C13.4625 80.2572 13.2251 80.907 13.12 81.6598L12.7885 84.0347L14.1171 84.2201Z" fill="#7FBF9E"/>
<path d="M18.9347 70.4669L26.6788 69.2617L21.5941 63.2978L29.3336 65.2388L29.8293 63.9024L17.7783 60.9524L24.1162 68.3111L14.5124 69.7564L25.572 75.3792L26.0678 74.0428L18.9347 70.4669Z" fill="#7FBF9E"/>
<path d="M29.483 56.4918L32.9279 51.3318L31.5329 51.0053L28.6467 55.3286L29.483 56.4918ZM26.5568 50.8486L31.6068 51.8006L31.9602 51.8753L36.257 52.6873L37.1415 51.3624L23.8652 49.0516L31.0896 60.4273L31.9741 59.1025L29.5117 55.3617L29.3351 55.0825L26.5568 50.8486Z" fill="#7FBF9E"/>
<path d="M48.6566 29.1809L55.3542 33.2509L55.3105 25.4137L59.977 31.8861L61.2173 31.1839L53.9048 21.161L54.0076 30.8724L45.7333 25.7874L50.5651 37.2147L51.8054 36.5125L48.6566 29.1809Z" fill="#7FBF9E"/>
<path d="M64.8649 23.0436C64.6274 22.193 64.5986 21.3828 64.7783 20.613C64.9688 19.8402 65.333 19.1699 65.8708 18.6019C66.4086 18.034 67.0867 17.6358 67.905 17.4073C68.7341 17.1759 69.5204 17.1653 70.2638 17.3756C71.0181 17.5829 71.6714 17.9692 72.2239 18.5346C72.7871 19.097 73.1874 19.8034 73.4248 20.6541C73.6623 21.5047 73.6858 22.3164 73.4953 23.0891C73.3155 23.8589 72.9567 24.5278 72.4189 25.0957C71.8918 25.6607 71.2138 26.0589 70.3847 26.2903C69.5664 26.5187 68.7801 26.5293 68.0259 26.322C67.2716 26.1148 66.6129 25.7299 66.0497 25.1676C65.4973 24.6022 65.1023 23.8942 64.8649 23.0436ZM63.4113 23.4494C63.6397 24.2677 63.9931 24.9931 64.4714 25.6256C64.9605 26.255 65.5371 26.7614 66.2012 27.1448C66.8623 27.5173 67.5849 27.7567 68.3689 27.8628C69.1499 27.9581 69.9496 27.8916 70.7679 27.6631C71.597 27.4317 72.3155 27.0744 72.9235 26.5914C73.5392 26.0945 74.0333 25.5155 74.4059 24.8544C74.7754 24.1826 75.001 23.4522 75.0826 22.6634C75.1749 21.8717 75.1068 21.0666 74.8784 20.2483C74.647 19.4192 74.2882 18.6953 73.8021 18.0766C73.3238 17.4441 72.7541 16.9416 72.093 16.569C71.4289 16.1857 70.7063 15.9464 69.9253 15.851C69.152 15.7419 68.3509 15.8031 67.5218 16.0345C66.7035 16.2629 65.9865 16.6256 65.3707 17.1224C64.752 17.6085 64.2579 18.1875 63.8883 18.8594C63.5158 19.5205 63.2833 20.2469 63.191 21.0387C63.1064 21.8167 63.1798 22.6203 63.4113 23.4494Z" fill="#7FBF9E"/>
<path d="M81.2323 19.0627C81.1899 18.147 81.3539 17.3392 81.7243 16.6394C82.1054 15.9279 82.6163 15.3615 83.2571 14.9401C83.8978 14.5187 84.6034 14.2902 85.374 14.2545C85.9323 14.2286 86.4438 14.2776 86.9083 14.4016C87.3841 14.525 87.818 14.712 88.2101 14.9624C88.6017 15.2016 88.9395 15.4881 89.2235 15.8219L89.1366 13.9458C88.6251 13.5331 88.074 13.2341 87.4835 13.0488C86.893 12.8636 86.1678 12.7909 85.308 12.8307C84.4928 12.8685 83.7348 13.0547 83.0341 13.3893C82.3441 13.7122 81.7437 14.1597 81.2331 14.7317C80.7219 15.2926 80.3326 15.9485 80.0653 16.6995C79.7979 17.4505 79.6844 18.2615 79.7248 19.1325C79.7651 20.0035 79.9532 20.8006 80.2888 21.5236C80.6245 22.2467 81.073 22.8694 81.6344 23.3917C82.1952 23.9029 82.8344 24.2929 83.5519 24.5618C84.28 24.819 85.0517 24.9288 85.8669 24.891C86.7267 24.8511 87.4421 24.7117 88.0129 24.4726C88.5838 24.2335 89.1048 23.8848 89.5759 23.4265L89.489 21.5505C89.237 21.9091 88.9274 22.2312 88.5602 22.5168C88.1924 22.7912 87.7774 23.0119 87.3151 23.1788C86.864 23.3452 86.3592 23.4413 85.8009 23.4672C85.0304 23.5029 84.3066 23.3406 83.6297 22.9803C82.9527 22.62 82.3916 22.1032 81.9463 21.43C81.5122 20.7563 81.2742 19.9672 81.2323 19.0627Z" fill="#7FBF9E"/>
<path d="M101.759 13.6655L99.6485 25.212L101.051 25.4683L103.162 13.9218L101.759 13.6655ZM105.801 20.3706C105.678 21.0414 105.41 21.5776 104.995 21.9791C104.583 22.3696 104.064 22.6271 103.439 22.7515C102.816 22.8649 102.125 22.8522 101.367 22.7135L100.328 22.5235C99.5687 22.3848 98.9181 22.1522 98.3754 21.8257C97.8348 21.4882 97.4408 21.0639 97.1933 20.5527C96.9479 20.0305 96.8865 19.434 97.0091 18.7632C97.1337 18.0815 97.4022 17.5453 97.8146 17.1547C98.2269 16.7642 98.7446 16.5122 99.3676 16.3988C99.9926 16.2745 100.685 16.2816 101.443 16.4204L102.482 16.6103C103.241 16.7491 103.891 16.9872 104.432 17.3246C104.974 17.6511 105.369 18.07 105.617 18.5811C105.864 19.0923 105.926 19.6888 105.801 20.3706ZM107.203 20.6269C107.374 19.6922 107.289 18.8527 106.947 18.1085C106.617 17.3663 106.083 16.7458 105.344 16.2472C104.619 15.7395 103.751 15.3932 102.739 15.2083L101.7 15.0183C100.688 14.8333 99.7475 14.8489 98.8784 15.065C98.0224 15.2722 97.3031 15.6634 96.7206 16.2388C96.1491 16.8162 95.7779 17.5722 95.607 18.5069C95.4381 19.4306 95.5178 20.2691 95.846 21.0223C96.1873 21.7666 96.7206 22.3925 97.446 22.9001C98.1844 23.3988 99.0595 23.7406 100.071 23.9256L101.11 24.1155C102.122 24.3005 103.056 24.2894 103.912 24.0823C104.781 23.8661 105.501 23.4694 106.073 22.892C106.657 22.3057 107.034 21.5506 107.203 20.6269Z" fill="#7FBF9E"/>
<path d="M112.344 24.4359L118.049 26.8741L118.114 25.4428L113.334 23.4L112.344 24.4359ZM117.353 20.5226L117.345 25.6616L117.337 26.0227L117.328 30.3955L118.793 31.0215L118.625 17.5467L108.771 26.7382L110.235 27.3642L113.46 24.2564L113.702 24.0316L117.353 20.5226Z" fill="#7FBF9E"/>
<path d="M130.066 23.6452L123.371 33.2864L124.542 34.0994L131.237 24.4581L130.066 23.6452ZM129.949 25.1965L131.918 26.5642C132.543 26.9978 132.942 27.5 133.118 28.0708C133.308 28.6388 133.197 29.2212 132.782 29.8181C132.374 30.4057 131.867 30.714 131.262 30.7428C130.666 30.778 130.056 30.5789 129.432 30.1453L127.462 28.7776L126.697 29.8794L128.666 31.2471C129.291 31.6807 129.926 31.9517 130.572 32.0601C131.234 32.1657 131.857 32.1015 132.441 31.8676C133.041 31.6309 133.545 31.2187 133.953 30.631C134.367 30.0342 134.578 29.418 134.583 28.7824C134.598 28.1532 134.438 27.5516 134.101 26.9777C133.78 26.4011 133.308 25.8959 132.683 25.4624L130.714 24.0947L129.949 25.1965Z" fill="#7FBF9E"/>
<path d="M140.102 35.7406L137.695 43.1991L145.309 41.3402L140.094 47.3797L141.065 48.4235L149.12 38.9872L139.697 41.3379L142.726 32.1104L132.73 39.4592L133.7 40.503L140.102 35.7406Z" fill="#7FBF9E"/>
<path d="M147.992 51.6639L151.048 57.0629L151.968 55.9642L149.407 51.4407L147.992 51.6639ZM154.348 51.5914L151.224 55.6722L150.999 55.9541L148.339 59.4253L149.124 60.8115L157.164 49.997L143.754 51.3267L144.539 52.7129L148.988 52.1982L149.317 52.1662L154.348 51.5914Z" fill="#7FBF9E"/>
</svg>
