<svg width="172" height="172" viewBox="0 0 172 172" fill="none" xmlns="http://www.w3.org/2000/svg">
<circle cx="153" cy="66" r="2" fill="white"/>
<path d="M155.973 87.7956C156.736 87.8545 157.389 88.0735 157.93 88.4523C158.481 88.8413 158.897 89.3228 159.181 89.897C159.464 90.4712 159.581 91.0794 159.531 91.7214C159.495 92.1867 159.402 92.6055 159.251 92.9776C159.1 93.3591 158.901 93.6994 158.653 93.9985C158.415 94.2984 158.142 94.5488 157.837 94.7499L159.4 94.8707C159.795 94.4893 160.099 94.0635 160.313 93.5933C160.527 93.1231 160.662 92.5297 160.718 91.8132C160.77 91.1339 160.694 90.4867 160.489 89.8717C160.292 89.2668 159.983 88.7233 159.561 88.2414C159.149 87.7602 158.646 87.3703 158.051 87.0715C157.456 86.7728 156.796 86.5954 156.07 86.5393C155.344 86.4832 154.665 86.557 154.031 86.7608C153.397 86.9646 152.835 87.2722 152.345 87.6836C151.864 88.0957 151.475 88.5852 151.178 89.1521C150.89 89.7289 150.72 90.357 150.668 91.0363C150.612 91.7528 150.654 92.3599 150.794 92.8574C150.933 93.355 151.168 93.8225 151.5 94.26L153.063 94.3809C152.792 94.1352 152.557 93.8456 152.358 93.5119C152.168 93.179 152.028 92.8124 151.937 92.4122C151.846 92.0214 151.818 91.5933 151.854 91.128C151.904 90.4859 152.113 89.903 152.481 89.3791C152.849 88.8552 153.335 88.4435 153.938 88.1438C154.541 87.8534 155.219 87.7373 155.973 87.7956Z" fill="white"/>
<path d="M154.958 98.6039C155.672 98.7886 156.27 99.1071 156.75 99.5593C157.229 100.021 157.56 100.564 157.745 101.191C157.93 101.817 157.934 102.473 157.756 103.16C157.576 103.856 157.254 104.428 156.791 104.877C156.326 105.335 155.773 105.645 155.133 105.807C154.491 105.979 153.813 105.972 153.099 105.787C152.386 105.602 151.789 105.279 151.311 104.818C150.83 104.366 150.498 103.827 150.313 103.2C150.125 102.583 150.122 101.927 150.302 101.231C150.479 100.544 150.801 99.9719 151.267 99.5139C151.732 99.056 152.286 98.7414 152.928 98.5701C153.568 98.4079 154.245 98.4192 154.958 98.6039ZM155.274 97.3841C154.587 97.2064 153.916 97.1578 153.258 97.2384C152.599 97.328 151.992 97.5324 151.437 97.8515C150.891 98.173 150.415 98.5946 150.01 99.1164C149.614 99.6406 149.327 100.246 149.15 100.933C148.97 101.629 148.927 102.297 149.021 102.939C149.122 103.591 149.333 104.191 149.655 104.737C149.985 105.285 150.418 105.754 150.954 106.143C151.487 106.541 152.097 106.829 152.784 107.007C153.479 107.187 154.153 107.231 154.803 107.139C155.46 107.059 156.062 106.858 156.608 106.536C157.163 106.217 157.638 105.795 158.034 105.271C158.437 104.758 158.728 104.154 158.908 103.458C159.086 102.772 159.124 102.102 159.023 101.449C158.931 100.799 158.72 100.199 158.39 99.651C158.068 99.105 157.641 98.6329 157.108 98.2346C156.581 97.8476 155.97 97.5642 155.274 97.3841Z" fill="white"/>
<path d="M151.172 112.451L150.486 113.876C150.231 114.406 150.086 114.901 150.052 115.361C150.013 115.829 150.088 116.243 150.277 116.603C150.466 116.964 150.767 117.243 151.179 117.441C151.683 117.684 152.148 117.773 152.573 117.708C153.006 117.648 153.398 117.458 153.748 117.14C154.094 116.83 154.394 116.41 154.649 115.88L155.742 113.609L146.912 109.359L145.758 111.756C145.483 112.328 145.33 112.881 145.301 113.416C145.276 113.963 145.39 114.458 145.643 114.901C145.9 115.357 146.319 115.724 146.899 116.003C147.303 116.197 147.688 116.29 148.055 116.28C148.423 116.27 148.766 116.171 149.084 115.983C149.407 115.807 149.702 115.56 149.968 115.243C150.235 114.926 150.471 114.553 150.678 114.124L151.425 112.572L150.832 112.287L150.085 113.839C149.947 114.125 149.784 114.367 149.595 114.566C149.414 114.769 149.212 114.921 148.988 115.02C148.76 115.128 148.519 115.177 148.264 115.169C148.009 115.16 147.747 115.091 147.478 114.961C147.117 114.787 146.85 114.555 146.679 114.266C146.503 113.985 146.419 113.664 146.426 113.305C146.429 112.955 146.522 112.59 146.704 112.212L147.342 110.887L154.28 114.226L153.703 115.425C153.489 115.87 153.193 116.184 152.816 116.365C152.447 116.55 152.052 116.541 151.632 116.339C151.354 116.205 151.151 116.025 151.022 115.797C150.894 115.569 150.836 115.313 150.848 115.029C150.86 114.745 150.937 114.456 151.079 114.162L151.765 112.736L151.172 112.451Z" fill="white"/>
<path d="M149.384 125.921L141.375 120.272L140.69 121.245L148.698 126.893L149.384 125.921ZM148.089 125.813L146.935 127.449C146.57 127.968 146.148 128.298 145.67 128.441C145.195 128.597 144.709 128.5 144.214 128.15C143.725 127.806 143.471 127.381 143.451 126.876C143.425 126.378 143.595 125.87 143.961 125.351L145.115 123.715L144.2 123.069L143.046 124.705C142.68 125.224 142.45 125.753 142.355 126.292C142.263 126.843 142.313 127.364 142.505 127.853C142.699 128.355 143.04 128.779 143.528 129.123C144.023 129.473 144.537 129.652 145.067 129.661C145.593 129.677 146.096 129.546 146.577 129.269C147.06 129.005 147.485 128.613 147.851 128.095L149.005 126.459L148.089 125.813Z" fill="white"/>
<path d="M135.509 128.279L132.092 131.848L132.901 132.623L136.318 129.053L135.509 128.279ZM141.779 134.281L138.362 137.851L139.171 138.625L142.589 135.056L141.779 134.281ZM138.948 131.57L135.724 134.938L136.533 135.712L139.757 132.345L138.948 131.57ZM143.044 134.58L135.964 127.803L135.142 128.663L142.221 135.44L143.044 134.58Z" fill="white"/>
<path d="M131.737 141.264L125.776 138.566L126.602 145.057L122.082 140.163L121.125 140.87L128.196 148.44L127.132 140.401L134.502 143.782L129.345 134.798L128.388 135.505L131.737 141.264Z" fill="white"/>
<path d="M118.409 142.47L113.997 144.695L114.501 145.696L118.914 143.47L118.409 142.47ZM122.318 150.22L117.905 152.446L118.41 153.446L122.822 151.22L122.318 150.22ZM120.553 146.72L116.39 148.819L116.895 149.82L121.057 147.72L120.553 146.72ZM123.41 150.924L118.997 142.174L117.934 142.71L122.347 151.46L123.41 150.924Z" fill="white"/>
<path d="M111.606 150.376L105.214 152.45L105.56 153.516L111.952 151.441L111.606 150.376ZM107.529 156.998L104.504 147.676L103.372 148.044L106.397 157.365L107.529 156.998ZM113.788 154.967L110.763 145.645L109.631 146.013L112.656 155.334L113.788 154.967Z" fill="white"/>
<path d="M99.3266 154.284L92.6823 155.289L92.8499 156.396L99.4942 155.391L99.3266 154.284ZM94.2254 160.153L92.7591 150.463L91.5825 150.641L93.0488 160.331L94.2254 160.153ZM100.731 159.168L99.265 149.479L98.0884 149.657L99.5547 159.346L100.731 159.168Z" fill="white"/>
<path d="M89.134 156.122C89.1007 156.839 88.9488 157.496 88.6783 158.091C88.3981 158.694 88.0239 159.21 87.5556 159.636C87.0869 160.072 86.5437 160.402 85.926 160.626C85.3079 160.859 84.6446 160.959 83.936 160.926C83.2181 160.893 82.5669 160.732 81.9823 160.443C81.3879 160.163 80.8776 159.785 80.4512 159.307C80.0244 158.839 79.7041 158.291 79.4902 157.665C79.2666 157.047 79.1714 156.379 79.2046 155.661C79.2375 154.953 79.394 154.297 79.6743 153.693C79.9452 153.089 80.315 152.569 80.7837 152.133C81.2519 151.706 81.7951 151.376 82.4132 151.143C83.0216 150.919 83.6847 150.824 84.4026 150.857C85.1112 150.89 85.7627 151.046 86.357 151.326C86.9509 151.615 87.4613 151.994 87.8881 152.462C88.3144 152.94 88.6392 153.492 88.8624 154.119C89.0763 154.745 89.1668 155.413 89.134 156.122ZM87.8753 156.063C87.9095 155.327 87.7814 154.662 87.4912 154.069C87.1917 153.476 86.77 152.999 86.2262 152.637C85.6823 152.276 85.0561 152.078 84.3475 152.046C83.6296 152.012 82.9879 152.151 82.4222 152.461C81.8473 152.771 81.3879 153.207 81.0441 153.771C80.691 154.334 80.4974 154.983 80.4633 155.72C80.4292 156.456 80.5619 157.121 80.8614 157.714C81.1516 158.307 81.5686 158.784 82.1125 159.146C82.647 159.507 83.2732 159.704 83.9911 159.737C84.6997 159.77 85.3414 159.632 85.9164 159.322C86.4913 159.012 86.9554 158.576 87.3085 158.013C87.6522 157.45 87.8412 156.8 87.8753 156.063Z" fill="white"/>
<path d="M73.5414 159.889L68.0799 158.651L68.3274 157.559L72.6284 158.533L73.2471 155.802L69.2192 154.89L69.4667 153.798L73.4946 154.71L74.299 151.16L69.998 150.186L70.2455 149.093L75.707 150.331L73.5414 159.889Z" fill="white"/>
<path d="M49.8116 150.207L54.5503 152.776L58.6866 145.145L59.7328 145.712L55.0628 154.328L48.2317 150.625L52.9018 142.009L53.948 142.576L49.8116 150.207Z" fill="white"/>
<path d="M43.0706 147.417L40.984 145.767C40.4861 145.373 40.1185 144.928 39.8809 144.431C39.6303 143.935 39.5275 143.426 39.5726 142.902C39.6104 142.373 39.8175 141.87 40.1937 141.394C40.5642 140.926 41.0055 140.608 41.5176 140.442C42.0167 140.278 42.5391 140.256 43.085 140.379C43.6177 140.502 44.133 140.761 44.6309 141.155L45.784 142.066L48.2152 138.991L49.1487 139.729L43.0706 147.417ZM41.6786 144.889L42.8318 145.8L45.0893 142.945L43.9362 142.033C43.4384 141.64 42.9402 141.442 42.4417 141.44C41.9358 141.433 41.4977 141.664 41.1272 142.132C40.7509 142.608 40.6276 143.088 40.7572 143.571C40.8736 144.056 41.1808 144.495 41.6786 144.889Z" fill="white"/>
<path d="M37.9498 137.152C37.413 137.63 36.8373 137.98 36.2228 138.202C35.5951 138.423 34.965 138.515 34.3325 138.478C33.693 138.448 33.0775 138.29 32.4859 138.004C31.8874 137.725 31.3523 137.32 30.8808 136.79C30.403 136.253 30.0631 135.675 29.8612 135.055C29.6462 134.434 29.5605 133.804 29.6043 133.166C29.6411 132.533 29.8089 131.922 30.1078 131.331C30.3934 130.739 30.8047 130.204 31.3415 129.727C31.8714 129.255 32.4502 128.909 33.0779 128.687C33.6993 128.459 34.3298 128.36 34.9693 128.391C35.6018 128.428 36.2173 128.586 36.8158 128.865C37.4012 129.144 37.9328 129.552 38.4106 130.089C38.8821 130.618 39.2255 131.194 39.4406 131.814C39.6487 132.441 39.7343 133.071 39.6975 133.704C39.6537 134.342 39.4855 134.961 39.1929 135.558C38.894 136.149 38.4797 136.68 37.9498 137.152ZM37.1121 136.211C37.6629 135.72 38.049 135.165 38.2703 134.543C38.4854 133.914 38.5323 133.279 38.411 132.637C38.2897 131.995 37.9932 131.41 37.5216 130.88C37.0438 130.343 36.4964 129.98 35.8793 129.793C35.256 129.598 34.6228 129.574 33.9795 129.722C33.3301 129.862 32.73 130.178 32.1792 130.668C31.6284 131.158 31.2455 131.718 31.0304 132.346C30.8091 132.968 30.7591 133.6 30.8804 134.241C30.9955 134.876 31.2919 135.462 31.7697 135.999C32.2413 136.529 32.7887 136.891 33.412 137.086C34.0353 137.281 34.6717 137.308 35.3211 137.167C35.9643 137.02 36.5614 136.701 37.1121 136.211Z" fill="white"/>
<path d="M23.6045 127.526L29.9117 123.863L19.454 121.356L28.3519 116.188L28.9496 117.217L22.6424 120.88L33.1001 123.387L24.2022 128.555L23.6045 127.526Z" fill="white"/>
<path d="M25.362 109.125C25.6174 109.847 25.7194 110.499 25.6682 111.081C25.6138 111.655 25.4382 112.138 25.1414 112.53C24.8358 112.925 24.4454 113.207 23.9703 113.375L23.5686 112.24C23.9841 112.044 24.2748 111.718 24.4406 111.263C24.6063 110.808 24.5616 110.22 24.3062 109.499C24.0477 108.769 23.7082 108.285 23.2876 108.048C22.867 107.81 22.4059 107.78 21.9044 107.958C21.3325 108.16 20.9899 108.549 20.8765 109.124C20.7543 109.702 20.8224 110.356 21.0809 111.086L20.0911 111.436C19.8326 110.706 19.4765 110.203 19.0227 109.928C18.569 109.653 18.1265 109.592 17.6954 109.745C17.2555 109.9 16.9521 110.176 16.7852 110.572C16.6183 110.968 16.6408 111.465 16.8525 112.063C17.0518 112.626 17.3533 113.044 17.7568 113.317C18.1484 113.584 18.5466 113.646 18.9514 113.503L19.3297 114.572C18.8458 114.743 18.3799 114.77 17.9319 114.651C17.4809 114.524 17.0748 114.271 16.7136 113.894C16.3405 113.511 16.0496 113.025 15.841 112.436C15.623 111.82 15.5505 111.251 15.6236 110.731C15.6966 110.21 15.8759 109.765 16.1613 109.397C16.4468 109.028 16.8095 108.766 17.2494 108.611C17.7069 108.449 18.1765 108.461 18.6581 108.647C19.1367 108.824 19.5737 109.149 19.9691 109.623C19.9157 108.969 20.0172 108.388 20.2735 107.882C20.5268 107.366 20.9789 106.994 21.63 106.763C22.4131 106.486 23.1405 106.555 23.8124 106.971C24.4842 107.386 25.0008 108.105 25.362 109.125Z" fill="white"/>
<path d="M18.8689 96.1832C19.5033 96.0723 20.0576 96.1269 20.532 96.3471C20.9956 96.5597 21.3765 96.8958 21.6748 97.3553C21.9623 97.8072 22.1608 98.3457 22.2701 98.9709L22.7285 101.591L13.075 103.28L12.6408 100.797C12.4896 99.9332 12.5659 99.2045 12.8695 98.6113C13.1732 98.0181 13.7342 97.6499 14.5524 97.5068C15.0489 97.4199 15.4921 97.4893 15.8821 97.7148C16.263 97.9419 16.5703 98.2908 16.8043 98.7615C16.822 98.1047 16.9986 97.5432 17.334 97.0771C17.6585 96.6034 18.1702 96.3055 18.8689 96.1832ZM13.6751 100.616L13.9043 101.927L16.7727 101.425L16.5436 100.115C16.4583 99.6274 16.2634 99.2446 15.9589 98.9663C15.6544 98.6879 15.2769 98.5881 14.8264 98.6669C14.3667 98.7473 14.0409 98.9702 13.849 99.3354C13.6478 99.7022 13.5899 100.129 13.6751 100.616ZM21.4891 100.6L21.2358 99.1518C21.1265 98.5266 20.8771 98.0491 20.4878 97.7193C20.0877 97.3818 19.5934 97.2646 19.005 97.3675C18.4074 97.472 17.9869 97.7493 17.7435 98.1993C17.4984 98.6401 17.4306 99.1731 17.5399 99.7983L17.7932 101.246L21.4891 100.6Z" fill="white"/>
<path d="M16.0524 91.8892C15.3337 91.8837 14.672 91.7573 14.0672 91.5099C13.4532 91.2532 12.9239 90.8991 12.4794 90.4476C12.0255 89.9961 11.6749 89.466 11.4276 88.8575C11.171 88.2488 11.0454 87.5898 11.0509 86.8805C11.0564 86.1618 11.1922 85.5049 11.4581 84.9096C11.7148 84.3049 12.0735 83.7803 12.5343 83.3358C12.9857 82.8913 13.5204 82.5501 14.1382 82.3122C14.7468 82.0649 15.4105 81.944 16.1291 81.9495C16.8384 81.955 17.5001 82.0861 18.1141 82.3429C18.7282 82.5903 19.2622 82.9398 19.7161 83.3913C20.1606 83.8427 20.5112 84.3728 20.7678 84.9814C21.0152 85.5807 21.1361 86.2397 21.1306 86.9583C21.1251 87.6676 20.994 88.3246 20.7374 88.9293C20.4713 89.534 20.1126 90.0585 19.6612 90.5031C19.2004 90.9475 18.661 91.2934 18.0431 91.5406C17.4253 91.7785 16.7617 91.8947 16.0524 91.8892ZM16.0621 90.6293C16.7994 90.635 17.4586 90.4814 18.0397 90.1685C18.6209 89.8463 19.0816 89.4066 19.4219 88.8492C19.7622 88.2918 19.9351 87.6584 19.9406 86.9491C19.9462 86.2305 19.7831 85.5945 19.4513 85.0413C19.1197 84.4787 18.6657 84.0365 18.0895 83.7147C17.5134 83.3836 16.8567 83.2152 16.1194 83.2095C15.3821 83.2038 14.7228 83.3621 14.1416 83.6843C13.5605 83.9971 13.0998 84.4322 12.7595 84.9896C12.4193 85.5377 12.2464 86.171 12.2408 86.8897C12.2354 87.599 12.3985 88.2349 12.7301 88.7975C13.0618 89.3601 13.5157 89.8069 14.0918 90.1381C14.668 90.4598 15.3248 90.6236 16.0621 90.6293Z" fill="white"/>
<path d="M22.9004 70.137L21.2847 77.8087L22.7916 78.1261L22.5753 79.1536L19.9723 78.6054L20.232 77.3724L12.0234 71.8523L21.7611 70.1117L22.0208 68.8787L24.6237 69.4269L24.4073 70.4544L22.9004 70.137ZM14.6674 72.4091L20.4888 76.1532L21.5044 71.331L14.6674 72.4091Z" fill="white"/>
<path d="M19.7507 63.1473C20.447 63.4418 21.127 63.547 21.7909 63.463C22.4583 63.3703 23.0498 63.134 23.5651 62.7541C24.0805 62.3742 24.4636 61.8877 24.7145 61.2946C24.9836 60.6585 25.0971 60.0427 25.055 59.4473C25.013 58.8519 24.8615 58.3115 24.6006 57.8262L26.0448 58.437C26.22 58.9571 26.2948 59.4751 26.269 59.9912C26.2433 60.5073 26.0905 61.0962 25.8105 61.7581C25.5451 62.3857 25.1843 62.9272 24.7281 63.3828C24.2669 63.8262 23.7428 64.167 23.1557 64.405C22.56 64.6395 21.9293 64.7528 21.2638 64.7449C20.5983 64.737 19.9303 64.5913 19.2598 64.3077C18.5893 64.0241 18.0195 63.6463 17.5503 63.1742C17.0812 62.7022 16.7275 62.1726 16.4894 61.5855C16.2428 60.9947 16.1222 60.3813 16.1278 59.7452C16.1284 59.0969 16.2614 58.459 16.5268 57.8315C16.8067 57.1696 17.1229 56.6497 17.4753 56.2717C17.8277 55.8938 18.2515 55.5867 18.7467 55.3502L20.1908 55.961C19.6523 56.1082 19.1591 56.3759 18.7111 56.7641C18.2546 57.1486 17.8918 57.6589 17.6228 58.295C17.3719 58.8882 17.2896 59.5019 17.376 60.1363C17.4623 60.7708 17.7047 61.3597 18.1032 61.9032C18.4966 62.4344 19.0458 62.8491 19.7507 63.1473Z" fill="white"/>
<path d="M21.1836 50.5999L20.2386 49.9987L23.583 44.7425L24.5279 45.3437L23.1752 47.4698L30.4985 52.1294L29.8596 53.1334L22.5363 48.4738L21.1836 50.5999Z" fill="white"/>
<path d="M35.5785 40.5442C36.0658 40.9653 36.3742 41.4292 36.5037 41.9359C36.6323 42.4294 36.613 42.937 36.4459 43.4587C36.2778 43.9672 35.9862 44.4616 35.5712 44.9418L33.8319 46.9543L26.4173 40.5463L28.0651 38.6396C28.6387 37.9759 29.2513 37.5739 29.9028 37.4338C30.5544 37.2938 31.1943 37.4953 31.8228 38.0385C32.2042 38.368 32.4309 38.7551 32.5029 39.1999C32.568 39.6385 32.4922 40.0973 32.2756 40.5762C32.7956 40.1744 33.3421 39.956 33.9153 39.9208C34.4874 39.8726 35.0419 40.0803 35.5785 40.5442ZM28.8595 39.3262L27.9898 40.3325L30.193 42.2366L31.0627 41.2303C31.3861 40.8561 31.5593 40.463 31.5823 40.051C31.6052 39.6391 31.4437 39.2836 31.0977 38.9846C30.7446 38.6794 30.3659 38.568 29.9617 38.6504C29.5503 38.7267 29.1829 38.952 28.8595 39.3262ZM33.8156 45.3674L34.7768 44.2552C35.1918 43.775 35.4039 43.2798 35.4131 42.7696C35.4213 42.2463 35.1994 41.7893 34.7475 41.3987C34.2885 41.002 33.8077 40.8518 33.3052 40.9479C32.8088 41.037 32.3531 41.3216 31.9381 41.8018L30.9769 42.914L33.8156 45.3674Z" fill="white"/>
<path d="M36.9531 35.7634C36.5012 35.2046 36.1789 34.613 35.9862 33.9887C35.7948 33.3512 35.7325 32.7175 35.7992 32.0874C35.86 31.4501 36.047 30.8428 36.3603 30.2654C36.6678 29.6807 37.0973 29.1654 37.6489 28.7194C38.2077 28.2675 38.8015 27.9554 39.4303 27.783C40.0605 27.5976 40.6936 27.5418 41.3295 27.6157C41.9595 27.6824 42.5626 27.879 43.1386 28.2054C43.716 28.5187 44.2306 28.9548 44.6825 29.5136C45.1285 30.0652 45.4471 30.6597 45.6385 31.2972C45.8371 31.9287 45.906 32.5632 45.8452 33.2005C45.7785 33.8305 45.5914 34.4379 45.284 35.0225C44.978 35.5941 44.5455 36.1058 43.9867 36.5576C43.4351 37.0036 42.8442 37.3194 42.214 37.5049C41.578 37.6831 40.9449 37.7389 40.3149 37.6722C39.6789 37.5982 39.0694 37.401 38.4861 37.0804C37.9101 36.754 37.3991 36.315 36.9531 35.7634ZM37.9329 34.9712C38.3965 35.5445 38.9336 35.9564 39.5442 36.2069C40.162 36.4515 40.7943 36.5283 41.441 36.4375C42.0877 36.3467 42.6869 36.0783 43.2385 35.6323C43.7973 35.1804 44.1852 34.6507 44.4021 34.0432C44.6263 33.4299 44.6799 32.7984 44.5628 32.1489C44.453 31.4935 44.1663 30.8792 43.7027 30.3058C43.2391 29.7325 42.6984 29.3235 42.0805 29.0789C41.4699 28.8285 40.8412 28.7487 40.1945 28.8395C39.5551 28.9245 38.9559 29.1929 38.3971 29.6447C37.8455 30.0907 37.4576 30.6204 37.2334 31.2338C37.0092 31.8472 36.952 32.4815 37.0618 33.1369C37.1789 33.7864 37.4693 34.3978 37.9329 34.9712Z" fill="white"/>
<path d="M55.3767 21.0379L57.094 27.4747L55.9846 27.9052L53.3709 17.8818L59.5935 23.0806L60.6797 15.0452L65.5122 24.2074L64.4028 24.638L61.3282 18.7281L60.4191 25.208L55.3767 21.0379Z" fill="white"/>
<path d="M68.2644 18.0583C68.1487 17.349 68.1618 16.6754 68.3036 16.0376C68.4532 15.3891 68.713 14.8076 69.083 14.2934C69.4515 13.7699 69.9149 13.3349 70.4731 12.9886C71.0298 12.633 71.6582 12.3981 72.3582 12.2839C73.0675 12.1682 73.738 12.1913 74.3696 12.353C75.0089 12.5041 75.5865 12.7692 76.1022 13.1485C76.6165 13.5185 77.043 13.988 77.3817 14.5569C77.728 15.1151 77.9591 15.7488 78.0748 16.4581C78.1889 17.1582 78.1713 17.8325 78.0217 18.481C77.8814 19.1281 77.6269 19.7133 77.2584 20.2368C76.8884 20.7511 76.425 21.186 75.8683 21.5416C75.3194 21.8865 74.6902 22.1167 73.9809 22.2324C73.2808 22.3466 72.6111 22.3282 71.9718 22.1771C71.331 22.0169 70.7534 21.7517 70.2392 21.3817C69.7234 21.0024 69.2916 20.5291 68.9437 19.9617C68.605 19.3928 68.3786 18.7583 68.2644 18.0583ZM69.508 17.8554C69.6267 18.5831 69.8892 19.207 70.2955 19.727C70.7111 20.2456 71.2223 20.6256 71.8291 20.867C72.4358 21.1085 73.0893 21.1722 73.7894 21.058C74.4987 20.9423 75.098 20.6743 75.5874 20.254C76.086 19.8323 76.4453 19.3103 76.6654 18.6881C76.8946 18.0644 76.9499 17.3887 76.8312 16.6609C76.7125 15.9332 76.4454 15.3101 76.0298 14.7916C75.6235 14.2715 75.1169 13.8908 74.5101 13.6493C73.9125 13.4063 73.2591 13.3427 72.5498 13.4584C71.8497 13.5726 71.2504 13.8406 70.7518 14.2623C70.2532 14.6841 69.8892 15.2068 69.66 15.8305C69.4399 16.4527 69.3893 17.1277 69.508 17.8554Z" fill="white"/>
<path d="M83.3069 15.9824C83.2836 16.7381 83.4309 17.4103 83.7489 17.999C84.0762 18.5881 84.51 19.0544 85.0503 19.3979C85.5907 19.7414 86.1827 19.9231 86.8264 19.943C87.5167 19.9643 88.1319 19.8479 88.672 19.5938C89.2121 19.3397 89.6614 19.0034 90.0198 18.5849L89.9714 20.1522C89.5497 20.5033 89.0935 20.76 88.603 20.9223C88.1124 21.0845 87.5079 21.1546 86.7896 21.1324C86.1086 21.1114 85.4733 20.9703 84.8838 20.7094C84.3038 20.4393 83.7969 20.0735 83.3629 19.6119C82.9293 19.1409 82.596 18.5937 82.3631 17.9702C82.1303 17.3467 82.0251 16.6712 82.0475 15.9435C82.07 15.2159 82.2167 14.5481 82.4876 13.9402C82.7585 13.3322 83.1248 12.8113 83.5864 12.3773C84.0483 11.934 84.5768 11.6002 85.1721 11.3758C85.7769 11.1424 86.4198 11.0362 87.1008 11.0572C87.8191 11.0794 88.4181 11.1866 88.8977 11.3788C89.3774 11.5711 89.8168 11.8554 90.216 12.2319L90.1676 13.7992C89.836 13.3501 89.4083 12.9867 88.8847 12.7091C88.3613 12.4221 87.7544 12.268 87.0641 12.2466C86.4204 12.2267 85.8183 12.3716 85.2578 12.6811C84.6973 12.9906 84.2355 13.4292 83.8725 13.9969C83.5191 14.5556 83.3306 15.2175 83.3069 15.9824Z" fill="white"/>
<path d="M100.293 12.5265L101.454 12.7894L101.207 13.8817C102.013 14.0835 102.7 14.4068 103.269 14.8515C103.838 15.2963 104.243 15.833 104.483 16.4616C104.726 17.0812 104.761 17.7687 104.59 18.5242C104.419 19.2798 104.09 19.8894 103.602 20.353C103.116 20.8076 102.52 21.1128 101.815 21.2689C101.11 21.4249 100.35 21.4202 99.5359 21.2548L99.2884 22.3472L98.1278 22.0842L98.3753 20.9919C97.5693 20.7901 96.8818 20.4668 96.3126 20.0221C95.7435 19.5773 95.3378 19.0452 95.0953 18.4256C94.855 17.797 94.8204 17.1049 94.9916 16.3494C95.1628 15.5938 95.4913 14.9888 95.977 14.5343C96.4649 14.0706 97.0615 13.7608 97.7667 13.6048C98.4719 13.4487 99.2317 13.4534 100.046 13.6188L100.293 12.5265ZM103.43 18.2613C103.615 17.442 103.469 16.7581 102.99 16.2094C102.521 15.6629 101.839 15.2738 100.944 15.0423L99.7989 20.0943C100.706 20.2711 101.49 20.2142 102.149 19.9233C102.817 19.6345 103.244 19.0805 103.43 18.2613ZM96.1522 16.6123C95.9665 17.4316 96.1085 18.1145 96.578 18.6611C97.0566 19.2097 97.7433 19.5998 98.6383 19.8313L99.783 14.7794C98.8756 14.6025 98.0878 14.6584 97.4195 14.9472C96.7602 15.2381 96.3378 15.7931 96.1522 16.6123Z" fill="white"/>
<path d="M113.518 27.081L113.575 23.8883L109.968 22.2828L107.634 24.462L106.419 23.9212L114.761 16.3708L114.733 27.6218L113.518 27.081ZM113.662 18.8393L110.859 21.4532L113.596 22.6715L113.662 18.8393Z" fill="white"/>
<path d="M124.071 21.4514L126.278 22.9364C126.804 23.2907 127.205 23.7066 127.48 24.1841C127.768 24.6591 127.909 25.1593 127.905 25.6848C127.907 26.2155 127.74 26.7325 127.401 27.2358C127.067 27.7314 126.652 28.0816 126.154 28.2866C125.669 28.489 125.15 28.5501 124.596 28.4701C124.055 28.3875 123.522 28.1691 122.995 27.8147L121.776 26.994L119.587 30.2463L118.6 29.5819L124.071 21.4514ZM125.653 23.8656L124.433 23.0449L122.401 26.0648L123.62 26.8855C124.147 27.2399 124.659 27.3987 125.156 27.362C125.661 27.3305 126.08 27.067 126.414 26.5714C126.752 26.0681 126.838 25.5805 126.672 25.1087C126.519 24.6343 126.179 24.2199 125.653 23.8656Z" fill="white"/>
<path d="M132.396 31.1924L127.244 35.4165L126.394 34.5843L134.441 28.0615L132.279 35.8764L140.045 33.5445L133.699 41.7317L132.848 40.8995L136.959 35.6571L130.683 37.5076L132.396 31.1924Z" fill="white"/>
<path d="M140.554 50.6222L142.288 47.9407L140.072 44.6733L136.939 45.2924L136.192 44.1917L147.262 42.1813L141.3 51.7229L140.554 50.6222ZM145.026 43.698L141.266 44.4386L142.947 46.9181L145.026 43.698Z" fill="white"/>
</svg>
