<svg width="187" height="187" viewBox="0 0 187 187" fill="none" xmlns="http://www.w3.org/2000/svg">
<circle cx="16" cy="106" r="2" fill="#7FBF9E"/>
<circle cx="171" cy="83" r="2" fill="#7FBF9E"/>
<path d="M174.313 101.361L174.749 95.9887L166.098 95.2864L166.194 94.1003L175.962 94.8932L175.333 102.638L165.565 101.845L165.661 100.659L174.313 101.361Z" fill="#7FBF9E"/>
<path d="M174.556 108.472L173.939 111.059C173.791 111.677 173.542 112.198 173.191 112.623C172.847 113.059 172.429 113.366 171.935 113.546C171.439 113.735 170.896 113.759 170.306 113.618C169.725 113.479 169.251 113.213 168.884 112.818C168.525 112.435 168.286 111.97 168.166 111.423C168.054 110.888 168.072 110.312 168.219 109.695L168.56 108.265L164.747 107.355L165.024 106.197L174.556 108.472ZM172.849 110.799L173.19 109.369L169.65 108.525L169.309 109.954C169.161 110.572 169.192 111.107 169.401 111.56C169.607 112.022 170.001 112.322 170.582 112.46C171.172 112.601 171.659 112.511 172.042 112.19C172.433 111.88 172.702 111.417 172.849 110.799Z" fill="#7FBF9E"/>
<path d="M167.324 117.703C167.985 117.983 168.548 118.352 169.013 118.812C169.482 119.284 169.835 119.814 170.074 120.401C170.32 120.992 170.442 121.616 170.437 122.273C170.442 122.933 170.306 123.59 170.029 124.243C169.749 124.905 169.373 125.46 168.899 125.909C168.431 126.369 167.899 126.717 167.303 126.951C166.716 127.189 166.091 127.3 165.43 127.284C164.773 127.279 164.113 127.137 163.451 126.857C162.798 126.581 162.237 126.207 161.768 125.735C161.295 125.271 160.935 124.744 160.688 124.153C160.45 123.566 160.329 122.943 160.325 122.282C160.325 121.634 160.466 120.979 160.746 120.317C161.022 119.663 161.394 119.106 161.863 118.646C162.34 118.189 162.872 117.841 163.459 117.603C164.055 117.369 164.685 117.256 165.351 117.263C166.013 117.28 166.67 117.426 167.324 117.703ZM166.833 118.863C166.154 118.576 165.486 118.466 164.829 118.533C164.169 118.608 163.575 118.838 163.047 119.223C162.52 119.608 162.118 120.127 161.842 120.78C161.562 121.442 161.469 122.092 161.564 122.73C161.655 123.377 161.906 123.959 162.315 124.477C162.721 125.003 163.263 125.41 163.942 125.697C164.621 125.984 165.291 126.09 165.951 126.015C166.608 125.948 167.2 125.722 167.727 125.337C168.251 124.961 168.653 124.442 168.933 123.78C169.21 123.126 169.302 122.477 169.211 121.83C169.12 121.183 168.871 120.597 168.465 120.07C168.056 119.553 167.512 119.15 166.833 118.863Z" fill="#7FBF9E"/>
<path d="M152.789 135.309L157.094 128.757L155.807 127.912L156.384 127.034L158.607 128.495L157.915 129.548L163.541 137.684L153.84 135.749L153.148 136.802L150.925 135.341L151.502 134.464L152.789 135.309ZM161.283 136.2L157.23 130.589L154.524 134.708L161.283 136.2Z" fill="#7FBF9E"/>
<path d="M152.552 150.876L148.439 140.859L149.337 139.879L150.622 142.766L157.896 145.044L156.903 146.128L150.988 144.107L153.45 149.895L152.552 150.876Z" fill="#7FBF9E"/>
<path d="M149.135 154.29L148.218 155.049L145.533 151.801L145.251 157.502L144.118 158.439L144.461 152.197L137.711 151.02L138.844 150.083L145.006 151.164L141.973 147.496L142.89 146.738L149.135 154.29Z" fill="#7FBF9E"/>
<path d="M134.516 154.808L129.866 157.533L134.253 165.022L133.226 165.624L128.839 158.134L127.812 158.736L126.468 156.441L127.374 155.91L128.152 157.239L134.977 153.24L139.931 161.696L138.904 162.298L134.516 154.808Z" fill="#7FBF9E"/>
<path d="M125.784 169.36L123.299 162.502L118.975 172.349L115.469 162.674L116.588 162.269L119.073 169.126L123.397 159.28L126.903 168.954L125.784 169.36Z" fill="#7FBF9E"/>
<path d="M107.359 174.648L105.56 165.015L106.73 164.796L107.45 168.65L108.619 168.431L110.583 164.077L112.028 163.807L109.892 168.308C110.602 168.346 111.217 168.563 111.737 168.96C112.25 169.367 112.574 169.933 112.71 170.658C112.821 171.255 112.775 171.795 112.571 172.279C112.358 172.765 112.025 173.169 111.573 173.491C111.122 173.822 110.589 174.045 109.974 174.16L107.359 174.648ZM109.087 169.412L107.642 169.682L108.336 173.398L109.781 173.128C110.396 173.013 110.871 172.758 111.205 172.363C111.54 171.969 111.651 171.473 111.54 170.877C111.43 170.29 111.147 169.868 110.691 169.611C110.237 169.364 109.702 169.297 109.087 169.412Z" fill="#7FBF9E"/>
<path d="M92.3446 172.753L93.5556 166.202L94.7424 166.289L92.802 176.465L89.4123 169.099L84.9831 175.89L84.5498 165.541L85.7366 165.628L85.9777 172.286L89.5794 166.823L92.3446 172.753Z" fill="#7FBF9E"/>
<path d="M79.4426 169.877C79.2573 170.571 78.9692 171.18 78.5783 171.704C78.1759 172.234 77.7006 172.658 77.1522 172.975C76.6014 173.301 76.0004 173.508 75.3493 173.595C74.6958 173.691 74.0263 173.648 73.341 173.465C72.6466 173.279 72.0446 172.983 71.5348 172.577C71.0137 172.177 70.5957 171.698 70.2808 171.141C69.9635 170.593 69.767 169.989 69.6914 169.332C69.6044 168.681 69.6536 168.008 69.8389 167.313C70.0218 166.628 70.3145 166.02 70.7168 165.49C71.1101 164.958 71.5822 164.528 72.133 164.202C72.6814 163.885 73.2823 163.678 73.9359 163.582C74.578 163.492 75.2462 163.54 75.9406 163.726C76.6259 163.909 77.2292 164.2 77.7503 164.6C78.2691 165.009 78.6871 165.488 79.0044 166.036C79.3193 166.593 79.519 167.202 79.6037 167.862C79.6793 168.52 79.6256 169.192 79.4426 169.877ZM78.2253 169.552C78.4154 168.84 78.4318 168.163 78.2745 167.522C78.1081 166.879 77.7977 166.322 77.3433 165.853C76.8889 165.384 76.319 165.058 75.6337 164.875C74.9393 164.69 74.2828 164.689 73.6641 164.871C73.0364 165.052 72.4946 165.38 72.0388 165.858C71.5739 166.332 71.2464 166.926 71.0563 167.638C70.8661 168.351 70.8542 169.029 71.0206 169.672C71.178 170.313 71.4839 170.868 71.9383 171.337C72.3836 171.804 72.9535 172.13 73.6479 172.315C74.3332 172.498 74.9897 172.499 75.6174 172.319C76.2452 172.139 76.7914 171.811 77.2563 171.336C77.7121 170.859 78.0351 170.264 78.2253 169.552Z" fill="#7FBF9E"/>
<path d="M64.8294 165.557C65.1497 164.873 65.2802 164.197 65.2209 163.53C65.1532 162.86 64.9391 162.26 64.5787 161.731C64.2183 161.202 63.7463 160.801 63.163 160.528C62.5373 160.235 61.9262 160.099 61.3297 160.119C60.7331 160.139 60.1875 160.27 59.6928 160.513L60.357 159.092C60.8832 158.936 61.4036 158.881 61.9184 158.926C62.4332 158.971 63.016 159.146 63.6671 159.45C64.2842 159.739 64.812 160.119 65.2503 160.592C65.6762 161.07 65.9972 161.606 66.2132 162.202C66.4253 162.806 66.515 163.44 66.4824 164.105C66.4497 164.77 66.2792 165.432 65.9708 166.091C65.6624 166.751 65.2636 167.306 64.7744 167.757C64.2852 168.208 63.7428 168.542 63.1472 168.758C62.5477 168.983 61.9302 169.08 61.2948 169.051C60.6469 169.026 60.0144 168.87 59.3972 168.581C58.7462 168.277 58.2385 167.941 57.8739 167.575C57.5094 167.209 57.2182 166.774 57.0004 166.27L57.6646 164.85C57.7916 165.393 58.0407 165.896 58.4119 166.358C58.7792 166.829 59.2757 167.21 59.9013 167.503C60.4847 167.776 61.095 167.881 61.7321 167.818C62.3693 167.756 62.9669 167.535 63.5249 167.157C64.0704 166.784 64.5052 166.251 64.8294 165.557Z" fill="#7FBF9E"/>
<path d="M47.8407 162.015L46.8682 161.329L47.5137 160.414C46.8457 159.92 46.3335 159.359 45.9771 158.73C45.6207 158.102 45.4514 157.452 45.4691 156.779C45.4814 156.114 45.7108 155.465 46.1572 154.832C46.6037 154.198 47.1409 153.761 47.7688 153.518C48.3912 153.283 49.0582 153.228 49.7696 153.353C50.481 153.478 51.1815 153.772 51.8711 154.236L52.5166 153.321L53.4891 154.007L52.8435 154.922C53.5116 155.416 54.0238 155.977 54.3802 156.605C54.7366 157.233 54.9086 157.88 54.8963 158.545C54.8786 159.218 54.6465 159.871 54.2 160.504C53.7535 161.137 53.2191 161.571 52.5966 161.806C51.9687 162.048 51.2991 162.107 50.5877 161.982C49.8763 161.857 49.1758 161.563 48.4862 161.1L47.8407 162.015ZM47.1297 155.517C46.6456 156.204 46.52 156.892 46.7531 157.582C46.9785 158.266 47.4607 158.886 48.1996 159.441L51.1852 155.208C50.414 154.699 49.6682 154.453 48.9479 154.47C48.2199 154.482 47.6138 154.831 47.1297 155.517ZM53.2276 159.818C53.7117 159.132 53.8411 158.446 53.6157 157.762C53.3826 157.072 52.8966 156.45 52.1577 155.894L49.1721 160.127C49.9433 160.637 50.6929 160.886 51.4209 160.874C52.1412 160.857 52.7434 160.505 53.2276 159.818Z" fill="#7FBF9E"/>
<path d="M41.1999 143.73L40.0021 146.69L42.7937 149.482L45.7537 148.284L46.6941 149.224L36.2006 153.283L40.2594 142.79L41.1999 143.73ZM38.1112 151.372L41.6652 149.937L39.5467 147.819L38.1112 151.372Z" fill="#7FBF9E"/>
<path d="M29.5784 145.514L28.0058 143.368C27.6306 142.856 27.3946 142.329 27.2979 141.787C27.1881 141.242 27.2246 140.724 27.4073 140.231C27.5846 139.731 27.9178 139.302 28.4071 138.943C28.8889 138.59 29.3987 138.401 29.9366 138.377C30.4615 138.351 30.9707 138.47 31.4644 138.733C31.945 138.994 32.373 139.38 32.7482 139.892L33.6172 141.078L36.7788 138.76L37.4824 139.72L29.5784 145.514ZM28.9091 142.706L29.7782 143.892L32.7139 141.74L31.8449 140.554C31.4697 140.042 31.042 139.719 30.5618 139.585C30.0761 139.444 29.5924 139.55 29.1106 139.903C28.6214 140.261 28.3749 140.691 28.3713 141.191C28.3546 141.689 28.5339 142.194 28.9091 142.706Z" fill="#7FBF9E"/>
<path d="M24.8937 133.25L31.1427 130.941L31.6746 132.006L21.9379 135.541L26.5351 128.861L18.4335 128.527L27.1064 122.863L27.6383 123.928L22.0401 127.539L28.5765 127.841L24.8937 133.25Z" fill="#7FBF9E"/>
<path d="M23.4388 112.269L20.9572 114.279L22.0475 118.073L25.2172 118.459L25.5845 119.737L14.4382 118.206L23.0715 110.991L23.4388 112.269ZM17.0351 117.46L20.8396 117.925L20.0122 115.046L17.0351 117.46Z" fill="#7FBF9E"/>
<path d="M12.6005 86.6011L12.2265 91.9781L20.8856 92.5803L20.803 93.7675L11.0267 93.0875L11.5658 85.3362L21.3422 86.0162L21.2596 87.2033L12.6005 86.6011Z" fill="#7FBF9E"/>
<path d="M12.2529 79.569L12.8407 76.9748C12.9809 76.3558 13.224 75.8319 13.57 75.4031C13.9089 74.9631 14.3243 74.6505 14.8161 74.4653C15.3099 74.2709 15.8526 74.2408 16.4443 74.3748C17.0269 74.5068 17.5036 74.768 17.8745 75.1583C18.2384 75.5374 18.483 75.9995 18.6083 76.5447C18.7266 77.0787 18.7156 77.6552 18.5753 78.2742L18.2505 79.7078L22.0736 80.5741L21.8106 81.7346L12.2529 79.569ZM13.933 77.2223L13.6081 78.6559L17.1582 79.4603L17.483 78.0267C17.6232 77.4077 17.5865 76.873 17.3727 76.4226C17.161 75.9632 16.7639 75.6674 16.1813 75.5354C15.5897 75.4014 15.1038 75.497 14.7239 75.8225C14.3369 76.1367 14.0732 76.6033 13.933 77.2223Z" fill="#7FBF9E"/>
<path d="M19.284 70.4977C18.618 70.2277 18.0495 69.8662 17.5784 69.4134C17.1022 68.9484 16.7407 68.4242 16.4939 67.8407C16.2384 67.2537 16.1079 66.6317 16.1023 65.9748C16.088 65.3144 16.2142 64.6555 16.4807 63.9982C16.7507 63.3322 17.1191 62.7715 17.5857 62.3161C18.0472 61.8486 18.574 61.4931 19.1662 61.2498C19.7497 61.003 20.3724 60.8828 21.0345 60.8894C21.6914 60.8838 22.3528 61.016 23.0188 61.2861C23.6762 61.5526 24.243 61.9183 24.7191 62.3833C25.1988 62.8397 25.5664 63.3613 25.8219 63.9484C26.0687 64.5319 26.1993 65.1538 26.2135 65.8142C26.2226 66.4625 26.0921 67.1196 25.8221 67.7856C25.5556 68.443 25.1916 69.0054 24.7301 69.4729C24.26 69.937 23.7331 70.2924 23.1496 70.5392C22.5575 70.7826 21.9286 70.9053 21.2631 70.9074C20.601 70.9008 19.9413 70.7642 19.284 70.4977ZM19.7574 69.33C20.4407 69.6071 21.1101 69.7073 21.7656 69.6306C22.4246 69.5453 23.015 69.3063 23.5368 68.9136C24.0586 68.5209 24.4528 67.9958 24.7193 67.3385C24.9893 66.6725 25.0721 66.0212 24.9676 65.3846C24.8667 64.7394 24.6077 64.161 24.1906 63.6495C23.7771 63.1294 23.2287 62.7308 22.5454 62.4537C21.8621 62.1767 21.1909 62.0808 20.5319 62.1661C19.8764 62.2428 19.2878 62.4775 18.766 62.8702C18.2477 63.2542 17.8535 63.7793 17.5835 64.4453C17.317 65.1026 17.2342 65.7539 17.3352 66.3991C17.4361 67.0444 17.6934 67.627 18.1069 68.1472C18.5239 68.6587 19.0741 69.053 19.7574 69.33Z" fill="#7FBF9E"/>
<path d="M33.5264 52.6846L29.3177 59.2991L30.617 60.1258L30.0534 61.0117L27.8091 59.5838L28.4855 58.5207L22.7404 50.468L32.4687 52.2605L33.1451 51.1974L35.3893 52.6254L34.8257 53.5113L33.5264 52.6846ZM25.0201 51.9185L29.1544 57.4695L31.7998 53.3117L25.0201 51.9185Z" fill="#7FBF9E"/>
<path d="M33.4893 37.1344L37.7478 47.0904L36.8635 48.0839L35.5364 45.216L28.2306 43.0432L29.2078 41.9451L35.1512 43.8799L32.6051 38.128L33.4893 37.1344Z" fill="#7FBF9E"/>
<path d="M36.9299 33.5525L37.8387 32.7843L40.5592 36.0024L40.7789 30.2988L41.9015 29.3497L41.6265 35.5952L48.3886 36.6983L47.266 37.6473L41.0925 36.6332L44.1654 40.2684L43.2567 41.0366L36.9299 33.5525Z" fill="#7FBF9E"/>
<path d="M51.474 32.8496L56.0945 30.074L51.6248 22.6333L52.6449 22.0206L57.1146 29.4613L58.1347 28.8485L59.5044 31.1287L58.6043 31.6694L57.8113 30.3493L51.0307 34.4225L45.9842 26.0217L47.0043 25.4089L51.474 32.8496Z" fill="#7FBF9E"/>
<path d="M60.0576 18.1227L62.62 24.9518L66.8325 15.0573L70.4475 24.6914L69.3333 25.1094L66.7709 18.2804L62.5584 28.1749L58.9435 18.5408L60.0576 18.1227Z" fill="#7FBF9E"/>
<path d="M78.447 12.5667L80.3566 22.1789L79.1894 22.4107L78.4255 18.5659L77.2584 18.7978L75.3445 23.1746L73.9027 23.461L75.987 18.9362C75.2768 18.906 74.6593 18.6956 74.1345 18.3051C73.617 17.9035 73.2864 17.3412 73.1427 16.618C73.0245 16.0229 73.0645 15.4821 73.2628 14.9955C73.4703 14.507 73.7985 14.0992 74.2473 13.7722C74.6944 13.4359 75.2246 13.2069 75.8379 13.085L78.447 12.5667ZM76.7791 17.8225L78.2209 17.536L77.4844 13.8285L76.0425 14.1149C75.4292 14.2368 74.9575 14.497 74.6275 14.8956C74.2976 15.2942 74.1917 15.791 74.3099 16.3861C74.4263 16.972 74.714 17.3906 75.1732 17.6419C75.6305 17.8841 76.1658 17.9443 76.7791 17.8225Z" fill="#7FBF9E"/>
<path d="M93.1461 14.2019L92.0109 20.7664L90.8232 20.693L92.6457 10.496L96.1204 17.8223L100.471 10.9797L101.024 21.3235L99.836 21.2501L99.5179 14.5958L95.9796 20.1L93.1461 14.2019Z" fill="#7FBF9E"/>
<path d="M106.177 16.8378C106.355 16.1413 106.636 15.5291 107.021 15.0012C107.417 14.4664 107.888 14.0373 108.432 13.7138C108.979 13.3812 109.578 13.1677 110.228 13.0733C110.881 12.9698 111.55 13.0056 112.238 13.1807C112.934 13.3581 113.54 13.6472 114.054 14.0479C114.58 14.4419 115.003 14.9158 115.324 15.4695C115.648 16.0143 115.851 16.6151 115.934 17.2719C116.029 17.922 115.987 18.5953 115.81 19.2917C115.635 19.9791 115.349 20.5901 114.953 21.1248C114.565 21.6619 114.098 22.0967 113.551 22.4292C113.007 22.7528 112.408 22.9663 111.756 23.0698C111.115 23.1665 110.446 23.1261 109.749 22.9487C109.062 22.7736 108.455 22.4891 107.93 22.0951C107.406 21.6921 106.983 21.2182 106.659 20.6735C106.338 20.1197 106.132 19.5132 106.039 18.8541C105.956 18.1973 106.002 17.5251 106.177 16.8378ZM107.398 17.1488C107.216 17.8633 107.208 18.5401 107.372 19.1792C107.546 19.8206 107.863 20.3733 108.322 20.8371C108.782 21.301 109.356 21.6204 110.043 21.7956C110.74 21.973 111.396 21.9669 112.013 21.7772C112.638 21.5899 113.176 21.255 113.627 20.7726C114.086 20.2924 114.407 19.6951 114.589 18.9806C114.771 18.2661 114.775 17.5882 114.601 16.9468C114.437 16.3077 114.124 15.7562 113.665 15.2923C113.214 14.8308 112.64 14.5113 111.944 14.3339C111.257 14.1588 110.6 14.1649 109.975 14.3522C109.349 14.5396 108.806 14.8733 108.347 15.3534C107.897 15.8359 107.58 16.4343 107.398 17.1488Z" fill="#7FBF9E"/>
<path d="M121.072 20.9926C121.388 20.2958 121.817 19.7576 122.358 19.3781C122.912 18.994 123.507 18.7671 124.143 18.6973C124.78 18.6276 125.391 18.7258 125.978 18.9921C126.403 19.185 126.764 19.4158 127.062 19.6845C127.369 19.9571 127.621 20.2609 127.817 20.5961C128.017 20.9228 128.159 21.2641 128.244 21.6202L128.892 20.1925C128.669 19.6913 128.373 19.2596 128.004 18.8975C127.635 18.5353 127.124 18.2057 126.47 17.9086C125.849 17.6269 125.215 17.4772 124.567 17.4597C123.931 17.4376 123.315 17.5421 122.718 17.7733C122.125 17.9959 121.586 18.3356 121.102 18.7923C120.618 19.249 120.225 19.8088 119.924 20.4717C119.623 21.1345 119.46 21.7985 119.435 22.4636C119.41 23.1286 119.506 23.762 119.725 24.3636C119.948 24.9568 120.275 25.4896 120.706 25.9622C121.15 26.4301 121.682 26.8049 122.302 27.0866C122.956 27.3838 123.541 27.5519 124.056 27.5911C124.572 27.6303 125.091 27.5691 125.616 27.4075L126.264 25.9798C125.941 26.1506 125.588 26.2724 125.206 26.3452C124.829 26.4094 124.436 26.4157 124.029 26.3641C123.631 26.3164 123.219 26.1961 122.794 26.0031C122.208 25.7368 121.731 25.3412 121.365 24.816C120.999 24.2909 120.778 23.6935 120.703 23.0239C120.636 22.3581 120.759 21.681 121.072 20.9926Z" fill="#7FBF9E"/>
<path d="M137.981 24.2055L138.963 24.877L138.331 25.8016C139.006 26.2858 139.527 26.8394 139.892 27.4624C140.258 28.0854 140.437 28.7334 140.429 29.4063C140.426 30.0716 140.206 30.724 139.769 31.3635C139.332 32.0031 138.801 32.4486 138.177 32.7002C137.558 32.9441 136.892 33.0089 136.179 32.8944C135.466 32.78 134.761 32.4961 134.065 32.0427L133.432 32.9673L132.45 32.2957L133.082 31.3711C132.407 30.8869 131.887 30.3333 131.521 29.7104C131.156 29.0874 130.974 28.4433 130.977 27.778C130.984 27.105 131.207 26.4487 131.644 25.8092C132.081 25.1697 132.609 24.728 133.228 24.4841C133.853 24.2325 134.521 24.1639 135.234 24.2783C135.948 24.3928 136.652 24.6767 137.349 25.1301L137.981 24.2055ZM138.787 30.692C139.261 29.9985 139.376 29.3087 139.133 28.6224C138.898 27.9414 138.406 27.3286 137.659 26.784L134.736 31.0603C135.515 31.5587 136.264 31.7939 136.984 31.766C137.712 31.7434 138.313 31.3854 138.787 30.692ZM132.627 26.4808C132.152 27.1743 132.033 27.8615 132.269 28.5425C132.512 29.2287 133.007 29.8442 133.754 30.3887L136.677 26.1125C135.898 25.6141 135.145 25.3762 134.418 25.3988C133.698 25.4267 133.101 25.7874 132.627 26.4808Z" fill="#7FBF9E"/>
<path d="M145.092 42.5479L146.257 39.5751L143.435 36.814L140.489 38.0441L139.538 37.1139L149.987 32.941L146.042 43.4781L145.092 42.5479ZM148.097 34.8723L144.559 36.3464L146.7 38.4417L148.097 34.8723Z" fill="#7FBF9E"/>
<path d="M156.672 40.5548L148.832 46.4347L149.546 47.3867L157.386 41.5068L156.672 40.5548ZM156.171 41.7532L157.372 43.3548C157.753 43.8625 157.938 44.3656 157.927 44.864C157.928 45.3642 157.687 45.7964 157.201 46.1604C156.723 46.5188 156.241 46.6298 155.754 46.4936C155.272 46.3648 154.841 46.0465 154.46 45.5388L153.259 43.9372L152.363 44.6091L153.564 46.2108C153.945 46.7185 154.377 47.1002 154.861 47.356C155.357 47.6136 155.868 47.7265 156.392 47.6948C156.93 47.6649 157.437 47.4708 157.915 47.1124C158.401 46.7484 158.729 46.3153 158.901 45.8132C159.078 45.3185 159.109 44.7996 158.993 44.2564C158.891 43.7151 158.649 43.1905 158.268 42.6828L157.067 41.0812L156.171 41.7532Z" fill="#7FBF9E"/>
<path d="M161.604 52.8813L155.381 55.2594L154.837 54.2009L164.534 50.5578L160.011 57.2878L168.116 57.5316L159.507 63.2917L158.963 62.2332L164.521 58.56L157.981 58.3305L161.604 52.8813Z" fill="#7FBF9E"/>
<path d="M163.246 73.5947L165.697 71.5479L164.549 67.7704L161.374 67.4327L160.988 66.1602L172.156 67.5226L163.633 74.8672L163.246 73.5947ZM169.571 68.3081L165.759 67.9002L166.63 70.7669L169.571 68.3081Z" fill="#7FBF9E"/>
</svg>
