<svg width="22" height="37" viewBox="0 0 22 37" fill="none" xmlns="http://www.w3.org/2000/svg">
<path d="M17.8 11C17.8 12.2667 17.4167 13.5 16.65 14.7C15.8833 15.8667 14.7833 16.8333 13.35 17.6C11.9167 18.3667 10.2 18.75 8.2 18.75H6.9L7.9 27.5H10.9L11.25 21.5C13.1167 21.4 14.85 20.8833 16.45 19.95C18.05 18.9833 19.35 17.7333 20.35 16.2C21.35 14.6333 21.85 12.9 21.85 11C21.85 9.5 21.5667 8.11667 21 6.85C20.4667 5.58333 19.7 4.48333 18.7 3.55C17.7333 2.58333 16.5833 1.83333 15.25 1.3C13.95 0.766665 12.5167 0.499998 10.95 0.499998C8.98333 0.499998 7.31667 0.749998 5.95 1.25C4.61667 1.71666 3.48333 2.4 2.55 3.3C1.61667 4.16667 0.766667 5.18333 1.19209e-07 6.35L3.25 8.4C4.01667 7.13333 4.98333 6.13333 6.15 5.4C7.35 4.63333 8.78333 4.25 10.45 4.25C11.95 4.25 13.25 4.51666 14.35 5.05C15.45 5.58333 16.3 6.35 16.9 7.35C17.5 8.35 17.8 9.56667 17.8 11ZM6.75 34C6.75 34.7333 7.01667 35.3833 7.55 35.95C8.11667 36.4833 8.76667 36.75 9.5 36.75C10.2667 36.75 10.9167 36.4833 11.45 35.95C11.9833 35.3833 12.25 34.7333 12.25 34C12.25 33.2333 11.9833 32.5833 11.45 32.05C10.9167 31.5167 10.2667 31.25 9.5 31.25C8.76667 31.25 8.11667 31.5167 7.55 32.05C7.01667 32.5833 6.75 33.2333 6.75 34Z" fill="#F0A984"/>
</svg>
