<svg width="152" height="152" viewBox="0 0 152 152" fill="none" xmlns="http://www.w3.org/2000/svg">
<path d="M135.744 79.8152C135.692 80.354 135.71 80.8481 135.798 81.2973C135.885 81.7558 136.025 82.1537 136.217 82.4911C136.419 82.8295 136.66 83.0966 136.941 83.2926C137.231 83.4987 137.547 83.6184 137.891 83.6517C138.356 83.6966 138.795 83.6125 139.21 83.3994C139.624 83.1863 139.974 82.8592 140.261 82.418C140.547 81.9769 140.722 81.4312 140.785 80.7809C140.845 80.1584 140.787 79.5949 140.611 79.0902C140.443 78.5958 140.182 78.1955 139.827 77.8892C139.471 77.5923 139.038 77.4191 138.527 77.3697L138.418 78.4984C138.706 78.5263 138.953 78.6392 139.158 78.8373C139.364 79.0354 139.517 79.294 139.618 79.6131C139.717 79.9415 139.748 80.3009 139.711 80.691C139.67 81.1091 139.571 81.4512 139.414 81.7173C139.256 81.9927 139.05 82.1884 138.795 82.3044C138.549 82.4213 138.273 82.4649 137.967 82.4353C137.66 82.4056 137.386 82.2853 137.143 82.0744C136.911 81.8643 136.732 81.5751 136.609 81.2069C136.494 80.8395 136.461 80.4003 136.511 79.8893L135.744 79.8152ZM130.757 79.7549C130.687 80.4795 130.739 81.1081 130.912 81.6406C131.085 82.1824 131.363 82.6078 131.745 82.9167C132.127 83.2349 132.592 83.4206 133.14 83.4736C133.791 83.5364 134.327 83.4149 134.751 83.1089C135.184 82.8038 135.521 82.3676 135.763 81.8003C136.006 81.233 136.162 80.587 136.232 79.8624L135.466 79.7883C135.416 80.2992 135.303 80.7477 135.125 81.1337C134.956 81.5206 134.726 81.8171 134.434 82.0233C134.142 82.2295 133.796 82.3133 133.397 82.2747C132.867 82.2235 132.462 82.0015 132.181 81.6086C131.9 81.2158 131.797 80.6338 131.872 79.8627C131.921 79.3518 132.032 78.9358 132.204 78.6148C132.374 78.3032 132.589 78.0708 132.848 77.9176C133.105 77.7737 133.389 77.6981 133.699 77.6905L133.815 76.4921C133.434 76.4553 133.07 76.495 132.721 76.6113C132.38 76.7378 132.07 76.9376 131.791 77.2106C131.52 77.4845 131.295 77.8331 131.113 78.2562C130.931 78.6794 130.813 79.1789 130.757 79.7549Z" fill="#F0A984"/>
<path d="M132.584 89.2842L131.022 94.2231L132.217 94.1604L133.525 90.0223L132.584 89.2842ZM136.243 93.1283L131.972 93.5398L131.672 93.5622L128.037 93.9107L127.636 95.1788L138.819 93.943L130.38 86.5023L129.979 87.7704L132.824 90.197L133.03 90.3798L136.243 93.1283Z" fill="#F0A984"/>
<path d="M130.663 106.54L123.103 105.244L122.462 106.329L132.989 107.914L126.521 99.4586L125.88 100.543L130.663 106.54ZM122.136 106.055L120.81 105.272L120.276 106.176L122.566 107.529L127.622 98.9709L125.332 97.6179L124.798 98.522L126.124 99.3052L122.136 106.055Z" fill="#F0A984"/>
<path d="M121.14 112.585L117.586 116.353L118.688 116.816L121.667 113.659L121.14 112.585ZM122.763 117.638L118.738 116.151L118.458 116.04L115.034 114.773L114.121 115.74L124.728 119.492L120.366 109.121L119.454 110.089L120.959 113.511L121.066 113.766L122.763 117.638Z" fill="#F0A984"/>
<path d="M117.036 124.921L114.993 126.396L109.912 119.358L108.947 120.054L114.028 127.092L111.985 128.567L112.64 129.475L117.691 125.829L117.036 124.921Z" fill="#F0A984"/>
<path d="M107.923 132.566L103.673 123.735L102.601 124.251L106.85 133.082L107.923 132.566ZM105.144 128.31L103.34 129.178C102.962 129.36 102.599 129.457 102.253 129.468C101.902 129.492 101.587 129.421 101.31 129.254C101.025 129.091 100.795 128.828 100.621 128.467C100.447 128.105 100.385 127.762 100.436 127.437C100.478 127.116 100.616 126.822 100.85 126.554C101.079 126.299 101.383 126.08 101.762 125.898L103.566 125.03L103.08 124.02L101.276 124.889C100.704 125.164 100.246 125.514 99.9013 125.939C99.5524 126.376 99.3427 126.855 99.2723 127.376C99.1974 127.909 99.2895 128.445 99.5486 128.983C99.8117 129.529 100.173 129.936 100.632 130.201C101.083 130.471 101.586 130.602 102.142 130.594C102.693 130.598 103.254 130.462 103.826 130.187L105.63 129.319L105.144 128.31Z" fill="#F0A984"/>
<path d="M88.163 135.045L86.598 135.276C86.0162 135.362 85.5253 135.519 85.125 135.748C84.7155 135.978 84.4146 136.272 84.2221 136.631C84.0297 136.989 83.9668 137.395 84.0335 137.847C84.1152 138.401 84.3019 138.836 84.5937 139.152C84.8869 139.476 85.2634 139.695 85.7232 139.806C86.1738 139.919 86.69 139.932 87.2717 139.847L89.7647 139.479L88.3356 129.784L85.7041 130.172C85.0762 130.264 84.5325 130.448 84.0731 130.724C83.6058 131.009 83.2596 131.381 83.0346 131.839C82.8018 132.307 82.7323 132.86 82.8262 133.497C82.8915 133.94 83.0311 134.311 83.245 134.61C83.4588 134.909 83.7331 135.137 84.0677 135.295C84.3945 135.464 84.7639 135.57 85.1759 135.613C85.5879 135.656 86.0294 135.643 86.5003 135.573L88.2039 135.322L88.1079 134.671L86.4043 134.922C86.0904 134.969 85.798 134.969 85.5272 134.924C85.2578 134.889 85.0192 134.806 84.8114 134.676C84.5943 134.548 84.418 134.376 84.2824 134.16C84.1468 133.944 84.0572 133.688 84.0137 133.393C83.9552 132.996 83.9978 132.645 84.1417 132.341C84.2763 132.038 84.4943 131.789 84.7957 131.593C85.0878 131.399 85.4417 131.272 85.8572 131.211L87.3115 130.996L88.4343 138.614L87.1186 138.808C86.6292 138.88 86.2039 138.811 85.8426 138.6C85.4826 138.398 85.2687 138.066 85.2006 137.605C85.1557 137.3 85.1914 137.031 85.3079 136.796C85.4243 136.562 85.6036 136.371 85.8458 136.222C86.088 136.073 86.3707 135.975 86.6939 135.927L88.259 135.696L88.163 135.045Z" fill="#F0A984"/>
<path d="M77.2039 136.09C77.1584 136.826 76.9594 137.473 76.607 138.031C76.2453 138.589 75.7746 139.018 75.1949 139.318C74.6152 139.619 73.9714 139.748 73.2634 139.704C72.5461 139.66 71.9231 139.453 71.3942 139.084C70.856 138.714 70.4463 138.23 70.1653 137.633C69.875 137.035 69.7525 136.368 69.798 135.633C69.8435 134.897 70.0471 134.25 70.4089 133.693C70.7613 133.135 71.2273 132.705 71.807 132.404C72.3774 132.103 73.0212 131.974 73.7385 132.019C74.4465 132.063 75.0696 132.269 75.6078 132.639C76.146 133.009 76.5602 133.493 76.8506 134.091C77.1316 134.688 77.2494 135.354 77.2039 136.09ZM78.4615 136.168C78.5053 135.46 78.425 134.791 78.2208 134.161C78.0073 133.531 77.6911 132.974 77.2722 132.49C76.8526 132.015 76.3482 131.628 75.7588 131.33C75.1688 131.041 74.5199 130.875 73.8119 130.831C73.0946 130.787 72.4301 130.872 71.8183 131.087C71.1967 131.31 70.6485 131.631 70.1737 132.051C69.6983 132.48 69.3206 132.994 69.0403 133.594C68.7508 134.193 68.5842 134.847 68.5404 135.555C68.4961 136.272 68.581 136.941 68.7951 137.562C68.9993 138.192 69.3111 138.744 69.7306 139.219C70.1496 139.703 70.654 140.09 71.244 140.379C71.824 140.676 72.4727 140.847 73.19 140.892C73.898 140.936 74.5628 140.846 75.1845 140.622C75.8055 140.408 76.3537 140.087 76.8291 139.658C77.3039 139.238 77.686 138.729 77.9755 138.13C78.2552 137.539 78.4172 136.885 78.4615 136.168Z" fill="#F0A984"/>
<path d="M56.5823 136.68L59.0425 128.356L57.9013 128.019L55.1237 137.417L62.575 139.619L65.3527 130.221L64.2115 129.884L61.7513 138.208L56.5823 136.68Z" fill="#F0A984"/>
<path d="M49.3217 135.222L53.9279 126.572L52.8775 126.012L48.2713 134.662L49.3217 135.222ZM49.2673 133.924L47.5002 132.983C46.94 132.684 46.5593 132.307 46.3581 131.851C46.1442 131.399 46.1799 130.905 46.465 130.37C46.7458 129.842 47.1357 129.537 47.6347 129.454C48.1254 129.366 48.6509 129.472 49.2111 129.77L50.9782 130.711L51.5046 129.722L49.7375 128.781C49.1773 128.483 48.6241 128.321 48.0778 128.294C47.5189 128.271 47.0087 128.386 46.5471 128.637C46.0729 128.892 45.6954 129.283 45.4147 129.81C45.1295 130.346 45.0157 130.877 45.0731 131.405C45.1223 131.928 45.3145 132.411 45.6497 132.854C45.9722 133.301 46.4136 133.673 46.9738 133.971L48.7409 134.912L49.2673 133.924Z" fill="#F0A984"/>
<path d="M41.422 125.181C40.9481 125.746 40.4035 126.148 39.7885 126.387C39.1663 126.621 38.5327 126.686 37.8877 126.583C37.2428 126.481 36.6486 126.202 36.1052 125.746C35.5547 125.284 35.1765 124.747 34.9707 124.136C34.7577 123.518 34.7156 122.886 34.8445 122.239C34.9663 121.585 35.2641 120.976 35.7381 120.412C36.212 119.847 36.7601 119.448 37.3823 119.214C37.9974 118.975 38.6274 118.907 39.2723 119.009C39.9101 119.106 40.5043 119.385 41.0548 119.847C41.5982 120.303 41.9764 120.84 42.1894 121.457C42.4024 122.075 42.448 122.71 42.3263 123.363C42.1974 124.01 41.896 124.616 41.422 125.181ZM42.3872 125.991C42.8432 125.448 43.1762 124.862 43.3863 124.234C43.5892 123.6 43.6661 122.964 43.6169 122.326C43.5617 121.695 43.3857 121.084 43.0889 120.494C42.7862 119.911 42.3631 119.392 41.8198 118.936C41.2693 118.474 40.6842 118.147 40.0646 117.956C39.4319 117.767 38.8 117.699 38.1688 117.754C37.5317 117.817 36.9222 118.006 36.3403 118.322C35.7513 118.632 35.2288 119.058 34.7729 119.602C34.3109 120.152 33.9815 120.741 33.7845 121.368C33.5745 121.995 33.497 122.625 33.5522 123.256C33.6014 123.894 33.7774 124.505 34.0801 125.088C34.3697 125.672 34.7898 126.195 35.3403 126.657C35.8837 127.113 36.4717 127.436 37.1044 127.626C37.7311 127.823 38.3631 127.89 39.0002 127.828C39.6314 127.772 40.2415 127.59 40.8305 127.28C41.4063 126.971 41.9253 126.542 42.3872 125.991Z" fill="#F0A984"/>
<path d="M31.0013 115.812C30.3907 116.273 29.757 116.542 29.1002 116.617C28.4303 116.69 27.7991 116.606 27.2064 116.363C26.6138 116.121 26.1234 115.743 25.7351 115.229C25.4537 114.857 25.2461 114.481 25.1122 114.103C24.9726 113.717 24.8966 113.33 24.884 112.942C24.8639 112.559 24.9018 112.191 24.9975 111.838L23.7466 112.783C23.7038 113.33 23.7579 113.851 23.9091 114.345C24.0602 114.839 24.3524 115.373 24.7857 115.946C25.1965 116.49 25.6825 116.924 26.2437 117.249C26.7918 117.572 27.3833 117.774 28.0183 117.855C28.6458 117.943 29.2813 117.901 29.9246 117.731C30.568 117.561 31.1801 117.256 31.7609 116.817C32.3417 116.378 32.8019 115.872 33.1414 115.3C33.4809 114.728 33.6981 114.125 33.7928 113.492C33.8801 112.864 33.8471 112.24 33.6936 111.619C33.5271 110.996 33.2384 110.413 32.8276 109.869C32.3943 109.296 31.9606 108.869 31.5265 108.589C31.0925 108.308 30.6064 108.114 30.0684 108.006L28.8174 108.951C29.1833 108.956 29.5513 109.017 29.9213 109.135C30.2839 109.259 30.6318 109.44 30.9649 109.68C31.2924 109.912 31.5969 110.214 31.8782 110.587C32.2665 111.1 32.4963 111.675 32.5677 112.312C32.6391 112.948 32.5481 113.578 32.2946 114.203C32.0355 114.82 31.6044 115.356 31.0013 115.812Z" fill="#F0A984"/>
<path d="M16.136 76.1577C16.1527 75.6166 16.1026 75.1248 15.9855 74.6823C15.8687 74.2305 15.7033 73.8426 15.4892 73.5185C15.2658 73.1941 15.0074 72.9433 14.7141 72.7662C14.4117 72.5794 14.0879 72.4807 13.7427 72.47C13.2763 72.4556 12.8433 72.5683 12.4437 72.8081C12.0441 73.0479 11.7158 73.3972 11.4589 73.8562C11.2019 74.3152 11.0633 74.8711 11.0432 75.5242C11.0239 76.1492 11.1187 76.7077 11.3276 77.1997C11.5274 77.6821 11.8144 78.0645 12.1886 78.3469C12.563 78.6199 13.0067 78.7643 13.5198 78.7802L13.5548 77.6467C13.2656 77.6378 13.0118 77.5412 12.7934 77.3571C12.575 77.1729 12.4052 76.9249 12.2841 76.613C12.1633 76.2918 12.109 75.9353 12.1211 75.5434C12.1341 75.1236 12.2102 74.7758 12.3494 74.5C12.4889 74.2148 12.6821 74.006 12.929 73.8736C13.1666 73.7409 13.4393 73.6793 13.7471 73.6888C14.055 73.6983 14.3366 73.8003 14.5921 73.995C14.8382 74.1894 15.0351 74.4662 15.1827 74.8256C15.321 75.1847 15.3823 75.6208 15.3664 76.1339L16.136 76.1577ZM21.1166 75.8913C21.1391 75.1637 21.0463 74.5398 20.8383 74.0198C20.6305 73.4905 20.3256 73.0842 19.9235 72.801C19.5216 72.5085 19.0455 72.3537 18.4951 72.3367C17.8421 72.3165 17.3144 72.473 16.9119 72.806C16.5001 73.1388 16.1918 73.5962 15.9871 74.1781C15.7823 74.7601 15.6687 75.4149 15.6463 76.1426L16.4159 76.1663C16.4317 75.6532 16.5158 75.1983 16.6682 74.8015C16.8112 74.4044 17.0215 74.0934 17.2993 73.8685C17.577 73.6436 17.9164 73.5374 18.3176 73.5498C18.8493 73.5662 19.2682 73.7612 19.5741 74.1349C19.8801 74.5085 20.0211 75.0824 19.9972 75.8567C19.9813 76.3698 19.8982 76.7921 19.7479 77.1237C19.5979 77.4458 19.3989 77.6918 19.1509 77.8616C18.9031 78.022 18.6248 78.1161 18.3158 78.1439L18.2786 79.3474C18.6611 79.3592 19.0225 79.2956 19.363 79.1567C19.6944 79.0082 19.9907 78.7886 20.2518 78.4979C20.5035 78.2068 20.7061 77.8442 20.8596 77.4101C21.0131 76.976 21.0988 76.4697 21.1166 75.8913Z" fill="#F0A984"/>
<path d="M18.6377 66.631L19.8592 61.5971L18.6718 61.7412L17.6484 65.9588L18.6377 66.631ZM14.725 63.0452L18.9578 62.3436L19.2563 62.3008L22.8583 61.7053L23.1719 60.4128L12.0991 62.4081L21.0261 69.2562L21.3397 67.9637L18.3361 65.7367L18.1176 65.5684L14.725 63.0452Z" fill="#F0A984"/>
<path d="M19.2851 49.4498L26.9175 50.2117L27.4807 49.0846L16.8681 48.242L23.9137 56.223L24.4769 55.0959L19.2851 49.4498ZM27.8251 49.335L29.2027 50.0233L29.672 49.0841L27.2926 47.8951L22.8495 56.7868L25.2289 57.9758L25.6983 57.0365L24.3207 56.3482L27.8251 49.335Z" fill="#F0A984"/>
<path d="M28.4827 42.5408L31.7834 38.5487L30.6526 38.1587L27.8871 41.5035L28.4827 42.5408ZM26.533 37.6046L30.6462 38.8255L30.9334 38.9176L34.4328 39.9581L35.2803 38.9331L24.4506 35.8828L29.4817 45.9464L30.3292 44.9213L28.6027 41.6047L28.4799 41.3578L26.533 37.6046Z" fill="#F0A984"/>
<path d="M31.6328 30.0535L33.5749 28.4477L39.1059 35.1373L40.023 34.379L34.492 27.6894L36.4342 26.0836L35.7205 25.2205L30.9191 29.1903L31.6328 30.0535Z" fill="#F0A984"/>
<path d="M40.2677 21.7533L45.0959 30.2814L46.1315 29.6951L41.3033 21.167L40.2677 21.7533ZM43.3234 25.815L45.0656 24.8287C45.4311 24.6217 45.7864 24.501 46.1315 24.4665C46.4801 24.4193 46.7983 24.4697 47.086 24.6179C47.3817 24.7615 47.6285 25.0079 47.8262 25.3571C48.024 25.7064 48.1083 26.0448 48.0792 26.3723C48.0582 26.6952 47.9401 26.998 47.7248 27.2808C47.513 27.5508 47.2244 27.7893 46.8589 27.9962L45.1167 28.9826L45.6685 29.9572L47.4107 28.9709C47.963 28.6582 48.3969 28.2785 48.7124 27.8317C49.0314 27.3722 49.2088 26.8803 49.2444 26.3561C49.2836 25.8191 49.1561 25.2907 48.8618 24.7709C48.5629 24.2429 48.1754 23.8617 47.6994 23.6271C47.2315 23.3879 46.7208 23.2909 46.1672 23.3362C45.6172 23.3687 45.0661 23.5413 44.5138 23.854L42.7716 24.8404L43.3234 25.815Z" fill="#F0A984"/>
<path d="M59.5739 17.9763L61.1194 17.6385C61.6938 17.5129 62.1728 17.3223 62.5564 17.0665C62.949 16.8087 63.229 16.4943 63.3963 16.1233C63.5637 15.7524 63.5985 15.3435 63.5008 14.8967C63.3812 14.3496 63.1651 13.9288 62.8522 13.6341C62.5375 13.3303 62.1468 13.1386 61.6804 13.0591C61.2231 12.9775 60.7073 12.9995 60.1328 13.1251L57.6709 13.6632L59.7636 23.2371L62.3623 22.6691C62.9823 22.5336 63.512 22.3127 63.9514 22.0065C64.398 21.6892 64.7177 21.2944 64.9107 20.8223C65.1108 20.3391 65.1421 19.783 65.0046 19.1538C64.9089 18.7162 64.7441 18.3557 64.5102 18.0724C64.2764 17.7892 63.9871 17.5801 63.6423 17.4453C63.3047 17.2994 62.9289 17.2191 62.5149 17.2045C62.1009 17.1899 61.6614 17.2334 61.1964 17.3351L59.5141 17.7028L59.6546 18.3456L61.3369 17.9779C61.6469 17.9101 61.9385 17.8894 62.2118 17.9156C62.483 17.9328 62.7267 17.9989 62.943 18.1141C63.1683 18.2272 63.3561 18.3868 63.5062 18.5928C63.6563 18.7989 63.7633 19.0478 63.8271 19.3395C63.9128 19.7316 63.8943 20.0844 63.7718 20.3978C63.6583 20.7092 63.458 20.9727 63.1707 21.1883C62.8926 21.402 62.5484 21.5537 62.1381 21.6434L60.702 21.9573L59.0577 14.4349L60.357 14.1509C60.8403 14.0452 61.2694 14.0852 61.6443 14.2707C62.0173 14.4472 62.2536 14.7633 62.3532 15.2192C62.419 15.5201 62.4019 15.7914 62.3018 16.033C62.2018 16.2746 62.036 16.478 61.8046 16.6432C61.5733 16.8084 61.298 16.9259 60.9789 16.9957L59.4334 17.3335L59.5739 17.9763Z" fill="#F0A984"/>
<path d="M70.1847 16.1427C70.179 15.4054 70.3326 14.7462 70.6454 14.1651C70.9676 13.584 71.4074 13.1232 71.9648 12.7829C72.5222 12.4426 73.1555 12.2697 73.8649 12.2642C74.5835 12.2587 75.2194 12.4218 75.7727 12.7535C76.3353 13.0852 76.7775 13.5391 77.0992 14.1153C77.4304 14.6914 77.5988 15.3482 77.6045 16.0855C77.6102 16.8228 77.4519 17.482 77.1297 18.0632C76.8169 18.6443 76.3817 19.105 75.8244 19.4453C75.2763 19.7855 74.6429 19.9584 73.9243 19.964C73.215 19.9695 72.579 19.8064 72.0165 19.4747C71.4539 19.143 71.007 18.6891 70.6759 18.113C70.3541 17.5368 70.1904 16.8801 70.1847 16.1427ZM68.9247 16.1525C68.9302 16.8618 69.0567 17.5235 69.3041 18.1376C69.5608 18.7516 69.9149 19.2856 70.3665 19.7395C70.8179 20.184 71.348 20.5346 71.9566 20.7912C72.5652 21.0385 73.2242 21.1594 73.9335 21.154C74.6521 21.1484 75.3091 21.0173 75.9045 20.7607C76.5091 20.4947 77.0337 20.136 77.4783 19.6845C77.9227 19.2238 78.2639 18.6845 78.5018 18.0666C78.749 17.4487 78.8699 16.785 78.8644 16.0757C78.8589 15.3571 78.7278 14.6954 78.4711 14.0907C78.2237 13.4766 77.8743 12.9473 77.4228 12.5028C76.9713 12.0489 76.4412 11.6983 75.8326 11.451C75.2333 11.1943 74.5743 11.0687 73.8557 11.0743C73.1464 11.0797 72.4894 11.2155 71.8848 11.4815C71.2801 11.7382 70.7555 12.0969 70.311 12.5577C69.8665 13.0091 69.5206 13.5438 69.2734 14.1617C69.0354 14.7702 68.9192 15.4338 68.9247 16.1525Z" fill="#F0A984"/>
<path d="M91.2969 14.1584L89.3788 22.6238L90.5394 22.8868L92.705 13.329L85.1271 11.612L82.9615 21.1698L84.1221 21.4327L86.0402 12.9673L91.2969 14.1584Z" fill="#F0A984"/>
<path d="M98.4637 15.0351L94.4451 23.9732L95.5305 24.4612L99.5491 15.5231L98.4637 15.0351ZM98.6046 16.3264L100.431 17.1474C101.009 17.4076 101.414 17.7586 101.646 18.2002C101.889 18.6372 101.887 19.1323 101.638 19.6857C101.393 20.2305 101.024 20.561 100.532 20.6774C100.048 20.7975 99.5168 20.7275 98.9379 20.4672L97.112 19.6463L96.6527 20.6678L98.4786 21.4887C99.0575 21.749 99.6203 21.8741 100.167 21.8642C100.726 21.8495 101.228 21.7015 101.672 21.42C102.128 21.1339 102.478 20.7184 102.723 20.1736C102.972 19.6203 103.05 19.0824 102.958 18.5598C102.874 18.0411 102.65 17.572 102.286 17.1525C101.934 16.7283 101.469 16.3861 100.89 16.1258L99.0639 15.3049L98.6046 16.3264Z" fill="#F0A984"/>
<path d="M107.188 24.5869C107.624 23.9922 108.141 23.5554 108.739 23.2762C109.344 23.0027 109.972 22.8959 110.622 22.956C111.273 23.0161 111.884 23.2558 112.456 23.6751C113.036 24.1 113.448 24.6107 113.694 25.2073C113.947 25.8093 114.03 26.4375 113.944 27.0918C113.865 27.7517 113.608 28.3789 113.172 28.9736C112.736 29.5683 112.215 30.0024 111.61 30.276C111.012 30.5551 110.388 30.6646 109.737 30.6045C109.095 30.55 108.483 30.3103 107.904 29.8854C107.332 29.466 106.919 28.9553 106.666 28.3533C106.413 27.7512 106.326 27.1202 106.405 26.4604C106.491 25.8061 106.752 25.1816 107.188 24.5869ZM106.171 23.842C105.752 24.4141 105.458 25.0203 105.29 25.6606C105.129 26.3064 105.094 26.9461 105.185 27.5798C105.281 28.206 105.497 28.8038 105.832 29.3733C106.172 29.9352 106.628 30.4258 107.2 30.8452C107.78 31.27 108.385 31.5574 109.016 31.7073C109.66 31.8552 110.295 31.8809 110.921 31.7845C111.552 31.6805 112.148 31.4518 112.708 31.0984C113.276 30.7506 113.769 30.2906 114.188 29.7185C114.613 29.1389 114.903 28.53 115.059 27.8917C115.227 27.2514 115.263 26.6182 115.167 25.992C115.076 25.3583 114.86 24.7605 114.52 24.1986C114.193 23.6346 113.739 23.1403 113.16 22.7154C112.587 22.296 111.98 22.0124 111.336 21.8645C110.697 21.7091 110.062 21.6834 109.431 21.7874C108.805 21.8838 108.208 22.106 107.64 22.4538C107.086 22.7997 106.596 23.2624 106.171 23.842Z" fill="#F0A984"/>
<path d="M118.066 33.093C118.644 32.5905 119.257 32.279 119.907 32.1586C120.57 32.0391 121.206 32.0797 121.814 32.2805C122.422 32.4814 122.937 32.8246 123.36 33.3103C123.667 33.6623 123.9 34.0224 124.06 34.3907C124.225 34.766 124.328 35.1469 124.368 35.5333C124.414 35.9136 124.402 36.2832 124.331 36.6422L125.513 35.6126C125.518 35.0638 125.428 34.5482 125.243 34.0657C125.058 33.5832 124.73 33.071 124.258 32.5289C123.81 32.0151 123.296 31.6156 122.713 31.3306C122.144 31.0464 121.54 30.8856 120.901 30.848C120.269 30.8043 119.638 30.8896 119.008 31.104C118.378 31.3185 117.788 31.6647 117.239 32.1427C116.69 32.6207 116.266 33.157 115.967 33.7516C115.668 34.3461 115.493 34.9625 115.442 35.6007C115.398 36.2327 115.474 36.8532 115.67 37.4622C115.88 38.072 116.208 38.6339 116.655 39.1478C117.127 39.6898 117.589 40.0856 118.042 40.3352C118.494 40.5848 118.993 40.745 119.537 40.8157L120.719 39.7861C120.354 39.8071 119.983 39.7715 119.605 39.6793C119.235 39.5809 118.876 39.4237 118.527 39.2077C118.184 38.9988 117.859 38.7184 117.553 38.3664C117.13 37.8807 116.861 37.3229 116.746 36.6931C116.631 36.0633 116.678 35.4282 116.887 34.7877C117.103 34.1543 117.496 33.5894 118.066 33.093Z" fill="#F0A984"/>
</svg>
