<svg width="121" height="25" viewBox="0 0 121 25" fill="none" xmlns="http://www.w3.org/2000/svg">
<path fill-rule="evenodd" clip-rule="evenodd" d="M0 12.5C0 19.3908 5.74233 25 12.8032 25C19.8598 25 25.6021 19.3908 25.6021 12.5C25.6021 5.60845 19.8598 0 12.8032 0C5.7416 0 0 5.60916 0 12.5ZM52.0979 19.5845C49.543 19.5845 47.5695 17.6958 47.5695 15.1655C47.5695 12.5176 49.4045 10.631 52.0769 10.631C54.709 10.631 56.7654 12.7331 56.7654 15.262C56.7654 17.8711 54.6686 19.5845 52.0979 19.5845ZM108.679 19.388V13.181L106.305 19.388H105.963L103.494 13.181V19.388H102.095V12.3838C102.095 11.2725 102.612 10.6303 103.77 10.6303C105.168 10.6303 105.388 11.0958 105.684 11.8169L106.86 14.5824L108.001 11.8169C108.317 11.0387 108.836 10.6303 109.735 10.6303C110.97 10.6303 111.529 11.1951 111.529 12.3838V19.388H108.679ZM97.5236 15.8472H95.6792V19.388H92.9462V10.7331H97.2914C99.0449 10.7331 100.944 11.4866 100.944 13.3676C100.945 15.3268 99.2194 15.8472 97.5236 15.8472ZM96.4157 11.8627H95.6792V14.7183H96.3991C97.2914 14.7183 98.2103 14.4338 98.2103 13.3817C98.2103 12.2908 97.3621 11.8627 96.4157 11.8627ZM118.009 19.388L117.49 17.7549H114.381L113.821 19.388H112.446L114.997 12.088C115.274 11.2725 115.856 10.6303 116.791 10.6303C117.709 10.6303 118.226 11.2908 118.509 12.088L121 19.388H118.009ZM116.015 12.9655L114.776 16.5866H117.157L116.015 12.9655ZM88.9631 19.388L88.4445 17.7549H85.3335L84.7767 19.388H83.4033L85.9531 12.088C86.233 11.2725 86.81 10.6303 87.7477 10.6303C88.6631 10.6303 89.1839 11.2908 89.4608 12.088L91.9551 19.388H88.9631ZM86.9666 12.9655L85.7281 16.5866H88.1055L86.9666 12.9655ZM77.477 7.54085C77.477 7.54085 77.1452 7.54085 76.9584 7.54085C76.9584 7.29507 76.9584 6.23662 76.9584 6.23662H76.7954H73.895C73.895 6.23662 73.895 7.29507 73.895 7.54085C73.7024 7.54085 73.3692 7.54085 73.3692 7.54085C70.3 7.54085 66.9813 9.55845 66.9813 12.8183C66.9813 16.3754 70.2741 18.2908 73.3692 18.2908C73.3692 18.2908 73.7024 18.2908 73.895 18.2908C73.895 18.5261 73.895 19.4014 73.895 19.4014H76.9577C76.9577 19.4014 76.9577 18.5261 76.9577 18.2908C77.1445 18.2908 77.4763 18.2908 77.4763 18.2908C80.5743 18.2908 83.8649 16.3746 83.8649 12.8183C83.8664 9.55845 80.5505 7.54085 77.477 7.54085ZM73.5942 17.1366C71.3748 17.1366 70.0497 14.9423 70.0497 12.8176C70.0497 10.819 71.3041 8.69296 73.6382 8.69296C73.6382 8.69296 73.771 8.69296 73.8958 8.69296C73.8958 8.99366 73.8958 16.8373 73.8958 17.1366C73.7544 17.1366 73.5942 17.1366 73.5942 17.1366ZM76.9584 8.69296C77.0803 8.69296 77.213 8.69296 77.213 8.69296C79.5436 8.69296 80.8001 10.819 80.8001 12.8176C80.8001 14.9423 79.4743 17.1366 77.257 17.1366C77.257 17.1366 77.0947 17.1366 76.9591 17.1366C76.9584 16.8373 76.9584 8.99366 76.9584 8.69296ZM43.792 6.78521C42.7173 6.78521 41.7644 7.57606 41.3706 8.80211C41.3706 8.80211 39.8154 13.557 39.6315 14.119C39.4346 13.5627 37.7503 8.85282 37.7503 8.85282C37.2995 7.60352 36.8804 6.78521 35.2048 6.78521C33.1556 6.78521 32.8959 8.09507 32.8959 9.23169V19.381H34.6617V9.28521C34.6617 9.11901 34.6711 9.04296 34.6819 9.00916C34.6884 9.00916 34.7035 9.01197 34.7064 9.01197C34.7396 9.04296 34.8146 9.2669 34.8673 9.4169L37.9328 18.5359C38.1355 19.1585 38.4002 19.3803 38.9463 19.3803C39.6156 19.3803 39.8241 19.2655 40.1443 18.2063L42.5376 10.7211C42.8175 9.82465 43.0599 9.0507 43.1782 9.00916L43.1811 9.00775C43.3837 9.00775 43.4797 9.00775 43.4797 9.3669V19.3803H46.4363V9.25775C46.4356 7.68732 45.4762 6.78521 43.792 6.78521ZM62.2719 19.5845C59.8577 19.5845 57.8236 17.969 57.8236 15.1465C57.8236 12.7901 59.5367 10.6303 62.2481 10.6303C63.9064 10.6303 65.103 11.2908 65.9167 12.6739L64.7445 13.3141C64.4055 12.6345 63.8075 11.8162 62.9485 11.8162C61.2145 11.8162 60.9959 13.9204 60.9959 15.1838C60.9959 16.4683 61.2145 18.2796 62.9485 18.2796C63.985 18.2796 64.6017 17.3831 64.9602 16.5465L66.0551 17.131C65.3403 18.4732 64.324 19.5845 62.2719 19.5845ZM52.0769 11.8162C50.9604 11.8162 50.7411 13.8415 50.7411 15.1465C50.7411 16.0613 50.7577 18.4739 52.2782 18.4739C53.4755 18.4739 53.6335 16.1585 53.6335 15.2437C53.6335 13.9211 53.5722 11.8162 52.0769 11.8162ZM6.14049 20.9239C6.14049 20.9239 5.8159 20.8993 5.71275 20.5965C11.1269 10.9218 22.5416 11.8261 23.2975 11.8613C23.4684 13.7754 22.7125 16.1894 22.0583 17.0641C12.2601 15.1169 6.14049 20.9239 6.14049 20.9239ZM8.63765 8.71479C8.63765 8.71479 10.0925 7.51056 11.5178 7.26268C11.6174 8.33239 11.3664 15.3789 4.97918 18.3106C4.65027 18.4254 4.64089 18.1155 4.86377 17.9254C5.08666 17.7331 8.40034 15.5923 8.63765 8.71479ZM3.95781 17.9585C3.95781 17.9585 3.64477 18.0324 3.60726 17.7584C0.935535 3.72606 12.5846 1.78732 15.8421 2.18803C16.0347 2.30282 15.9726 4.40423 15.2333 5.67606C3.31296 6.73944 4.00975 17.2232 3.95781 17.9585ZM0.646291 12.5C0.646291 5.95775 6.09937 0.632394 12.8032 0.632394C19.5056 0.632394 24.9543 5.95775 24.9543 12.5C24.9543 19.0437 19.5056 24.3648 12.8032 24.3648C6.09937 24.3655 0.646291 19.0437 0.646291 12.5Z" fill="#A1D4B6"/>
</svg>
