<svg width="172" height="172" viewBox="0 0 172 172" fill="none" xmlns="http://www.w3.org/2000/svg">
<path d="M160.652 91.1946L160.537 92.379L159.422 92.2712C159.324 93.0963 159.09 93.8191 158.72 94.4397C158.351 95.0604 157.869 95.5296 157.276 95.8473C156.692 96.1659 156.014 96.2879 155.243 96.2133C154.472 96.1388 153.826 95.8887 153.305 95.4632C152.792 95.0386 152.414 94.4864 152.171 93.8064C151.927 93.1265 151.836 92.3722 151.897 91.5436L150.783 91.4358L150.897 90.2513L152.012 90.3591C152.11 89.5341 152.344 88.8113 152.714 88.1906C153.083 87.57 153.56 87.1003 154.144 86.7817C154.737 86.464 155.42 86.3425 156.191 86.417C156.962 86.4916 157.603 86.7412 158.116 87.1658C158.637 87.5913 159.02 88.144 159.263 88.8239C159.507 89.5039 159.598 90.2582 159.537 91.0868L160.652 91.1946ZM155.358 95.0289C156.194 95.1097 156.854 94.8782 157.338 94.3342C157.821 93.7996 158.121 93.0737 158.238 92.1567L153.082 91.6581C153.021 92.5805 153.176 93.3504 153.548 93.9677C153.918 94.5943 154.522 94.948 155.358 95.0289ZM156.076 87.6015C155.24 87.5206 154.58 87.7476 154.097 88.2822C153.614 88.8262 153.313 89.5566 153.196 90.4737L158.352 90.9722C158.413 90.0498 158.259 89.2753 157.888 88.6487C157.516 88.0314 156.912 87.6823 156.076 87.6015Z" fill="#7FBF9E"/>
<path d="M147.882 105.998L151.056 105.649L152.189 101.867L149.731 99.8292L150.113 98.5552L158.663 105.867L147.5 107.272L147.882 105.998ZM156.075 105.092L153.126 102.644L152.266 105.514L156.075 105.092Z" fill="#7FBF9E"/>
<path d="M154.885 115.519L153.696 117.899C153.412 118.466 153.051 118.917 152.613 119.251C152.179 119.598 151.701 119.803 151.18 119.865C150.654 119.936 150.119 119.836 149.577 119.565C149.042 119.298 148.642 118.931 148.374 118.463C148.111 118.009 147.984 117.501 147.992 116.942C148.004 116.395 148.153 115.838 148.436 115.27L149.093 113.955L145.587 112.203L146.119 111.139L154.885 115.519ZM152.694 117.398L153.351 116.083L150.095 114.456L149.438 115.771C149.154 116.339 149.063 116.867 149.163 117.355C149.259 117.852 149.574 118.234 150.109 118.501C150.651 118.772 151.146 118.795 151.593 118.569C152.043 118.356 152.411 117.966 152.694 117.398Z" fill="#7FBF9E"/>
<path d="M146.114 125.253L141.27 120.68L141.987 119.73L149.479 126.884L141.453 125.732L144.753 133.139L135.826 127.884L136.543 126.935L142.265 130.346L139.633 124.356L146.114 125.253Z" fill="#7FBF9E"/>
<path d="M127.921 135.698L130.802 137.076L133.76 134.462L132.747 131.434L133.744 130.554L137.147 141.278L126.924 136.579L127.921 135.698ZM135.358 139.253L134.145 135.617L131.9 137.601L135.358 139.253Z" fill="#7FBF9E"/>
<path d="M128.823 147.486L127.81 148.11L125.6 144.522L124.531 150.129L123.28 150.899L124.484 144.765L117.962 142.665L119.214 141.894L125.167 143.818L122.671 139.765L123.684 139.141L128.823 147.486Z" fill="#7FBF9E"/>
<path d="M117.353 148.805C117.616 149.474 117.745 150.136 117.74 150.789C117.731 151.454 117.599 152.078 117.346 152.658C117.096 153.248 116.735 153.77 116.262 154.227C115.793 154.692 115.228 155.054 114.568 155.313C113.899 155.575 113.238 155.694 112.587 155.669C111.93 155.656 111.31 155.518 110.726 155.256C110.145 155.003 109.629 154.634 109.178 154.149C108.722 153.676 108.363 153.106 108.1 152.437C107.841 151.776 107.716 151.113 107.726 150.448C107.726 149.786 107.852 149.16 108.102 148.571C108.355 147.99 108.717 147.467 109.186 147.002C109.65 146.55 110.216 146.192 110.885 145.929C111.546 145.67 112.204 145.547 112.861 145.56C113.521 145.582 114.142 145.719 114.722 145.973C115.306 146.235 115.828 146.606 116.288 147.088C116.739 147.573 117.094 148.145 117.353 148.805ZM116.18 149.266C115.911 148.579 115.523 148.025 115.016 147.602C114.5 147.183 113.921 146.919 113.277 146.811C112.633 146.702 111.98 146.778 111.32 147.037C110.651 147.3 110.122 147.688 109.732 148.202C109.333 148.719 109.092 149.305 109.008 149.96C108.915 150.618 109.004 151.29 109.273 151.976C109.542 152.663 109.935 153.216 110.45 153.635C110.957 154.058 111.532 154.323 112.176 154.431C112.812 154.543 113.464 154.467 114.133 154.205C114.793 153.946 115.323 153.558 115.721 153.04C116.12 152.523 116.365 151.935 116.458 151.277C116.542 150.623 116.449 149.952 116.18 149.266Z" fill="#7FBF9E"/>
<path d="M104.548 158.681L103.376 158.891L102.686 155.032L97.3802 155.981L98.0704 159.84L96.899 160.05L95.1735 150.403L96.3449 150.193L97.183 154.879L102.489 153.93L101.651 149.244L102.822 149.035L104.548 158.681Z" fill="#7FBF9E"/>
<path d="M83.8937 150.985L85.117 153.935L89.0649 153.965L90.3335 151.035L91.6635 151.045L87.0342 161.3L82.5638 150.975L83.8937 150.985ZM87.0551 158.598L88.5803 155.082L85.5843 155.058L87.0551 158.598Z" fill="#7FBF9E"/>
<path d="M70.3892 149.171L78.073 150.728L78.3788 149.219L79.4079 149.428L78.8796 152.035L77.6447 151.784L72.1874 160.035L70.3726 150.311L69.1377 150.06L69.6659 147.453L70.695 147.662L70.3892 149.171ZM72.7241 157.387L76.4236 151.537L71.5937 150.558L72.7241 157.387Z" fill="#7FBF9E"/>
<path d="M62.8327 146.62C63.5408 146.911 64.095 147.269 64.4953 147.695C64.8869 148.118 65.1301 148.571 65.2248 149.053C65.316 149.545 65.266 150.023 65.0749 150.49L63.9608 150.033C64.0911 149.592 64.0419 149.159 63.8132 148.732C63.5845 148.305 63.1161 147.947 62.408 147.657C61.6911 147.363 61.1042 147.294 60.647 147.45C60.1899 147.605 59.8604 147.929 59.6587 148.421C59.4286 148.983 59.4902 149.497 59.8433 149.965C60.1928 150.441 60.726 150.826 61.4428 151.119L61.0447 152.091C60.3279 151.797 59.7157 151.728 59.2083 151.883C58.7009 152.038 58.3605 152.328 58.1871 152.751C58.0101 153.183 58.0136 153.592 58.1975 153.981C58.3814 154.369 58.767 154.683 59.3543 154.924C59.907 155.15 60.4196 155.204 60.892 155.085C61.3523 154.971 61.6638 154.715 61.8266 154.318L62.876 154.748C62.6813 155.223 62.3905 155.588 62.0036 155.843C61.608 156.094 61.1493 156.229 60.6275 156.247C60.0934 156.27 59.5371 156.164 58.9585 155.926C58.3539 155.679 57.8818 155.354 57.542 154.953C57.2022 154.551 56.99 154.121 56.9055 153.663C56.821 153.205 56.8672 152.76 57.0441 152.328C57.2282 151.879 57.55 151.536 58.0095 151.301C58.4604 151.062 58.9943 150.953 59.6112 150.974C59.0876 150.578 58.7223 150.116 58.5153 149.587C58.2997 149.055 58.3228 148.469 58.5847 147.83C58.8997 147.061 59.436 146.565 60.1936 146.341C60.9512 146.117 61.8309 146.21 62.8327 146.62Z" fill="#7FBF9E"/>
<path d="M53.3739 148.153C52.9837 148.757 52.522 149.247 51.9888 149.625C51.4427 150.005 50.8599 150.262 50.2404 150.395C49.6159 150.536 48.9805 150.547 48.3342 150.429C47.6829 150.319 47.0594 150.072 46.4637 149.687C45.8602 149.296 45.3786 148.829 45.0189 148.286C44.6463 147.745 44.3961 147.16 44.2682 146.533C44.1353 145.914 44.1342 145.279 44.2649 144.63C44.3827 143.984 44.6367 143.359 45.0269 142.756C45.4121 142.16 45.8777 141.672 46.4238 141.292C46.9621 140.906 47.5435 140.643 48.168 140.502C48.7875 140.369 49.4229 140.358 50.0742 140.468C50.7127 140.58 51.3336 140.832 51.9371 141.222C52.5328 141.607 53.0169 142.07 53.3895 142.611C53.757 143.16 54.0073 143.744 54.1402 144.364C54.2681 144.991 54.2706 145.632 54.1477 146.286C54.017 146.935 53.7591 147.557 53.3739 148.153ZM52.3158 147.469C52.7162 146.85 52.9403 146.211 52.988 145.553C53.0279 144.89 52.9039 144.265 52.6161 143.679C52.3283 143.092 51.8866 142.607 51.2909 142.221C50.6875 141.831 50.0633 141.628 49.4184 141.611C48.7657 141.589 48.149 141.735 47.5683 142.048C46.9798 142.357 46.4854 142.821 46.085 143.44C45.6846 144.059 45.4645 144.7 45.4246 145.364C45.3769 146.022 45.4969 146.644 45.7847 147.23C46.0647 147.811 46.5064 148.297 47.1099 148.687C47.7055 149.073 48.3297 149.276 48.9824 149.298C49.6351 149.32 50.2557 149.177 50.8443 148.868C51.4249 148.554 51.9155 148.088 52.3158 147.469Z" fill="#7FBF9E"/>
<path d="M38.0077 143.535L36.0663 141.717C35.6031 141.283 35.274 140.808 35.0788 140.293C34.8705 139.778 34.8107 139.262 34.8994 138.744C34.9813 138.22 35.2296 137.736 35.6443 137.293C36.0526 136.857 36.5189 136.578 37.0432 136.455C37.5542 136.333 38.0766 136.355 38.6103 136.523C39.1309 136.691 39.6228 136.991 40.086 137.425L41.1588 138.43L43.8386 135.569L44.7071 136.383L38.0077 143.535ZM36.832 140.899L37.9049 141.904L40.3932 139.248L39.3203 138.243C38.8571 137.809 38.3772 137.57 37.8805 137.527C37.3771 137.478 36.9212 137.671 36.5128 138.107C36.0981 138.55 35.9351 139.017 36.0238 139.509C36.0994 140.002 36.3688 140.466 36.832 140.899Z" fill="#7FBF9E"/>
<path d="M11.213 83.4423L11.2864 82.2545L12.4042 82.3236C12.4741 81.4957 12.6829 80.7652 13.0306 80.1321C13.3784 79.499 13.8432 79.0134 14.4252 78.6754C14.9978 78.3367 15.6707 78.1913 16.4439 78.2391C17.2171 78.2869 17.8717 78.5143 18.4076 78.9215C18.9341 79.3281 19.331 79.8669 19.5981 80.538C19.8652 81.2091 19.9825 81.9598 19.9498 82.79L21.0677 82.8591L20.9943 84.0469L19.8764 83.9778C19.8065 84.8057 19.5977 85.5362 19.25 86.1693C18.9023 86.8024 18.4421 87.2882 17.8695 87.6269C17.2875 87.965 16.6099 88.1101 15.8367 88.0623C15.0636 88.0145 14.4137 87.7873 13.8871 87.3807C13.3512 86.9736 12.9497 86.4344 12.6826 85.7634C12.4155 85.0923 12.2982 84.3416 12.3308 83.5114L11.213 83.4423ZM16.3705 79.4268C15.5321 79.375 14.8805 79.6293 14.4157 80.1897C13.9515 80.7407 13.6769 81.4765 13.592 82.397L18.7621 82.7166C18.7912 81.7926 18.6093 81.0286 18.2165 80.4246C17.8242 79.8112 17.2089 79.4786 16.3705 79.4268ZM15.9102 86.8746C16.7486 86.9264 17.3999 86.6768 17.8641 86.1257C18.3289 85.5653 18.6037 84.8249 18.6887 83.9043L13.5186 83.5848C13.4895 84.5087 13.6711 85.2774 14.0633 85.8908C14.4561 86.4948 15.0718 86.8228 15.9102 86.8746Z" fill="#7FBF9E"/>
<path d="M23.4671 68.1467L20.3069 68.6043L19.3032 72.4226L21.8299 74.3751L21.4917 75.6614L12.6965 68.6449L23.8052 66.8604L23.4671 68.1467ZM15.3098 69.3318L18.341 71.6775L19.1027 68.7799L15.3098 69.3318Z" fill="#7FBF9E"/>
<path d="M16.1404 58.8526L17.2492 56.4348C17.5137 55.8579 17.8594 55.3952 18.2862 55.0467C18.7083 54.6858 19.1791 54.4653 19.6985 54.3852C20.2217 54.2965 20.759 54.3787 21.3105 54.6316C21.8534 54.8806 22.2663 55.2342 22.549 55.6924C22.8271 56.1382 22.9715 56.6408 22.9819 57.2001C22.9878 57.747 22.8585 58.3089 22.594 58.8858L21.9812 60.222L25.5444 61.856L25.0484 62.9377L16.1404 58.8526ZM18.2672 56.9016L17.6545 58.2378L20.9631 59.7551L21.5759 58.4189C21.8405 57.842 21.9145 57.3112 21.7979 56.8265C21.6852 56.3333 21.3574 55.9622 20.8144 55.7132C20.263 55.4604 19.7679 55.4541 19.3291 55.6944C18.8857 55.9223 18.5318 56.3247 18.2672 56.9016Z" fill="#7FBF9E"/>
<path d="M24.4826 48.9464L29.4744 53.358L28.7885 54.3304L21.0655 47.4272L29.1253 48.3148L25.5842 41.0204L34.679 45.9788L33.9931 46.9512L28.1621 43.7294L30.9901 49.6301L24.4826 48.9464Z" fill="#7FBF9E"/>
<path d="M42.3363 37.8315L39.4124 36.5481L36.5408 39.2575L37.6521 42.251L36.6848 43.1637L32.9326 32.5567L43.3037 36.9188L42.3363 37.8315ZM34.7869 34.522L36.1184 38.1162L38.2976 36.0601L34.7869 34.522Z" fill="#7FBF9E"/>
<path d="M41.0724 26.0287L42.0645 25.3716L44.3915 28.8849L45.2743 23.2457L46.4999 22.4339L45.4989 28.6048L52.0865 30.4884L50.8609 31.3001L44.8476 29.5735L47.476 33.542L46.4839 34.1991L41.0724 26.0287Z" fill="#7FBF9E"/>
<path d="M52.2827 24.4011C51.9978 23.7413 51.8465 23.0849 51.8288 22.4317C51.8159 21.7663 51.9264 21.1391 52.1601 20.5502C52.3901 19.9528 52.7336 19.4181 53.1907 18.9463C53.644 18.4659 54.1963 18.085 54.8475 17.8039C55.5073 17.519 56.1632 17.3781 56.8152 17.3812C57.4721 17.3721 58.0968 17.4886 58.6894 17.7309C59.2783 17.9646 59.8062 18.3161 60.2732 18.7855C60.745 19.2425 61.1234 19.801 61.4083 20.4607C61.6895 21.112 61.8365 21.7703 61.8493 22.4357C61.8707 23.0974 61.7664 23.727 61.5364 24.3245C61.3027 24.9134 60.9592 25.448 60.5058 25.9285C60.0574 26.3966 59.5032 26.7731 58.8434 27.058C58.1922 27.3392 57.5382 27.4844 56.8813 27.4935C56.2207 27.4941 55.596 27.3775 55.0071 27.1438C54.4145 26.9015 53.8805 26.5476 53.4049 26.082C52.9379 25.6126 52.5639 25.0523 52.2827 24.4011ZM53.4394 23.9016C53.7317 24.5786 54.1382 25.1198 54.659 25.5252C55.1883 25.927 55.7766 26.1711 56.4239 26.2576C57.0712 26.3441 57.7205 26.2467 58.3717 25.9655C59.0315 25.6806 59.5475 25.2748 59.9199 24.748C60.3008 24.2176 60.5223 23.6238 60.5842 22.9667C60.6547 22.306 60.5438 21.6371 60.2515 20.9602C59.9592 20.2833 59.5484 19.744 59.0191 19.3422C58.4984 18.9367 57.9144 18.6908 57.2671 18.6043C56.6283 18.5141 55.9791 18.6115 55.3193 18.8964C54.6681 19.1776 54.152 19.5834 53.7711 20.1138C53.3901 20.6443 53.1644 21.2399 53.0939 21.9007C53.032 22.5577 53.1471 23.2247 53.4394 23.9016Z" fill="#7FBF9E"/>
<path d="M64.9698 13.9951L66.1333 13.7454L66.9558 17.5781L72.2258 16.4472L71.4033 12.6145L72.5668 12.3648L74.623 21.9467L73.4595 22.1964L72.4608 17.5423L67.1907 18.6732L68.1894 23.3272L67.0259 23.5769L64.9698 13.9951Z" fill="#7FBF9E"/>
<path d="M85.482 20.9896L84.1571 18.0844L80.2105 18.191L79.0444 21.1636L77.7149 21.1996L81.9852 10.7904L86.8116 20.9537L85.482 20.9896ZM82.0582 13.4914L80.6561 17.0586L83.651 16.9776L82.0582 13.4914Z" fill="#7FBF9E"/>
<path d="M98.9739 22.2549L91.241 20.9631L90.9873 22.4821L89.9516 22.3091L90.3899 19.6854L91.6327 19.893L96.8028 11.4596L98.9513 21.1156L100.194 21.3232L99.7558 23.9468L98.7201 23.7738L98.9739 22.2549ZM96.3577 14.1247L92.8617 20.0983L97.7223 20.9103L96.3577 14.1247Z" fill="#7FBF9E"/>
<path d="M106.991 24.5874C106.274 24.3212 105.708 23.9819 105.293 23.5693C104.888 23.16 104.629 22.7158 104.518 22.2366C104.411 21.7487 104.444 21.2685 104.62 20.7959L105.749 21.2147C105.633 21.6597 105.697 22.0915 105.94 22.5101C106.183 22.9287 106.663 23.2711 107.381 23.5373C108.107 23.8067 108.696 23.856 109.148 23.685C109.599 23.5141 109.918 23.1793 110.103 22.6805C110.314 22.1117 110.235 21.5996 109.866 21.1443C109.501 20.6803 108.955 20.3135 108.228 20.0441L108.594 19.0597C109.32 19.3291 109.934 19.3777 110.436 19.2055C110.938 19.0333 111.268 18.7328 111.427 18.304C111.59 17.8665 111.572 17.4569 111.375 17.0753C111.179 16.6936 110.783 16.3924 110.188 16.1717C109.627 15.964 109.113 15.9276 108.645 16.0625C108.189 16.1919 107.886 16.4579 107.737 16.8604L106.674 16.466C106.852 15.9848 107.131 15.6102 107.509 15.3423C107.896 15.0776 108.35 14.9275 108.87 14.8917C109.403 14.8505 109.963 14.9386 110.549 15.1561C111.162 15.3834 111.645 15.6919 111.998 16.0817C112.351 16.4715 112.578 16.894 112.677 17.3492C112.777 17.8044 112.746 18.2507 112.584 18.6882C112.415 19.1433 112.105 19.4961 111.654 19.7468C111.211 20.0007 110.681 20.1277 110.064 20.1277C110.601 20.5059 110.981 20.9557 111.206 21.4771C111.439 22.0017 111.436 22.5878 111.196 23.2353C110.907 24.0142 110.388 24.5283 109.638 24.7779C108.889 25.0274 108.006 24.9639 106.991 24.5874Z" fill="#7FBF9E"/>
<path d="M116.343 22.6726C116.713 22.0566 117.158 21.551 117.679 21.1559C118.212 20.7576 118.786 20.4818 119.401 20.3285C120.02 20.1671 120.655 20.1346 121.305 20.231C121.959 20.3194 122.591 20.5462 123.199 20.9115C123.815 21.2816 124.312 21.7324 124.689 22.264C125.079 22.7925 125.349 23.368 125.497 23.9908C125.651 24.6055 125.673 25.2394 125.564 25.8924C125.467 26.5422 125.234 27.1751 124.864 27.7912C124.499 28.3992 124.049 28.9024 123.516 29.3007C122.991 29.7038 122.419 29.986 121.799 30.1473C121.184 30.3007 120.55 30.3332 119.895 30.2448C119.253 30.1532 118.624 29.9224 118.008 29.5523C117.4 29.187 116.901 28.7402 116.511 28.2118C116.125 27.6754 115.856 27.0998 115.702 26.4851C115.554 25.8623 115.53 25.222 115.631 24.5642C115.741 23.9112 115.978 23.2807 116.343 22.6726ZM117.423 23.3215C117.043 23.9535 116.841 24.5993 116.815 25.2587C116.797 25.923 116.941 26.5433 117.248 27.1197C117.555 27.6961 118.013 28.1669 118.621 28.5322C119.237 28.9023 119.868 29.0851 120.513 29.0806C121.166 29.081 121.777 28.9148 122.347 28.5822C122.925 28.2544 123.404 27.7744 123.784 27.1424C124.163 26.5103 124.362 25.8621 124.38 25.1979C124.406 24.5384 124.266 23.9205 123.959 23.3441C123.66 22.7725 123.202 22.3017 122.586 21.9316C121.978 21.5663 121.347 21.3835 120.694 21.3832C120.041 21.3828 119.426 21.5466 118.848 21.8744C118.278 22.2071 117.803 22.6894 117.423 23.3215Z" fill="#7FBF9E"/>
<path d="M131.987 26.8387L133.987 28.5926C134.464 29.0111 134.808 29.4746 135.02 29.9832C135.245 30.491 135.322 31.0051 135.25 31.5257C135.186 32.0525 134.953 32.5439 134.553 33C134.159 33.4491 133.703 33.7435 133.183 33.8834C132.676 34.0224 132.153 34.017 131.614 33.8671C131.088 33.7164 130.587 33.4318 130.11 33.0133L129.005 32.044L126.42 34.9912L125.525 34.2065L131.987 26.8387ZM133.248 29.4346L132.143 28.4654L129.743 31.202L130.848 32.1713C131.325 32.5897 131.813 32.8124 132.311 32.8394C132.815 32.8724 133.265 32.6644 133.659 32.2153C134.059 31.7592 134.206 31.2866 134.101 30.7974C134.01 30.3074 133.725 29.8531 133.248 29.4346Z" fill="#7FBF9E"/>
<circle cx="22" cy="113" r="2" fill="#7FBF9E"/>
<circle cx="151" cy="57" r="2" fill="#7FBF9E"/>
</svg>
