<svg width="96" height="95" viewBox="0 0 96 95" fill="none" xmlns="http://www.w3.org/2000/svg">
<path d="M83.9609 49.976L78.6358 51.7699L82.9543 55.3651L77.2495 54.9355L77.0619 55.9401L85.9359 56.558L80.5622 52.1297L87.1721 49.9398L78.6733 47.3128L78.4857 48.3173L83.9609 49.976Z" fill="#7FBF9E"/>
<path d="M79.5715 61.739C80.1119 62.0691 80.5231 62.4799 80.8051 62.9715C81.083 63.4699 81.2197 63.9995 81.2153 64.5603C81.2109 65.1211 81.0499 65.6615 80.7324 66.1813C80.4107 66.708 80.0035 67.0979 79.5108 67.3511C79.0139 67.6111 78.4824 67.7279 77.9162 67.7014C77.3459 67.6818 76.7906 67.507 76.2502 67.177C75.7098 66.8469 75.3007 66.4327 75.0228 65.9343C74.7408 65.4427 74.602 64.9165 74.6064 64.3557C74.6066 63.8017 74.7676 63.2614 75.0893 62.7347C75.4068 62.2148 75.814 61.8249 76.3109 61.5649C76.8078 61.3049 77.3414 61.1847 77.9117 61.2043C78.4779 61.2307 79.0311 61.409 79.5715 61.739ZM80.1355 60.8156C79.6156 60.4981 79.0757 60.2904 78.5156 60.1925C77.9514 60.1015 77.4014 60.1178 76.8657 60.2414C76.3368 60.3692 75.8409 60.5969 75.3778 60.9245C74.9215 61.2563 74.5347 61.6822 74.2172 62.202C73.8955 62.7287 73.6933 63.2673 73.6106 63.8179C73.5306 64.3795 73.5545 64.9247 73.6823 65.4536C73.8169 65.9866 74.0556 66.4799 74.3985 66.9335C74.7371 67.3939 75.1664 67.7829 75.6862 68.1004C76.2129 68.4221 76.755 68.6263 77.3124 68.7132C77.8724 68.8111 78.4169 68.7961 78.9458 68.6683C79.4815 68.5447 79.9774 68.317 80.4337 67.9852C80.8926 67.6644 81.2829 67.2407 81.6045 66.714C81.9221 66.1941 82.1208 65.6534 82.2008 65.0918C82.2877 64.5344 82.2638 63.9892 82.1292 63.4561C82.0014 62.9273 81.7682 62.4326 81.4295 61.9722C81.0935 61.5228 80.6622 61.1373 80.1355 60.8156Z" fill="#7FBF9E"/>
<path d="M72.7381 71.7111C73.155 72.2191 73.407 72.7537 73.4942 73.3146C73.5802 73.8869 73.5294 74.4315 73.3418 74.9483C73.1543 75.4652 72.8467 75.899 72.4192 76.2499C72.1094 76.5041 71.7945 76.6952 71.4743 76.8231C71.148 76.9561 70.8185 77.0347 70.4858 77.0589C70.1582 77.0893 69.8413 77.0695 69.5349 76.9994L70.3892 78.0403C70.8601 78.0582 71.3049 77.9938 71.7237 77.8471C72.1425 77.7005 72.5904 77.4313 73.0675 77.0398C73.5198 76.6686 73.8756 76.2367 74.1348 75.744C74.3929 75.2625 74.5461 74.748 74.5943 74.2003C74.6477 73.6589 74.5902 73.1151 74.4219 72.5688C74.2536 72.0226 73.9711 71.5079 73.5745 71.0246C73.1779 70.5414 72.7281 70.1639 72.2252 69.8923C71.7224 69.6207 71.1977 69.4551 70.6511 69.3956C70.1096 69.3423 69.5751 69.3921 69.0475 69.5452C68.5188 69.7095 68.0283 69.9773 67.576 70.3485C67.0989 70.74 66.7476 71.1268 66.522 71.509C66.2965 71.8911 66.1465 72.3148 66.0722 72.7802L66.9265 73.8211C66.9175 73.507 66.9574 73.1891 67.046 72.8675C67.1397 72.5522 67.2836 72.2474 67.4777 71.9533C67.6656 71.6643 67.9145 71.3927 68.2243 71.1384C68.6518 70.7876 69.1373 70.5706 69.6808 70.4874C70.2243 70.4043 70.7683 70.4607 71.3128 70.6567C71.8511 70.8578 72.3262 71.2092 72.7381 71.7111Z" fill="#7FBF9E"/>
<path d="M62.6901 83.3145L59.8225 75.4023L58.8617 75.7505L61.7293 83.6627L62.6901 83.3145ZM57.7636 80.6243C57.597 80.1646 57.5694 79.7356 57.6807 79.3371C57.7948 78.9463 58.0229 78.5993 58.3649 78.2963C58.7097 78.0009 59.142 77.7589 59.662 77.5705L60.3741 77.3124C60.894 77.124 61.381 77.0327 61.835 77.0387C62.2917 77.0522 62.6891 77.1724 63.0271 77.3995C63.3679 77.634 63.6216 77.9811 63.7882 78.4408C63.9575 78.908 63.9851 79.337 63.871 79.7279C63.7569 80.1188 63.5275 80.462 63.1828 80.7574C62.8407 81.0604 62.4097 81.3061 61.8898 81.4946L61.1777 81.7527C60.6578 81.9411 60.1694 82.0286 59.7127 82.0151C59.2587 82.0091 58.8627 81.8926 58.5246 81.6656C58.1866 81.4386 57.9329 81.0915 57.7636 80.6243ZM56.8028 80.9725C57.035 81.613 57.3912 82.1019 57.8716 82.4394C58.3444 82.7795 58.8995 82.9705 59.537 83.0123C60.1697 83.0643 60.8326 82.9647 61.5259 82.7134L62.238 82.4553C62.9313 82.2041 63.5079 81.8544 63.9678 81.4064C64.423 80.9686 64.7269 80.4663 64.8795 79.8995C65.0246 79.3354 64.9811 78.7331 64.7489 78.0926C64.5195 77.4596 64.1671 76.9693 63.6915 76.6216C63.2112 76.2842 62.6547 76.0894 62.022 76.0374C61.3845 75.9956 60.7191 76.1004 60.0259 76.3516L59.3138 76.6097C58.6205 76.861 58.0463 77.2055 57.5911 77.6433C57.1312 78.0913 56.8287 78.5974 56.6836 79.1615C56.5337 79.7358 56.5734 80.3395 56.8028 80.9725Z" fill="#7FBF9E"/>
<path d="M51.9528 80.2818L47.5047 80.3333L47.8765 81.2909L51.6033 81.2477L51.9528 80.2818ZM49.799 84.2985L48.3172 80.9251L48.2182 80.6857L46.9586 77.8147L45.8165 77.8279L49.8259 86.6187L53.6307 77.7374L52.4886 77.7507L51.2726 80.7225L51.1789 80.94L49.799 84.2985Z" fill="#7FBF9E"/>
<path d="M40.2119 85.647L42.6582 77.5946L41.6804 77.2975L39.2341 85.35L40.2119 85.647ZM39.9508 84.5625L38.3058 84.0628C37.7843 83.9043 37.401 83.6497 37.1558 83.2987C36.9005 82.9531 36.8487 82.5311 37.0001 82.0326C37.1492 81.5418 37.4271 81.22 37.8337 81.0671C38.2327 80.9118 38.6929 80.9134 39.2144 81.0719L40.8594 81.5716L41.139 80.6513L39.494 80.1516C38.9725 79.9932 38.4794 79.9481 38.0147 80.0163C37.54 80.0899 37.1291 80.2708 36.7818 80.559C36.4246 80.8526 36.1714 81.2448 36.0223 81.7356C35.8709 82.2341 35.8631 82.7008 35.999 83.1358C36.1272 83.5685 36.3693 83.9436 36.7252 84.2611C37.0711 84.584 37.5048 84.8246 38.0262 84.983L39.6712 85.4828L39.9508 84.5625Z" fill="#7FBF9E"/>
<path d="M30.5186 79.312L31.1262 73.7258L26.0501 76.1358L28.8351 71.1385L28.0022 70.5465L23.7156 78.3411L29.9909 75.3231L29.2033 82.2416L35.1557 75.6312L34.3228 75.0391L30.5186 79.312Z" fill="#7FBF9E"/>
<path d="M23.0136 69.2422L20.4898 65.5791L19.9024 66.4218L22.0169 69.4909L23.0136 69.2422ZM18.4784 69.6951L20.4518 66.5835L20.5952 66.3679L22.2755 63.7209L21.6275 62.7804L16.5677 71.0116L26.0613 69.2156L25.4132 68.275L22.2684 68.9234L22.0356 68.967L18.4784 69.6951Z" fill="#7FBF9E"/>
<path d="M11.6956 48.2321L16.8505 45.9956L12.2443 42.7773L17.965 42.7244L18.0673 41.7076L9.17274 41.84L14.9007 45.7995L8.49894 48.5389L17.1889 50.44L17.2912 49.4232L11.6956 48.2321Z" fill="#7FBF9E"/>
<path d="M15.0283 36.2196C14.4619 35.9366 14.0173 35.5621 13.6946 35.0962C13.3755 34.6232 13.1943 34.1071 13.1512 33.5479C13.108 32.9887 13.2226 32.4367 13.4949 31.8918C13.7707 31.3397 14.1434 30.9167 14.6129 30.6226C15.086 30.3214 15.6057 30.16 16.172 30.1383C16.7419 30.1095 17.3101 30.2366 17.8765 30.5197C18.4429 30.8027 18.8857 31.1807 19.2048 31.6538C19.5275 32.1197 19.7105 32.6322 19.7536 33.1914C19.8004 33.7434 19.6858 34.2954 19.4099 34.8475C19.1376 35.3924 18.765 35.8155 18.2919 36.1167C17.8188 36.4179 17.2973 36.5829 16.7274 36.6117C16.1611 36.6334 15.5947 36.5027 15.0283 36.2196ZM14.5446 37.1876C15.0895 37.4598 15.6452 37.621 16.2115 37.6711C16.7814 37.7139 17.3281 37.6511 17.8513 37.4825C18.3675 37.3103 18.8423 37.0413 19.276 36.6756C19.7024 36.3063 20.0518 35.8492 20.3241 35.3043C20.5999 34.7522 20.7557 34.1984 20.7914 33.6428C20.8236 33.0764 20.7535 32.5352 20.5813 32.0191C20.402 31.4994 20.1223 31.0281 19.7422 30.6052C19.3658 30.1752 18.9051 29.824 18.3602 29.5517C17.8081 29.2759 17.2507 29.1183 16.6879 29.079C16.1216 29.029 15.5803 29.09 15.0642 29.2622C14.5409 29.4308 14.066 29.6998 13.6396 30.0691C13.2095 30.4276 12.8566 30.8829 12.5807 31.435C12.3084 31.9799 12.1562 32.5355 12.1241 33.1019C12.0848 33.6647 12.1549 34.2059 12.3342 34.7256C12.5064 35.2417 12.7807 35.7148 13.1572 36.1448C13.5301 36.5641 13.9926 36.9117 14.5446 37.1876Z" fill="#7FBF9E"/>
<path d="M20.9307 25.7202C20.4728 25.2487 20.177 24.7371 20.0433 24.1854C19.9098 23.6223 19.9149 23.0754 20.0587 22.5447C20.2024 22.014 20.4726 21.556 20.8693 21.1706C21.1568 20.8914 21.4547 20.6747 21.763 20.5205C22.0771 20.3606 22.3989 20.2548 22.7284 20.2029C23.0523 20.1453 23.3698 20.1385 23.6809 20.1827L22.7427 19.2169C22.2719 19.2384 21.834 19.3397 21.4289 19.5208C21.0239 19.702 20.6 20.0076 20.1573 20.4376C19.7376 20.8453 19.4192 21.3054 19.202 21.8181C18.985 22.3194 18.8753 22.8449 18.873 23.3947C18.8651 23.9387 18.9678 24.4758 19.1812 25.0061C19.3945 25.5363 19.719 26.0257 20.1546 26.4741C20.5902 26.9225 21.0699 27.2611 21.5937 27.4898C22.1175 27.7184 22.6542 27.8396 23.2038 27.8533C23.7478 27.8612 24.2764 27.7668 24.7893 27.5702C25.3025 27.3623 25.7689 27.0545 26.1886 26.6468C26.6313 26.2168 26.9491 25.802 27.1419 25.4024C27.3348 25.0027 27.4488 24.5679 27.484 24.098L26.5458 23.1321C26.5809 23.4444 26.5678 23.7644 26.5063 24.0923C26.4393 24.4144 26.3213 24.7301 26.1525 25.0394C25.9893 25.3431 25.764 25.6346 25.4766 25.9138C25.0799 26.2991 24.6142 26.5559 24.0795 26.6842C23.5449 26.8124 22.9981 26.8017 22.4391 26.6518C21.8859 26.4964 21.3831 26.1859 20.9307 25.7202Z" fill="#7FBF9E"/>
<path d="M29.909 13.286L33.4455 20.9227L34.3729 20.4933L30.8363 12.8566L29.909 13.286ZM35.0483 15.5433C35.2538 15.9869 35.3182 16.412 35.2414 16.8185C35.1613 17.2177 34.9639 17.583 34.6492 17.9142C34.3311 18.2382 33.9211 18.5164 33.4192 18.7488L32.7319 19.0671C32.2301 19.2995 31.7528 19.4322 31.2999 19.4652C30.8437 19.491 30.4375 19.4053 30.0812 19.2082C29.7215 19.0038 29.439 18.6797 29.2335 18.2361C29.0247 17.7851 28.9604 17.36 29.0405 16.9608C29.1206 16.5616 29.3197 16.2 29.6378 15.876C29.9525 15.5448 30.3608 15.2629 30.8626 15.0305L31.5499 14.7122C32.0518 14.4798 32.5308 14.3508 32.987 14.325C33.4398 14.2919 33.8444 14.374 34.2007 14.5711C34.557 14.7683 34.8395 15.0923 35.0483 15.5433ZM35.9756 15.1138C35.6894 14.4956 35.2924 14.039 34.7849 13.7441C34.2846 13.4458 33.7151 13.3033 33.0764 13.3164C32.4416 13.3189 31.7896 13.4751 31.1205 13.7849L30.4332 14.1032C29.7641 14.4131 29.2196 14.811 28.7998 15.2968C28.384 15.7721 28.1243 16.2986 28.021 16.8765C27.9248 17.4509 28.0199 18.0473 28.3062 18.6655C28.5891 19.2764 28.9824 19.7347 29.4861 20.0402C29.9936 20.3352 30.5648 20.4814 31.1996 20.4789C31.8383 20.4657 32.4923 20.3042 33.1614 19.9944L33.8487 19.6761C34.5178 19.3662 35.0603 18.9737 35.4762 18.4984C35.896 18.0126 36.1539 17.4824 36.25 16.9079C36.35 16.3228 36.2586 15.7248 35.9756 15.1138Z" fill="#7FBF9E"/>
<path d="M40.9625 15.3117L45.3918 14.9006L44.9438 13.9763L41.2328 14.3207L40.9625 15.3117ZM42.7844 11.134L44.5342 14.3765L44.6522 14.6071L46.1399 17.3668L47.2772 17.2612L42.5699 8.82356L39.4959 17.9835L40.6332 17.8779L41.6049 14.8174L41.6806 14.5931L42.7844 11.134Z" fill="#7FBF9E"/>
<path d="M52.0952 8.95909L50.3608 17.1943L51.3608 17.4049L53.0951 9.16969L52.0952 8.95909ZM52.4499 10.0167L54.1322 10.371C54.6655 10.4833 55.0697 10.7036 55.3446 11.0318C55.6289 11.3538 55.7175 11.7697 55.6101 12.2795C55.5044 12.7814 55.2556 13.1263 54.8639 13.3141C54.48 13.5035 54.0214 13.5421 53.488 13.4298L51.8057 13.0755L51.6075 14.0166L53.2898 14.3709C53.8231 14.4833 54.3183 14.4852 54.7753 14.3766C55.2417 14.2619 55.6354 14.0458 55.9561 13.7284C56.2864 13.4048 56.5044 12.992 56.6101 12.4901C56.7174 11.9803 56.6845 11.5146 56.5111 11.0932C56.3456 10.6733 56.0717 10.3208 55.6895 10.0355C55.3168 9.74405 54.8638 9.54216 54.3304 9.42984L52.6481 9.07554L52.4499 10.0167Z" fill="#7FBF9E"/>
<path d="M62.3047 14.3772L62.1699 19.9947L67.0249 17.1656L64.6708 22.3798L65.5507 22.8995L69.1653 14.7715L63.1667 18.3075L63.3686 11.3472L57.9942 18.4356L58.8741 18.9554L62.3047 14.3772Z" fill="#7FBF9E"/>
<path d="M70.7505 23.8217L73.5726 27.2603L74.0872 26.3713L71.7228 23.4903L70.7505 23.8217ZM75.2318 22.9902L73.5262 26.2563L73.4014 26.4832L71.9489 29.2616L72.6735 30.1445L77.0254 21.5182L67.7158 24.1037L68.4404 24.9866L71.5198 24.0769L71.7481 24.0139L75.2318 22.9902Z" fill="#7FBF9E"/>
</svg>
