<svg width="152" height="152" viewBox="0 0 152 152" fill="none" xmlns="http://www.w3.org/2000/svg">
<circle cx="34" cy="34" r="2" fill="#7FBF9E"/>
<circle cx="57" cy="133" r="2" fill="#7FBF9E"/>
<circle cx="137" cy="62" r="2" fill="#7FBF9E"/>
<path d="M137.768 78.6746L131.286 77.1375L131.432 75.9566L141.498 78.4033L133.972 81.4204L140.534 86.1837L130.175 86.099L130.322 84.918L136.983 85.0101L131.707 81.1397L137.768 78.6746Z" fill="#7FBF9E"/>
<path d="M134.247 91.4521C134.918 91.7096 135.493 92.0604 135.973 92.5043C136.457 92.9603 136.829 93.4777 137.086 94.0564C137.353 94.6386 137.495 95.258 137.513 95.9147C137.539 96.5747 137.426 97.2358 137.172 97.898C136.914 98.569 136.556 99.1365 136.098 99.6005C135.646 100.077 135.126 100.442 134.538 100.696C133.959 100.954 133.339 101.086 132.677 101.092C132.02 101.109 131.356 100.99 130.685 100.732C130.023 100.478 129.45 100.123 128.965 99.6668C128.477 99.2196 128.099 98.7049 127.833 98.1227C127.575 97.544 127.433 96.9246 127.406 96.2645C127.385 95.6166 127.503 94.9571 127.761 94.2862C128.015 93.6239 128.368 93.0548 128.821 92.5787C129.282 92.1059 129.803 91.7407 130.381 91.483C130.969 91.2286 131.595 91.0941 132.261 91.0796C132.923 91.0738 133.585 91.1979 134.247 91.4521ZM133.796 92.6285C133.107 92.3643 132.436 92.2766 131.782 92.3655C131.125 92.4631 130.539 92.7132 130.025 93.1156C129.51 93.518 129.126 94.0503 128.872 94.7126C128.614 95.3835 128.544 96.0362 128.66 96.6707C128.773 97.3139 129.043 97.8874 129.469 98.391C129.893 98.9033 130.448 99.2916 131.137 99.5558C131.825 99.82 132.498 99.9032 133.155 99.8056C133.809 99.7167 134.393 99.471 134.908 99.0686C135.419 98.6749 135.803 98.1426 136.061 97.4716C136.315 96.8094 136.385 96.1567 136.272 95.5135C136.159 94.8703 135.891 94.2925 135.468 93.7802C135.041 93.2766 134.484 92.8927 133.796 92.6285Z" fill="#7FBF9E"/>
<path d="M128.341 105.521C127.714 105.099 127.067 104.866 126.399 104.821C125.726 104.785 125.1 104.904 124.522 105.178C123.944 105.453 123.475 105.857 123.115 106.392C122.729 106.965 122.5 107.547 122.428 108.14C122.356 108.732 122.401 109.292 122.564 109.818L121.264 108.942C121.191 108.398 121.216 107.876 121.34 107.374C121.464 106.872 121.727 106.323 122.128 105.727C122.508 105.162 122.966 104.699 123.501 104.339C124.038 103.992 124.617 103.758 125.239 103.636C125.869 103.52 126.509 103.529 127.161 103.664C127.813 103.799 128.441 104.069 129.045 104.476C129.649 104.882 130.136 105.362 130.506 105.915C130.877 106.468 131.123 107.055 131.244 107.677C131.374 108.304 131.375 108.929 131.248 109.552C131.123 110.189 130.871 110.789 130.491 111.355C130.089 111.951 129.68 112.401 129.262 112.705C128.844 113.008 128.369 113.229 127.838 113.366L126.537 112.491C127.094 112.449 127.629 112.281 128.143 111.985C128.664 111.695 129.118 111.263 129.503 110.69C129.863 110.156 130.061 109.569 130.097 108.93C130.134 108.291 130.008 107.666 129.721 107.057C129.436 106.46 128.976 105.948 128.341 105.521Z" fill="#7FBF9E"/>
<path d="M121.939 121.747L121.073 122.563L120.304 121.749C119.687 122.305 119.036 122.696 118.349 122.92C117.662 123.144 116.991 123.181 116.335 123.03C115.686 122.885 115.095 122.532 114.564 121.968C114.032 121.405 113.71 120.791 113.597 120.128C113.491 119.471 113.57 118.806 113.833 118.134C114.097 117.462 114.525 116.834 115.116 116.25L114.348 115.435L115.213 114.619L115.982 115.433C116.599 114.877 117.251 114.486 117.937 114.262C118.624 114.038 119.292 113.998 119.941 114.142C120.597 114.293 121.191 114.651 121.722 115.214C122.254 115.777 122.573 116.388 122.679 117.044C122.792 117.708 122.717 118.376 122.453 119.048C122.189 119.721 121.761 120.349 121.17 120.932L121.939 121.747ZM115.429 121.151C116.006 121.762 116.655 122.022 117.377 121.931C118.093 121.846 118.796 121.497 119.488 120.883L115.933 117.116C115.28 117.77 114.89 118.452 114.764 119.161C114.631 119.877 114.853 120.54 115.429 121.151ZM120.857 116.031C120.28 115.42 119.634 115.157 118.919 115.241C118.197 115.333 117.49 115.685 116.798 116.299L120.353 120.067C121.006 119.412 121.399 118.727 121.532 118.011C121.658 117.302 121.433 116.642 120.857 116.031Z" fill="#7FBF9E"/>
<path d="M102.626 124.162L105.194 126.059L108.593 124.051L108.171 120.886L109.316 120.21L110.632 131.383L101.481 124.838L102.626 124.162ZM109.258 129.057L108.753 125.258L106.173 126.781L109.258 129.057Z" fill="#7FBF9E"/>
<path d="M101.126 135.894L98.612 136.763C98.0121 136.97 97.4388 137.04 96.892 136.972C96.3394 136.916 95.8548 136.728 95.4381 136.408C95.0125 136.091 94.7007 135.646 94.5026 135.072C94.3075 134.508 94.278 133.965 94.414 133.444C94.5442 132.935 94.8079 132.483 95.205 132.089C95.5963 131.707 96.092 131.413 96.6918 131.205L98.0812 130.725L96.8011 127.02L97.9259 126.632L101.126 135.894ZM98.2462 135.704L99.6356 135.224L98.447 131.784L97.0576 132.264C96.4577 132.471 96.0228 132.784 95.7529 133.204C95.4741 133.626 95.4323 134.119 95.6273 134.684C95.8254 135.257 96.1629 135.619 96.6398 135.771C97.1109 135.934 97.6464 135.912 98.2462 135.704Z" fill="#7FBF9E"/>
<path d="M87.9188 136.676L87.9035 130.015L89.0861 129.882L89.0514 140.24L84.3641 133.624L81.2603 141.115L78.9299 131.022L80.1125 130.889L81.5746 137.389L84.1095 131.356L87.9188 136.676Z" fill="#7FBF9E"/>
<path d="M67.8284 130.414L68.7033 133.485L72.6213 133.971L74.2195 131.206L75.5394 131.37L69.7583 141.022L66.5085 130.251L67.8284 130.414ZM70.0906 138.341L72.0112 135.024L69.038 134.655L70.0906 138.341Z" fill="#7FBF9E"/>
<path d="M45.862 129.98L50.1443 124.876L51.134 125.537L44.4308 133.434L45.1117 125.355L37.9104 129.081L42.6342 119.862L43.6239 120.523L40.5525 126.435L46.3788 123.457L45.862 129.98Z" fill="#7FBF9E"/>
<path d="M36.0811 121.099C35.5512 121.585 34.9807 121.943 34.3695 122.174C33.7451 122.404 33.1164 122.506 32.4834 122.478C31.8436 122.457 31.2258 122.308 30.6302 122.031C30.0276 121.76 29.4867 121.363 29.0075 120.84C28.522 120.31 28.1737 119.737 27.9628 119.12C27.7388 118.502 27.644 117.874 27.6785 117.235C27.7061 116.602 27.865 115.988 28.1552 115.393C28.4322 114.797 28.8356 114.256 29.3655 113.771C29.8885 113.292 30.4621 112.937 31.0865 112.706C31.7046 112.469 32.3336 112.361 32.9735 112.383C33.6064 112.41 34.2242 112.559 34.8267 112.83C35.4161 113.1 35.9535 113.5 36.4391 114.03C36.9183 114.553 37.27 115.123 37.494 115.741C37.7112 116.365 37.806 116.993 37.7784 117.626C37.7439 118.265 37.5847 118.886 37.3008 119.488C37.0106 120.083 36.604 120.62 36.0811 121.099ZM35.2298 120.17C35.7734 119.672 36.1513 119.111 36.3636 118.486C36.5695 117.854 36.6071 117.218 36.4765 116.578C36.3459 115.938 36.041 115.357 35.5617 114.834C35.0762 114.304 34.5235 113.95 33.9038 113.771C33.2777 113.585 32.6442 113.57 32.0032 113.727C31.3558 113.878 30.7604 114.202 30.2168 114.7C29.6732 115.198 29.2984 115.763 29.0925 116.395C28.8802 117.02 28.8394 117.652 28.97 118.292C29.0944 118.925 29.3993 119.506 29.8848 120.036C30.3641 120.559 30.9167 120.914 31.5428 121.099C32.1688 121.285 32.8055 121.303 33.4529 121.153C34.0939 120.996 34.6862 120.668 35.2298 120.17Z" fill="#7FBF9E"/>
<path d="M26.1255 109.509C26.7834 109.136 27.2814 108.661 27.6194 108.084C27.9528 107.498 28.126 106.886 28.139 106.245C28.152 105.605 27.9998 105.005 27.6825 104.445C27.3422 103.844 26.9233 103.378 26.4256 103.049C25.928 102.719 25.4073 102.51 24.8636 102.421L26.2281 101.648C26.7471 101.826 27.2034 102.083 27.5968 102.418C27.9903 102.753 28.364 103.233 28.7181 103.858C29.0537 104.451 29.2631 105.067 29.3463 105.707C29.4167 106.342 29.3673 106.966 29.1982 107.576C29.0209 108.191 28.7263 108.76 28.3144 109.283C27.9025 109.806 27.3798 110.247 26.7463 110.605C26.1128 110.964 25.4659 111.185 24.8057 111.27C24.1455 111.354 23.5101 111.311 22.8996 111.142C22.2809 110.978 21.7211 110.699 21.2202 110.307C20.7066 109.912 20.282 109.417 19.9463 108.824C19.5923 108.199 19.3728 107.631 19.288 107.122C19.2032 106.612 19.2181 106.089 19.3325 105.552L20.697 104.78C20.4854 105.296 20.3969 105.85 20.4316 106.442C20.4582 107.038 20.6416 107.637 20.9819 108.238C21.2992 108.799 21.7356 109.238 22.2912 109.556C22.8467 109.874 23.4614 110.041 24.1351 110.057C24.7961 110.069 25.4595 109.886 26.1255 109.509Z" fill="#7FBF9E"/>
<path d="M14.5085 96.5956L14.1669 95.4557L15.2397 95.1342C15.0192 94.3331 14.9626 93.5755 15.0701 92.8612C15.1776 92.147 15.446 91.5307 15.8753 91.0123C16.2956 90.4966 16.8768 90.1276 17.6189 89.9052C18.3609 89.6828 19.0538 89.6701 19.6974 89.8669C20.332 90.0665 20.8906 90.435 21.3732 90.9724C21.8558 91.5098 22.2252 92.1737 22.4816 92.9641L23.5544 92.6426L23.896 93.7825L22.8232 94.104C23.0437 94.905 23.1003 95.6627 22.9928 96.3769C22.8853 97.0912 22.6214 97.7062 22.2011 98.2219C21.7718 98.7402 21.1861 99.1106 20.4441 99.333C19.702 99.5554 19.0136 99.5668 18.379 99.3672C17.7354 99.1704 17.1723 98.8032 16.6897 98.2658C16.2071 97.7284 15.8377 97.0645 15.5813 96.2741L14.5085 96.5956ZM17.9605 91.0451C17.1558 91.2862 16.6322 91.7501 16.3898 92.4365C16.1446 93.1141 16.1412 93.8995 16.3797 94.7926L21.3417 93.3057C21.0496 92.4286 20.6149 91.7745 20.0375 91.3434C19.4575 90.9034 18.7651 90.804 17.9605 91.0451ZM20.1025 98.1931C20.9071 97.9519 21.432 97.4926 21.6772 96.815C21.9196 96.1285 21.9217 95.3387 21.6833 94.4456L16.7213 95.9325C17.0133 96.8096 17.4494 97.4681 18.0294 97.9082C18.6068 98.3392 19.2978 98.4342 20.1025 98.1931Z" fill="#7FBF9E"/>
<path d="M21.0312 78.3131L18.1792 79.7491L18.4379 83.6886L21.4533 84.7392L21.5405 86.0664L10.9744 82.2006L20.944 76.9859L21.0312 78.3131ZM13.6706 82.0235L17.2892 83.287L17.0928 80.2975L13.6706 82.0235Z" fill="#7FBF9E"/>
<path d="M11.2187 71.3122L11.5864 68.6778C11.6741 68.0492 11.8723 67.5067 12.181 67.0503C12.4818 66.5834 12.8694 66.237 13.3439 66.0111C13.8196 65.7759 14.3579 65.7003 14.9587 65.7841C15.5503 65.8667 16.0473 66.0869 16.4497 66.4446C16.8442 66.7918 17.1268 67.2317 17.2974 67.7644C17.4602 68.2866 17.4976 68.862 17.4099 69.4906L17.2067 70.9465L21.0891 71.4883L20.9246 72.6669L11.2187 71.3122ZM12.6956 68.8326L12.4924 70.2885L16.0975 70.7916L16.3007 69.3357C16.3884 68.7072 16.3068 68.1775 16.056 67.7467C15.8064 67.3066 15.3858 67.0453 14.7942 66.9627C14.1934 66.8789 13.7173 67.015 13.3661 67.3712C13.0068 67.7169 12.7833 68.204 12.6956 68.8326Z" fill="#7FBF9E"/>
<path d="M16.4431 59.3248L22.3985 62.3104L21.9846 63.4261L12.7509 58.7316L20.7691 57.525L15.4776 51.3811L25.539 53.8441L25.1252 54.9598L18.6634 53.3393L22.9086 58.3186L16.4431 59.3248Z" fill="#7FBF9E"/>
<path d="M30.9095 44.4727L27.7725 43.8766L25.5804 47.1601L27.3337 49.8288L26.5953 50.9349L20.5636 41.4372L31.648 43.3666L30.9095 44.4727ZM22.8108 42.9375L24.9132 46.1423L26.5767 43.6506L22.8108 42.9375Z" fill="#7FBF9E"/>
<path d="M41.2748 24.8352L43.9038 30.9564L42.8682 31.5427L38.8341 22.0019L45.7424 26.2474L45.6566 18.1393L51.7618 26.5075L50.7262 27.0938L46.8302 21.6899L46.8667 28.2332L41.2748 24.8352Z" fill="#7FBF9E"/>
<path d="M53.6021 20.0464C53.4088 19.3542 53.3475 18.6833 53.4181 18.0337C53.4952 17.3726 53.6893 16.7661 54.0004 16.2142C54.3089 15.6532 54.7214 15.1698 55.238 14.764C55.7521 14.3492 56.3507 14.0464 57.0339 13.8557C57.7261 13.6624 58.395 13.6114 59.0406 13.7025C59.6927 13.7821 60.296 13.9819 60.8505 14.3019C61.4024 14.613 61.8781 15.0326 62.2774 15.5606C62.6833 16.0772 62.9828 16.6816 63.176 17.3738C63.3667 18.057 63.4236 18.7291 63.3465 19.3902C63.2784 20.0488 63.09 20.6585 62.7815 21.2195C62.4704 21.7714 62.0579 22.2548 61.5438 22.6696C61.0362 23.073 60.4364 23.3713 59.7442 23.5645C59.0609 23.7552 58.3933 23.8108 57.7412 23.7312C57.0866 23.6426 56.4833 23.4427 55.9314 23.1317C55.3769 22.8117 54.8955 22.3889 54.4872 21.8633C54.0878 21.3352 53.7928 20.7296 53.6021 20.0464ZM54.8157 19.7076C55.0139 20.4178 55.3436 21.0089 55.8049 21.4809C56.2751 21.9504 56.8251 22.2717 57.4548 22.4448C58.0845 22.6179 58.741 22.609 59.4242 22.4183C60.1164 22.2251 60.6825 21.8926 61.1226 21.4209C61.5716 20.9467 61.8712 20.3883 62.0212 19.7456C62.1803 19.1004 62.1607 18.4227 61.9624 17.7126C61.7642 17.0024 61.4299 16.4125 60.9597 15.943C60.4985 15.471 59.953 15.1484 59.3233 14.9754C58.7026 14.7998 58.0461 14.8086 57.3539 15.0018C56.6707 15.1926 56.1045 15.525 55.6555 15.9992C55.2065 16.4734 54.9024 17.0331 54.7434 17.6783C54.5933 18.321 54.6174 18.9974 54.8157 19.7076Z" fill="#7FBF9E"/>
<path d="M68.4894 16.3825C68.5244 17.1377 68.7231 17.7966 69.0855 18.3591C69.4573 18.9211 69.9257 19.3526 70.4909 19.6534C71.0561 19.9542 71.6604 20.0897 72.3037 20.0599C72.9936 20.0279 73.598 19.8645 74.1169 19.5695C74.6358 19.2744 75.0578 18.9045 75.3829 18.4597L75.4555 20.026C75.0621 20.4086 74.6271 20.6997 74.1505 20.8993C73.6739 21.0989 73.0767 21.2154 72.3588 21.2486C71.6782 21.2802 71.0339 21.1886 70.426 20.9738C69.8269 20.7493 69.2933 20.4237 68.825 19.9969C68.3564 19.5608 67.9819 19.0409 67.7016 18.4372C67.4214 17.8335 67.2644 17.1681 67.2307 16.4409C67.197 15.7137 67.2918 15.0365 67.515 14.4095C67.7382 13.7825 68.0632 13.2349 68.49 12.7666C68.9163 12.2891 69.4176 11.9155 69.9937 11.6458C70.5787 11.3664 71.2116 11.211 71.8922 11.1794C72.6101 11.1462 73.2155 11.2069 73.7085 11.3616C74.2016 11.5162 74.6616 11.7659 75.0887 12.1105L75.1613 13.6768C74.796 13.2546 74.3416 12.9253 73.7981 12.6888C73.2541 12.4431 72.6372 12.3362 71.9472 12.3682C71.3039 12.398 70.7148 12.5888 70.1799 12.9406C69.6449 13.2924 69.2183 13.7653 68.9002 14.3594C68.5909 14.9436 68.4539 15.618 68.4894 16.3825Z" fill="#7FBF9E"/>
<path d="M85.6361 11.877L86.8067 12.091L86.6053 13.1928C87.4191 13.3605 88.1196 13.6546 88.7069 14.0751C89.2942 14.4956 89.7211 15.0148 89.9876 15.6328C90.2558 16.2417 90.3203 16.9271 90.181 17.6891C90.0417 18.4512 89.738 19.074 89.2701 19.5578C88.8038 20.0323 88.2216 20.3623 87.5235 20.5478C86.8255 20.7333 86.0662 20.7605 85.2457 20.6295L85.0443 21.7312L83.8737 21.5172L84.0751 20.4155C83.2613 20.2477 82.5608 19.9536 81.9735 19.5331C81.3862 19.1127 80.9585 18.598 80.6903 17.9892C80.4237 17.3712 80.3601 16.6812 80.4994 15.9191C80.6388 15.1571 80.9416 14.5388 81.4078 14.0642C81.8758 13.5805 82.4588 13.2459 83.1569 13.0604C83.855 12.8749 84.6142 12.8477 85.4347 12.9787L85.6361 11.877ZM89.0104 17.4751C89.1614 16.6488 88.9864 15.9716 88.4852 15.4435C87.9932 14.9171 87.2952 14.5571 86.3913 14.3634L85.4597 19.4589C86.3737 19.5975 87.1539 19.5077 87.8003 19.1894C88.456 18.8729 88.8593 18.3014 89.0104 17.4751ZM81.67 16.1331C81.519 16.9594 81.6894 17.6358 82.1815 18.1622C82.6827 18.6903 83.3852 19.0512 84.2891 19.2449L85.2207 14.1493C84.3067 14.0107 83.5219 14.0997 82.8663 14.4163C82.2199 14.7345 81.8211 15.3068 81.67 16.1331Z" fill="#7FBF9E"/>
<path d="M98.6426 25.8474L98.6522 22.6543L95.0218 21.1027L92.7207 23.3165L91.4977 22.7939L99.7255 15.1198L99.8655 26.37L98.6426 25.8474ZM98.6636 17.6045L95.8997 20.2599L98.6546 21.4373L98.6636 17.6045Z" fill="#7FBF9E"/>
<path d="M109.285 20.2152L111.469 21.7324C111.991 22.0944 112.385 22.5161 112.653 22.9976C112.934 23.4767 113.068 23.9789 113.056 24.5043C113.051 25.0349 112.875 25.5494 112.529 26.0477C112.189 26.5384 111.768 26.8825 111.267 27.0801C110.779 27.2754 110.259 27.329 109.707 27.2409C109.167 27.1504 108.637 26.9241 108.116 26.5621L106.908 25.7237L104.672 28.9435L103.695 28.2648L109.285 20.2152ZM110.831 22.6523L109.623 21.8139L107.547 24.8037L108.754 25.6422C109.276 26.0042 109.785 26.1705 110.283 26.1411C110.788 26.117 111.211 25.8596 111.552 25.369C111.898 24.8707 111.991 24.3844 111.832 23.9102C111.686 23.4336 111.352 23.0143 110.831 22.6523Z" fill="#7FBF9E"/>
<path d="M117.67 30.319L112.324 34.2952L111.514 33.4237L119.86 27.2882L117.331 34.9923L125.199 33.0296L118.473 40.9081L117.663 40.0366L122.017 34.9942L115.66 36.5462L117.67 30.319Z" fill="#7FBF9E"/>
<path d="M124.552 50.1006L126.496 47.5679L124.551 44.1323L121.379 44.4964L120.724 43.3391L131.92 42.2289L125.207 51.258L124.552 50.1006ZM129.569 43.5601L125.761 43.9947L127.237 46.6018L129.569 43.5601Z" fill="#7FBF9E"/>
</svg>
