<svg xmlns="http://www.w3.org/2000/svg" xmlns:xlink="http://www.w3.org/1999/xlink" width="22" height="22"><symbol fill="none" id="sprite-close" viewBox="0 0 22 22"><title>close</title><path d="m13.015 11 8.567 8.567a1.423 1.423 0 0 1 0 2.015 1.424 1.424 0 0 1-2.015 0L11 13.015l-8.566 8.567a1.424 1.424 0 0 1-2.016 0 1.424 1.424 0 0 1 0-2.015L8.984 11 .418 2.433A1.423 1.423 0 0 1 1.426 0c.365 0 .73.14 1.008.418L11 8.984 19.567.418a1.421 1.421 0 0 1 2.015 0 1.423 1.423 0 0 1 0 2.015L13.015 11Z" fill="#5F707A"/></symbol><use fill="none" xlink:href="#sprite-close" width="22" height="22"/><view id="sprite-close-fragment" viewBox="0 0 22 22"/></svg>